<?xml version="1.0" standalone="no"?><!DOCTYPE svg PUBLIC "-//W3C//DTD SVG 1.1//EN" "http://www.w3.org/Graphics/SVG/1.1/DTD/svg11.dtd"><svg t="1701337341364" class="icon" viewBox="0 0 1024 1024" version="1.1" xmlns="http://www.w3.org/2000/svg" p-id="8647" xmlns:xlink="http://www.w3.org/1999/xlink" width="200" height="200"><path d="M978.346667 51.2H853.333333V22.306133C853.333333 10.069333 834.3552 0 822.101333 0H201.898667C189.6448 0 170.666667 10.069333 170.666667 22.306133V51.2H45.653333C19.694933 51.2 0 83.797333 0 109.755733v139.946667c0 117.9136 82.2272 216.661333 191.470933 244.48C230.280533 603.255467 324.266667 686.762667 443.733333 711.714133V802.133333h-19.268266c-12.919467 0-31.931733 3.089067-31.931734 16.0256V887.466667h-102.161066c-12.936533 0-17.3056 5.905067-17.3056 14.455466v97.0752c0 8.5504 4.369067 25.002667 17.3056 25.002667h443.255466c12.936533 0 17.3056-16.452267 17.3056-24.9856v-97.0752c0-8.567467-4.369067-14.472533-17.3056-14.472533H631.466667v-69.307734c0-12.936533-19.012267-16.0256-31.931734-16.0256H580.266667v-90.4192c119.466667-24.951467 213.4528-108.4416 252.2624-217.514666C941.7728 466.363733 1024 367.616 1024 249.719467v-139.946667C1024 83.797333 1004.305067 51.2 978.346667 51.2zM170.666667 375.466667v37.0688c-65.604267-29.184-119.466667-94.9248-119.466667-171.264V102.4h119.466667v273.066667z m476.398933-84.753067l-54.9888 53.572267a11.195733 11.195733 0 0 0-3.259733 10.001066l12.936533 75.6224c1.621333 9.233067-8.1408 16.298667-16.520533 11.946667L512 403.4048l-73.233067 38.468267a11.400533 11.400533 0 0 1-16.520533-11.946667l12.936533-75.6224a11.093333 11.093333 0 0 0-3.259733-10.001067l-54.971733-53.572266a11.332267 11.332267 0 0 1 6.2976-19.336534l75.963733-11.076266a11.554133 11.554133 0 0 0 8.584533-6.1952l34.013867-68.778667a11.383467 11.383467 0 0 1 20.4288 0l34.013867 68.778667a11.332267 11.332267 0 0 0 8.584533 6.1952l75.963733 11.076266c9.301333 1.28 13.0048 12.8 6.263467 19.319467zM972.8 241.288533c0 76.3392-53.8624 142.08-119.466667 171.264V102.4h119.466667v138.888533z" fill="#515151" p-id="8648"></path></svg>