<svg width="261" height="345" viewBox="0 0 261 345" fill="none" xmlns="http://www.w3.org/2000/svg">
<g filter="url(#filter0_d_43_644)">
<path fill-rule="evenodd" clip-rule="evenodd" d="M23 1C15.268 1 9 7.26802 9 15V314C9 321.732 15.268 328 23 328H238C245.732 328 252 321.732 252 314V15C252 7.26801 245.732 1 238 1H23ZM130 57C139.389 57 147 49.3888 147 40C147 30.6112 139.389 23 130 23C120.611 23 113 30.6112 113 40C113 49.3888 120.611 57 130 57Z" fill="white"/>
</g>
<defs>
<filter id="filter0_d_43_644" x="0" y="0" width="261" height="345" filterUnits="userSpaceOnUse" color-interpolation-filters="sRGB">
<feFlood flood-opacity="0" result="BackgroundImageFix"/>
<feColorMatrix in="SourceAlpha" type="matrix" values="0 0 0 0 0 0 0 0 0 0 0 0 0 0 0 0 0 0 127 0" result="hardAlpha"/>
<feOffset dy="8"/>
<feGaussianBlur stdDeviation="4.5"/>
<feComposite in2="hardAlpha" operator="out"/>
<feColorMatrix type="matrix" values="0 0 0 0 0.424861 0 0 0 0 0.766667 0 0 0 0 0.643617 0 0 0 0.47 0"/>
<feBlend mode="normal" in2="BackgroundImageFix" result="effect1_dropShadow_43_644"/>
<feBlend mode="normal" in="SourceGraphic" in2="effect1_dropShadow_43_644" result="shape"/>
</filter>
</defs>
</svg>
