<svg width="230" height="266" viewBox="0 0 230 266" fill="none" xmlns="http://www.w3.org/2000/svg">
<path d="M148.761 98.021C152.342 98.1018 152.482 92.5265 148.887 92.4454C145.292 92.3642 145.166 97.9399 148.761 98.021Z" fill="white"/>
<path d="M159.401 97.4424C162.982 97.5231 163.122 91.9479 159.527 91.8667C155.932 91.7856 155.806 97.3612 159.401 97.4424Z" fill="white"/>
<path d="M164.908 105.02C157.039 109.945 147.369 111.006 138.624 107.923C135.233 106.73 133.656 112.08 137.017 113.271C139.17 114.034 141.388 114.56 143.625 114.878C143.489 115.634 143.664 116.441 144.361 117.156C147.165 120.031 150.118 122.864 153.857 124.481C157.463 126.035 161.417 126.005 164.963 124.315C172.055 120.95 174.046 111.087 168.256 105.527C167.397 104.704 165.964 104.345 164.893 105.02L164.908 105.02ZM161.724 119.66C157.32 121.197 153.433 118.239 150.306 115.208C155.587 114.985 160.82 113.6 165.499 111.103C167.091 114.322 165.38 118.374 161.724 119.66Z" fill="white"/>
<path d="M217.92 80.1978C215.222 79.1997 212.376 78.8826 209.527 78.6547C209.776 74.2124 209.079 69.5257 206.141 66.023C203.521 62.8995 198.891 61.2628 194.941 62.4381C190.587 63.7233 188.41 68.0031 189.01 72.3306C189.637 76.8224 192.815 80.2709 196.862 82.0284C201.44 84.0209 206.467 83.8368 211.33 84.4077C215.614 84.906 219.817 86.3694 221.654 90.591C223.236 94.2564 222.973 98.6686 222.203 102.489C221.334 106.754 219.873 110.901 217.809 114.737C213.805 122.233 207.868 128.466 200.636 132.811C200.496 127.824 199.91 122.842 198.861 117.954C196.277 105.995 190.972 94.7482 184.457 84.441C176.994 72.6397 168.007 61.8899 159.002 51.2438C157.974 50.0306 156.186 50.258 155.066 51.155C136.221 66.2453 122.278 87.3817 115.837 110.651C113.087 120.556 111.756 130.79 111.733 141.039C104.484 143.479 95.679 148.383 96.3083 157.382C96.7957 164.102 101.992 167.655 107.727 169.704C106.415 170.567 105.087 171.429 103.775 172.307C100.893 174.191 97.8366 175.937 95.1424 178.092C92.9477 179.843 91.2235 182.482 91.9154 185.413C92.5941 188.27 95.24 190.233 98.0707 190.595C103.836 191.335 110.077 186.775 113.721 182.692C115.17 181.058 116.413 179.316 117.451 177.45C118.562 180.912 119.838 184.317 121.264 187.652C124.343 194.788 128.273 201.779 133.34 207.724C132.932 208.042 132.61 208.496 132.432 209.132C129.069 221.135 125.707 233.124 122.36 245.127C122.078 245.106 121.781 245.114 121.497 245.182C114.962 241.673 106.69 241.367 100.21 245.297C98.0854 246.588 96.1109 248.462 95.5049 250.948C94.8993 253.418 95.8841 255.88 97.856 257.412C101.494 260.217 107.049 259.702 111.193 258.531C115.321 257.36 118.982 255.167 121.963 252.199C123.48 253.439 125.926 253.062 126.508 250.978C130.145 237.999 133.782 225.02 137.42 212.026C140.097 214.571 143.049 216.824 146.306 218.698C147.685 219.488 149.019 218.997 149.813 218.048C149.858 218.049 149.917 218.05 149.963 218.022C150.86 217.759 151.75 217.214 152.215 216.362C153.641 213.761 155.052 211.175 156.478 208.574C156.586 208.383 156.665 208.191 156.744 207.985C161.467 205.503 165.932 202.584 170.065 199.241C168.27 219.506 170.318 240.066 176.09 259.579C176.657 261.481 178.798 262.125 180.29 261.191C180.592 261.645 181.044 262.012 181.678 262.234C186.765 264.045 192.394 265.57 197.478 262.873C201.72 260.619 204.045 255.078 201.558 250.678C198.757 245.706 192.41 246.396 187.867 248.153C184.943 249.292 182.304 250.958 180.072 253.079C175.204 234.3 173.831 214.782 176.021 195.478C176.077 194.943 175.998 194.495 175.829 194.12C186.512 183.709 194.406 170.47 198.124 155.886C199.51 150.428 200.32 144.838 200.581 139.206C215.195 131.8 226.022 117.02 228.129 100.689C229.212 92.2045 226.558 83.3827 217.95 80.1836L217.92 80.1978ZM194.939 73.0595C193.5 69.665 195.738 66.6511 199.409 67.9538C203.538 69.4155 204.158 74.2195 203.98 78.1576C200.438 77.7058 196.45 76.6042 194.939 73.0595ZM109.515 253.198C108.288 253.527 100.365 254.925 100.903 252.126C101.206 250.556 104.025 249.474 105.314 248.997C107.172 248.325 109.141 248.013 111.102 248.042C113.123 248.073 115.136 248.46 117.021 249.202C114.854 251.072 112.266 252.457 109.499 253.212L109.515 253.198ZM188.089 254.123C189.939 253.168 194.878 250.974 196.552 253.198C198.125 255.286 195.782 257.703 193.923 258.375C190.642 259.566 187.03 258.264 183.874 257.137C185.12 255.945 186.525 254.935 188.089 254.123ZM101.853 157.343C101.237 151.721 107.238 148.584 111.854 146.888C112.156 153.247 112.979 159.588 114.31 165.821C109.548 164.776 102.482 163.04 101.853 157.343ZM100.772 184.824C99.9346 185.058 97.0581 185.41 97.3469 183.81C97.6343 182.269 101.058 180.725 102.144 180.006C106.006 177.475 109.869 174.929 113.731 172.398C111.358 178.101 106.576 183.2 100.757 184.839L100.772 184.824ZM180.095 180.902C173.258 190.134 164.289 197.667 154.15 203.032C153.574 202.885 152.966 202.842 152.382 203.022C151.484 203.284 150.595 203.829 150.13 204.682C148.797 207.121 147.464 209.545 146.13 211.985C137.893 206.22 132.096 197.67 127.781 188.632C124.716 182.196 122.313 175.403 120.582 168.462C120.649 168.121 120.716 167.78 120.769 167.425C120.891 166.609 120.463 165.856 119.836 165.321C118.933 161.18 118.24 156.984 117.815 152.78C115.427 128.835 120.847 104.68 133.379 84.1513C139.629 73.9238 147.489 64.8186 156.626 57.0959C171.015 74.1262 185.77 92.1168 192.071 113.889C198.675 136.738 194.245 161.808 180.095 180.932L180.095 180.902Z" fill="white"/>
<path d="M65.3716 71.3085C65.621 71.2254 65.8496 71.1215 66.0366 70.976C72.4582 67.7547 78.9005 64.5333 85.3221 61.2912C86.6937 60.6053 87.0262 58.4647 85.8624 57.4255C83.618 55.4304 82.2256 52.7078 82.4334 49.6319C82.6204 46.66 84.1999 43.979 85.2597 41.2564C87.4003 35.8113 87.0054 30.0752 84.6363 24.7756C81.997 18.9148 77.0509 14.3633 71.8555 10.7679C67.1173 7.48417 61.714 5.011 55.9159 4.40829C43.8624 3.11975 32.1415 11.1627 25.7615 20.8892C19.3192 30.6987 18.2385 43.6465 24.0574 54.0171C29.6477 63.9722 41.6596 69.6459 52.757 66.861C53.6714 69.1263 54.5858 71.3709 55.5002 73.6362C56.0198 74.904 57.7862 75.1118 58.8461 74.5714L65.33 71.3293L65.3716 71.3085ZM65.6417 65.6971C64.0831 61.8315 61.9426 58.0906 58.0148 56.2617C53.6091 54.2042 48.3929 55.7421 44.091 53.6223C40.1009 51.6479 37.6279 46.9509 38.7086 42.5657C39.3112 40.0718 41.2024 37.4531 43.6131 36.0191C43.4468 38.6378 44.3404 41.0694 47.0836 42.6904C50.1801 44.5401 53.9208 43.21 55.2716 39.9263C56.5809 36.7257 55.3548 33.0679 52.3622 31.3222C51.8842 31.052 51.4062 30.8442 50.9282 30.6571C52.9441 28.1216 56.1029 26.2096 59.3449 26.1265C58.3889 26.8954 57.5992 27.893 57.1004 29.1192C55.8327 32.299 57.1004 35.8529 60.3216 37.183C63.1064 38.3468 66.6185 37.5986 68.5512 35.2086C69.2162 34.3773 69.6526 33.442 69.8812 32.4445C70.0267 32.6731 70.2137 32.8601 70.3384 33.0887C71.3775 34.9176 71.8347 37.1206 71.5022 39.2197C71.0658 41.9215 68.9668 43.7504 67.8654 46.1404C65.0391 52.2298 69.3617 57.7373 73.6427 61.7068C70.9827 63.0369 68.3434 64.367 65.6833 65.6971H65.6417ZM48.5799 36.4556C48.5383 36.0191 48.6007 35.5619 48.6838 35.1047C48.7254 35.1047 48.7669 35.1047 48.8085 35.1255C49.7437 35.3749 50.5957 35.8529 50.8243 36.8297C50.9698 37.4739 50.8243 38.617 50.0139 38.6586C49.0163 38.7209 48.6215 37.1622 48.5799 36.4556ZM64.9352 29.2647C64.9352 29.2647 64.9767 29.2647 64.9975 29.2647C65.1222 29.6388 65.2053 30.0336 65.2053 30.4493C65.2053 31.9457 63.1895 33.92 61.7556 32.4445C59.9683 30.6156 63.6675 29.14 64.9352 29.2647ZM56.8095 63.8267C56.8926 62.2887 55.7496 60.73 53.9208 61.3951C44.8184 64.7203 34.3236 61.0418 29.1074 52.8741C23.2885 43.7712 24.2237 32.2158 30.0218 23.3831C35.6121 14.8621 46.1277 7.77513 56.664 9.43776C61.7763 10.2483 66.473 12.8462 70.567 15.8805C75.139 19.2681 79.4824 23.6948 81.1034 29.2855C81.8931 31.9872 82.1009 34.7929 81.3528 37.5363C80.6254 40.2588 79.1915 42.732 78.3186 45.413C76.8639 49.9021 77.5705 54.6614 80.189 58.4023C79.4824 58.7556 78.7966 59.109 78.09 59.4415C77.9653 59.1713 77.7783 58.9219 77.5081 58.6933C74.7234 56.1786 70.2137 52.2922 72.2919 48.0524C73.0816 46.4314 74.3701 45.122 75.1598 43.4802C75.8456 42.0046 76.2612 40.4667 76.3859 38.8456C76.8431 33.1719 73.5388 27.2279 68.2602 25.1497C64.2286 19.6214 55.5834 20.5982 50.5334 24.2768C48.7462 25.5861 46.8342 27.7683 45.4626 30.2415C41.0569 31.0728 36.9213 34.4812 35.0302 38.4092C31.4557 45.8079 34.8847 54.9316 42.4285 58.2569C46.19 59.9195 50.1593 59.2752 54.0663 60.1273C58.0356 61.0002 59.906 64.4086 61.2776 67.9209C60.5086 68.3158 59.7189 68.7107 58.95 69.0848C58.2434 67.339 57.5369 65.5932 56.8303 63.8475L56.8095 63.8267Z" fill="white"/>
<path d="M86.3612 63.1204C77.8614 67.3185 69.3617 71.4959 60.8619 75.6941C60.6541 75.798 60.4879 75.9019 60.3424 76.0266C60.1138 76.0682 59.906 76.1513 59.6981 76.276C58.6383 76.8787 57.994 78.5205 58.763 79.622C59.2617 80.3287 59.7813 81.0353 60.28 81.7627C61.0282 82.8226 62.379 83.4461 63.6259 82.6979C65.9327 81.3055 68.2395 79.8922 70.5462 78.4998C70.9827 80.4949 73.04 82.0744 75.139 81.9497C76.4275 81.8666 77.612 81.3886 78.7135 80.7028C79.6694 80.1 80.667 79.4558 81.4359 78.6452C82.3918 77.6269 82.9737 76.4423 83.0776 75.0498C83.1608 73.8444 82.7036 72.5143 81.8307 71.6622C84.1583 70.2489 86.4651 68.8357 88.7926 67.4432C91.4943 65.8014 89.2083 61.7695 86.3819 63.162L86.3612 63.1204Z" fill="white"/>
<path d="M21.8546 8.02481C21.8961 7.71307 21.9377 7.42211 21.9793 7.11036C21.9793 6.48687 21.813 5.90495 21.5013 5.36459C20.6077 4.15918 19.6933 2.93299 18.7997 1.72758C18.5918 1.33271 18.2801 1.00018 17.906 0.750783C17.5735 0.439039 17.1787 0.23121 16.7423 0.127295C16.2851 -0.0181851 15.8279 -0.038968 15.3707 0.0649467C14.9135 0.0857296 14.477 0.23121 14.0822 0.480605C13.3548 0.958613 12.6898 1.66523 12.5028 2.53812C12.4612 2.84986 12.4196 3.14082 12.3781 3.45256C12.3781 4.07605 12.5443 4.65798 12.8561 5.19833C13.7497 6.40374 14.6641 7.62993 15.5577 8.83534C15.7655 9.23022 16.0772 9.56275 16.4513 9.81214C16.7838 10.1239 17.1787 10.3317 17.6151 10.4356C18.0723 10.5811 18.5295 10.6019 18.9867 10.498C19.4439 10.4772 19.8803 10.3317 20.2752 10.0823C21.0025 9.60431 21.6675 8.89769 21.8546 8.02481Z" fill="white"/>
<path d="M11.8585 17.7935C11.4221 17.357 10.9233 17.0661 10.3415 16.8998C8.34641 16.1932 6.35136 15.5073 4.3563 14.8007C3.54582 14.5098 2.4236 14.7176 1.69624 15.154C0.989657 15.5697 0.303858 16.401 0.116822 17.2115C-0.0909954 18.0844 -0.0494318 19.082 0.470113 19.8718C0.657149 20.1004 0.823403 20.329 1.01044 20.5784C1.44686 21.0148 1.94562 21.3058 2.52751 21.472L8.53344 23.5711C9.34393 23.8621 10.4661 23.6542 11.1935 23.2178C11.9001 22.8021 12.5859 21.9708 12.7729 21.1603C12.9807 20.2874 12.9392 19.2898 12.4196 18.5001C12.2326 18.2715 12.0663 18.0429 11.8793 17.7935H11.8585Z" fill="white"/>
<path d="M9.88425 32.6531C9.65565 32.4661 9.42706 32.2998 9.17767 32.1128C8.63735 31.801 8.05546 31.6348 7.432 31.6348H4.85506C4.37708 31.6348 3.94067 31.7179 3.52503 31.9257C3.08861 32.0712 2.73532 32.2998 2.4236 32.6323C2.09109 32.9441 1.84171 33.3182 1.71702 33.7338C1.5092 34.1495 1.40529 34.5859 1.42607 35.064C1.46764 35.3757 1.5092 35.6667 1.55076 35.9784C1.71702 36.5603 2.00796 37.0799 2.44438 37.4956C2.67298 37.6826 2.90158 37.8489 3.15096 38.0359C3.69129 38.3477 4.27317 38.5139 4.89663 38.5139H7.47357C7.95155 38.5139 8.38797 38.4308 8.8036 38.223C9.24002 38.0775 9.59331 37.8489 9.90504 37.5163C10.2375 37.2046 10.4869 36.8305 10.6116 36.4148C10.8194 35.9992 10.9233 35.5627 10.9026 35.0847C10.861 34.773 10.8194 34.482 10.7779 34.1703C10.6116 33.5884 10.3207 33.0688 9.88425 32.6531Z" fill="white"/>
</svg>
