<svg width="635" height="423" viewBox="0 0 635 423" fill="none" xmlns="http://www.w3.org/2000/svg">
<path d="M168 379C122.8 373.8 111.167 360.833 111 355L12.5 126.5L49.5 0L635 165.5V311C615.5 330 572.6 370.2 557 379C537.5 390 519.5 416.5 489 416.5C458.5 416.5 424 423 382 416.5C340 410 330 398.5 280 379C230 359.5 224.5 385.5 168 379Z" fill="white"/>
<path d="M26.3965 74.4397C32.6868 75.925 38.453 77.4539 44.2846 78.6114C57.5861 81.2543 71.0622 81.014 84.5165 80.4243C94.3889 79.9875 104.283 79.638 114.09 78.6114C133.572 76.5584 153.164 74.8547 171.882 68.5644C181.034 65.4848 189.749 61.2694 197.24 55.0009C200.036 52.6638 202.504 49.9555 205.321 47.1816C206.239 48.23 207.287 49.3658 208.248 50.5452C220.654 65.9434 233.453 81.0577 245.335 96.8272C260.384 116.79 274.69 137.299 289.324 157.568C294.631 164.929 300.375 171.918 307.168 177.99C308.675 179.344 309.811 181.135 311.493 183.21C311.034 183.45 310.575 183.625 310.16 183.887C293.954 194.983 277.158 205.073 259.073 212.783C247.126 217.872 234.283 219.598 221.484 221.105C214.058 221.979 206.588 222.328 199.14 222.874C188.7 223.638 178.391 222.306 168.126 220.668C154.54 218.462 140.78 217.021 127.588 212.761C119.9 210.293 113.129 206.056 106.576 201.535C104.283 199.962 102.71 196.992 101.465 194.371C99.325 189.893 97.6869 185.154 95.8741 180.524C89.5838 164.514 81.0656 149.793 71.4335 135.552C57.87 115.48 42.7994 96.4777 28.2749 77.0389C27.7288 76.3181 27.2046 75.5755 26.3965 74.4397Z" fill="#D7DFDF"/>
<path d="M335.715 374.431C326.083 370.5 317.302 366.197 308.085 363.336C292.884 358.618 277.486 354.468 261.978 350.843C252.958 348.746 243.566 348.265 234.392 346.846C229.478 346.081 224.629 344.88 219.759 343.897C218.273 343.591 217.574 342.783 217.356 341.211C214.735 322.034 212.333 302.813 212.769 283.396C213.119 268.217 216.701 253.648 221.812 239.43C222.882 236.459 223.821 233.423 225.219 230.627C225.962 229.12 227.578 228.05 228.757 226.762C232.623 222.546 238.149 223.551 242.932 222.459C252.477 220.297 261.825 217.632 270.322 212.849C284.191 205.029 297.82 196.773 311.514 188.583C313.305 187.513 314.769 185.853 317.018 183.909C321.365 185.372 326.629 186.639 331.478 188.867C340.979 193.235 350.283 198.04 359.544 202.911C363.126 204.789 366.336 207.366 369.7 209.66C370.814 210.424 371.316 211.363 370.224 212.543C356.246 227.635 352.707 247.249 347.4 265.989C343.403 280.098 342.311 294.754 341.809 309.366C341.328 323.716 341.568 338.087 341.175 352.459C341.044 357.57 340.236 362.681 339.297 367.726C338.794 370.434 337.68 373.143 335.737 374.41L335.715 374.431Z" fill="#D7DFDF"/>
<path d="M222.598 225.779C215.674 241.767 209.93 257.776 208.838 274.944C208.161 285.34 208.379 295.868 208.991 306.286C209.668 317.447 211.306 328.564 212.507 339.704C212.529 339.944 212.442 340.184 212.398 340.446C205.147 341.363 197.939 342.412 190.71 343.198C179.396 344.421 168.191 344.181 157.117 341.036C145.498 337.76 136.281 330.858 128.418 322.099C123.613 316.748 122.433 309.759 121.385 302.944C118.851 286.476 118.829 269.855 119.07 253.233C119.244 242.094 119.288 230.955 116.318 220.078C115.531 217.217 114.33 214.465 113.282 211.582C113.435 211.582 113.697 211.429 113.85 211.516C123.241 217.261 133.725 219.794 144.406 221.52C156.2 223.42 167.994 225.669 179.876 226.718C189.661 227.592 199.599 227.067 209.471 226.914C213.84 226.849 218.208 226.172 222.598 225.757V225.779Z" fill="#F5DFDE"/>
<path d="M535.018 335.204C529.536 325.594 520.821 319.609 510.927 315.328C503.479 312.118 495.703 309.65 488.037 306.963C486.573 306.461 484.914 306.221 483.385 306.352C482.511 306.439 481.725 307.509 480.895 308.143C481.615 308.885 482.249 310.108 483.101 310.283C495.441 312.795 506.864 317.622 517.566 324.131C523.988 328.04 529.448 332.954 532.069 340.315C532.593 341.778 533.03 343.351 533.118 344.902C533.292 347.763 531.938 350.122 529.273 350.974C525.91 352.066 522.393 352.743 518.899 353.245C515.579 353.726 512.193 353.769 508.83 353.966C508.48 353.966 508.044 353.747 507.782 353.485C498.324 343.831 485.962 339.157 473.993 333.85C471.197 332.605 468.292 331.578 465.431 330.465C463.989 329.897 462.373 329.307 461.609 331.251C460.866 333.173 462.417 333.763 463.858 334.418C472.792 338.437 481.856 342.172 490.527 346.693C495.397 349.226 499.788 352.852 504.003 356.412C507.716 359.557 507.104 362.593 502.692 364.668C498.608 366.59 494.415 367.813 489.741 366.765C478.033 364.122 466.283 361.676 454.532 359.142C453.003 358.815 451.409 358.64 449.924 358.181C448.154 357.635 446.866 358.028 446.385 359.798C445.883 361.654 447.062 362.528 448.722 362.899C456.978 364.712 465.256 366.525 473.512 368.359C478.034 369.364 482.555 370.412 487.01 371.439C487.272 376.878 482.664 383.889 477.597 384.828C468.249 386.575 458.944 388.847 449.225 387.514C445.686 387.034 441.951 387.82 438.326 388.039C437.343 388.104 436.382 388.257 435.05 388.432C436.164 385.767 437.125 383.408 438.151 381.071C443.786 368.097 446.342 354.315 449.312 340.599C454.248 317.797 460.058 295.212 469.996 273.939C472.093 269.461 473.381 264.613 475.063 259.873C478.754 261.38 482.773 263.084 486.836 264.7C497.975 269.09 509.616 271.121 521.52 272.235C535.411 273.524 549.302 274.813 563.106 276.691C567.671 277.302 572.214 279.334 576.364 281.496C583.549 285.253 584.904 290.932 580.972 297.986C577.98 303.359 573.524 307.313 568.435 310.545C567.605 311.069 566.011 310.938 565.006 310.523C557.165 307.138 549.368 303.687 541.636 300.061C534.122 296.545 526.696 292.854 519.27 289.162C518.134 288.595 517.304 287.371 516.169 286.782C515.295 286.323 514.159 286.345 513.155 286.148C513.045 287.262 512.456 288.747 512.958 289.424C513.963 290.779 515.47 291.827 516.933 292.723C528.094 299.537 540.151 304.539 552.163 309.562C555.592 311.004 559.021 312.555 562.232 314.411C565.858 316.508 566.841 320.177 566.579 324.109C566.404 326.664 565.093 328.826 562.713 329.831C554.915 333.107 546.9 335.313 538.316 334.658C537.333 334.593 536.306 335.008 535.018 335.248V335.204Z" fill="#F5DFDE"/>
<path d="M441.602 242.531C439.134 252.032 435.421 261.249 430.441 269.876C425.789 277.914 420.918 285.864 415.764 293.596C405.826 308.427 395.604 323.082 385.535 337.825C379.288 346.955 375.204 356.958 374.046 368.01C373.697 371.243 374.003 374.562 374.003 377.948C374.178 377.948 373.828 378.013 373.566 377.904C365.288 374.934 356.988 372.073 348.776 368.927C345.456 367.661 345.063 365.957 345.216 362.44C345.543 355.145 345.565 347.829 345.762 340.533C346.133 327.014 346.242 313.472 346.985 299.952C347.837 284.576 350.414 269.418 355.263 254.74C357.949 246.637 360.832 238.578 363.694 230.54C366.009 224.031 370.901 219.226 375.073 214.006C375.706 213.22 377.934 213.176 379.201 213.547C382.193 214.465 385.142 215.688 387.959 217.042C399.251 222.481 410.456 228.094 421.77 233.489C428.279 236.612 434.897 239.451 441.646 242.509L441.602 242.531Z" fill="#D7DFDF"/>
<path d="M445.512 243.383C453.134 245.436 460.582 247.402 468.008 249.498C471.197 250.394 471.241 250.853 470.804 254.456C469.908 261.97 467.331 268.915 464.252 275.774C454.554 297.309 448.766 320.068 444.157 343.133C441.296 357.351 437.78 371.264 431.708 384.5C427.776 393.062 427.886 392.975 418.909 391.118C406.197 388.519 393.791 384.85 381.625 380.394C380.839 380.11 380.009 379.149 379.769 378.341C376.318 366.612 380.359 356.041 385.994 346.278C391.913 336.034 399.208 326.555 405.738 316.661C415.676 301.634 426.619 287.262 434.918 271.209C439.462 262.429 443.415 253.386 445.533 243.427L445.512 243.383Z" fill="#D7DFDF"/>
<path d="M33.5386 71.8186C55.5548 68.9573 76.326 62.0554 97.2719 55.5685C118.371 49.038 139.12 41.5464 159.869 34.0111C167.339 31.3027 174.984 28.9875 182.541 26.5195C183.021 26.3666 183.764 26.3229 184.135 26.585C190.753 31.4338 197.502 36.1734 201.98 43.5558C197.917 48.0988 193.636 52.62 188.132 55.918C175.661 63.3441 162.119 67.625 147.835 69.5907C133.682 71.5346 119.55 73.7188 105.331 74.7672C86.0454 76.1868 66.6939 77.541 47.4079 74.6143C42.7557 73.9153 38.169 72.7796 33.5386 71.8404V71.8186Z" fill="#D7DFDF"/>
<path d="M131.478 118.403C129.514 116.629 127.281 115.335 124.779 114.522C122.324 113.703 119.892 113.445 117.485 113.749C114.475 114.129 111.811 115.195 109.492 116.946C107.173 118.697 105.457 120.936 104.343 123.664C103.224 126.345 102.854 129.19 103.234 132.2C103.614 135.209 104.682 137.897 106.439 140.262C108.19 142.581 110.409 144.323 113.096 145.489C115.777 146.609 118.623 146.979 121.632 146.599C123.947 146.306 126.198 145.505 128.384 144.194C130.617 142.877 132.522 141.202 134.1 139.168L140.358 144.587C138.139 147.501 135.436 149.936 132.249 151.89C129.056 153.799 125.723 154.972 122.251 155.41C117.575 156.001 113.152 155.43 108.982 153.699C104.812 151.968 101.377 149.344 98.6749 145.828C95.9673 142.266 94.3213 138.17 93.7367 133.54C93.1522 128.91 93.7546 124.554 95.5439 120.471C97.3332 116.388 100.035 113.013 103.649 110.346C107.31 107.673 111.525 106.035 116.294 105.433C119.766 104.995 123.257 105.259 126.766 106.228C130.275 107.196 133.365 108.758 136.036 110.913L131.478 118.403ZM143.547 102.627L152.853 101.452L155.475 122.217L179.713 119.157L177.091 98.3921L186.397 97.2171L192.535 145.831L183.229 147.006L180.738 127.283L156.501 130.343L158.991 150.066L149.685 151.241L143.547 102.627ZM235.665 140.386L225.447 127.071C225.082 127.164 224.506 127.26 223.719 127.359L212.746 128.745L214.553 143.051L205.247 144.226L199.109 95.6122L219.388 93.0518C225.684 92.2569 230.73 93.1015 234.524 95.5858C238.319 98.07 240.552 101.974 241.224 107.299C241.704 111.095 241.279 114.441 239.952 117.337C238.67 120.227 236.54 122.542 233.561 124.282L246.291 139.044L235.665 140.386ZM211.712 120.55L222.685 119.165C226.203 118.72 228.792 117.617 230.451 115.856C232.11 114.094 232.75 111.708 232.37 108.699C231.996 105.736 230.789 103.63 228.75 102.383C226.711 101.135 223.932 100.733 220.414 101.177L209.441 102.563L211.712 120.55ZM271.997 85.7747C276.812 85.1668 281.324 85.7024 285.534 87.3816C289.791 89.0549 293.293 91.6466 296.041 95.1567C298.789 98.6668 300.455 102.737 301.04 107.367C301.624 111.997 301.025 116.376 299.242 120.506C297.452 124.588 294.707 127.992 291.006 130.718C287.351 133.437 283.116 135.1 278.301 135.708C273.486 136.316 268.947 135.76 264.685 134.041C260.469 132.315 256.987 129.697 254.239 126.187C251.485 122.631 249.816 118.538 249.231 113.908C248.647 109.278 249.249 104.922 251.038 100.839C252.828 96.7556 255.553 93.3777 259.213 90.7048C262.92 88.026 267.181 86.3826 271.997 85.7747ZM273.188 94.091C270.224 94.4651 267.563 95.5537 265.204 97.3568C262.839 99.1136 261.076 101.359 259.916 104.092C258.75 106.779 258.36 109.651 258.746 112.707C259.131 115.762 260.226 118.47 262.029 120.829C263.878 123.183 266.147 124.943 268.834 126.109C271.567 127.269 274.416 127.662 277.379 127.287C280.296 126.919 282.911 125.836 285.224 124.039C287.537 122.242 289.25 119.98 290.364 117.252C291.524 114.518 291.911 111.624 291.525 108.568C291.14 105.512 290.048 102.828 288.251 100.515C286.494 98.1495 284.275 96.4071 281.594 95.2875C278.906 94.1216 276.104 93.7227 273.188 94.091ZM340.732 77.7315L349.76 76.5916L355.898 125.206L347.078 126.319L317.85 96.0016L322.077 129.476L312.979 130.624L306.841 82.0104L315.661 80.8968L344.967 111.275L340.732 77.7315ZM362.403 74.9954L371.709 73.8205L377.847 122.435L368.54 123.609L362.403 74.9954ZM421.307 81.8107C419.342 80.0361 417.109 78.7423 414.608 77.9293C412.153 77.1104 409.721 76.8529 407.314 77.1568C404.304 77.5368 401.64 78.6023 399.321 80.3532C397.002 82.1041 395.286 84.3434 394.172 87.0711C393.052 89.7524 392.683 92.5978 393.062 95.6073C393.442 98.6167 394.511 101.304 396.268 103.669C398.019 105.988 400.238 107.731 402.925 108.897C405.606 110.016 408.452 110.386 411.461 110.006C413.776 109.714 416.027 108.912 418.213 107.601C420.446 106.285 422.351 104.609 423.928 102.576L430.187 107.995C427.967 110.909 425.264 113.343 422.077 115.298C418.885 117.206 415.552 118.38 412.08 118.818C407.403 119.408 402.98 118.838 398.811 117.107C394.641 115.375 391.205 112.752 388.504 109.236C385.796 105.673 384.15 101.577 383.566 96.9474C382.981 92.3175 383.583 87.9611 385.373 83.8781C387.162 79.7952 389.864 76.4202 393.478 73.7531C397.139 71.0801 401.354 69.4426 406.123 68.8405C409.595 68.4021 413.086 68.667 416.595 69.6351C420.103 70.6032 423.193 72.1651 425.864 74.3208L421.307 81.8107ZM53.9679 192.859L79.3623 189.652C85.2555 188.908 90.4669 189.23 94.9964 190.618C99.5794 191.998 103.249 194.338 106.006 197.637C108.763 200.936 110.449 205.022 111.065 209.898C111.883 216.38 111.104 222.275 108.726 227.583C106.341 232.837 102.639 237.142 97.62 240.497C92.6475 243.792 86.7593 245.869 79.9553 246.728L49.8195 250.532L53.9679 192.859ZM78.7313 231.86C83.6066 231.244 87.1908 229.241 89.484 225.849C91.824 222.396 92.6896 218.259 92.0808 213.438C91.6682 210.17 90.3324 207.78 88.0734 206.269C85.8679 204.751 82.8632 204.233 79.0594 204.713L71.8268 205.626L69.8915 232.976L78.7313 231.86ZM145.32 195.857L143.346 224.192L151.784 223.126L150.697 237.796L114.856 242.321L115.943 227.652L124.381 226.586L126.355 198.252L117.917 199.317L119.004 184.647L154.845 180.122L153.758 194.792L145.32 195.857ZM188.646 174.548C193.629 173.919 198.076 174.229 201.989 175.476C205.903 176.724 209.053 178.83 211.441 181.794C213.829 184.758 215.304 188.464 215.866 192.911C216.129 195 216.172 197.281 215.995 199.752L213.832 229.825L194.866 232.22L195.686 220.604L177.845 222.857L177.026 234.472L158.382 236.826L160.723 204.281C161.321 195.66 164.022 188.815 168.825 183.746C173.681 178.669 180.288 175.604 188.646 174.548ZM196.773 205.935L197.108 200.831C197.233 199.236 197.225 197.877 197.083 196.752C196.765 194.234 195.885 192.44 194.444 191.37C192.996 190.246 191.066 189.837 188.655 190.141C185.869 190.493 183.674 191.641 182.069 193.585C180.517 195.523 179.603 198.414 179.327 202.259L178.932 208.187L196.773 205.935ZM270.852 193.234C273.398 194.002 275.432 195.242 276.955 196.954C278.524 198.607 279.471 200.719 279.796 203.29C280.546 209.237 278.647 214.022 274.097 217.644C269.6 221.26 263.495 223.555 255.78 224.529L223.314 228.628L227.462 170.954L257.276 167.19C263.866 166.358 269.024 166.904 272.75 168.828C276.47 170.699 278.6 173.778 279.142 178.064C279.541 181.224 279.008 184.122 277.545 186.756C276.074 189.337 273.843 191.496 270.852 193.234ZM245.128 182.195L244.496 190.765L254.139 189.548C258.318 189.02 260.201 187.122 259.789 183.854C259.646 182.729 259.11 181.926 258.178 181.445C257.246 180.964 255.977 180.825 254.37 181.028L245.128 182.195ZM255.15 211.137C257.079 210.894 258.579 210.269 259.649 209.263C260.713 208.203 261.14 206.843 260.93 205.182C260.781 204.004 260.211 203.15 259.219 202.623C258.281 202.088 257.142 201.905 255.802 202.074L243.587 203.616L242.935 212.679L255.15 211.137ZM317.559 172.968C314.184 173.394 311.724 174.168 310.178 175.288C308.625 176.355 307.944 177.638 308.133 179.139C308.37 181.014 310.363 181.714 314.113 181.241L329.543 179.293L328.496 193.631L309.932 195.975C308.057 196.212 306.577 196.779 305.494 197.678C304.456 198.517 304.019 199.579 304.181 200.865C304.35 202.204 305.309 203.117 307.058 203.604C308.807 204.091 311.53 204.101 315.226 203.634C318.334 203.242 321.367 202.478 324.326 201.342C327.338 200.2 329.969 198.833 332.218 197.243L337.94 210.237C335.083 212.176 331.491 213.909 327.166 215.434C322.888 216.9 318.499 217.917 313.999 218.485C305.534 219.553 298.742 218.996 293.622 216.812C288.555 214.621 285.711 211.062 285.089 206.133C284.636 202.543 285.265 199.334 286.976 196.506C288.741 193.67 291.336 191.383 294.764 189.644C293.142 188.869 291.865 187.806 290.932 186.454C289.992 185.048 289.418 183.515 289.208 181.854C288.708 177.89 289.504 174.279 291.596 171.021C293.735 167.703 296.98 164.953 301.331 162.771C305.736 160.582 310.965 159.105 317.019 158.341C321.305 157.8 325.287 157.651 328.964 157.894C332.695 158.13 335.844 158.713 338.41 159.64L334.098 173.983C329.233 172.528 323.72 172.19 317.559 172.968ZM390.841 170.411C386.265 168.648 381.856 167.572 377.616 167.182L374.554 209.533L355.588 211.928L358.68 169.164C353.906 170.584 349.532 172.796 345.557 175.801L339.171 162.728C342.584 160.012 346.864 157.702 352.013 155.8C357.161 153.898 362.387 152.613 367.691 151.943C373.155 151.253 378.437 151.267 383.535 151.984C388.68 152.64 393.249 153.914 397.243 155.805L390.841 170.411ZM426.603 160.344L424.629 188.678L433.067 187.613L431.98 202.283L396.138 206.808L397.225 192.138L405.663 191.073L407.638 162.738L399.2 163.804L400.287 149.134L436.128 144.609L435.041 159.278L426.603 160.344ZM471.901 198.549C466.168 199.272 460.974 198.867 456.317 197.332C451.706 195.737 447.956 193.19 445.065 189.69C442.227 186.184 440.497 181.967 439.875 177.038C439.05 170.502 439.816 164.499 442.174 159.031C444.585 153.556 448.29 149.06 453.289 145.545C458.335 141.968 464.286 139.747 471.144 138.882C476.555 138.198 481.475 138.584 485.904 140.039C490.326 141.44 493.782 143.807 496.271 147.139L483.959 159.552C480.886 155.477 476.859 153.754 471.876 154.383C468.93 154.755 466.396 155.81 464.275 157.547C462.154 159.284 460.616 161.547 459.662 164.334C458.7 167.068 458.43 170.096 458.849 173.418C459.268 176.739 460.651 179.286 462.998 181.058C465.391 182.77 468.329 183.406 471.811 182.966C476.579 182.364 480.484 179.667 483.526 174.874L496.046 184.152C493.285 188.583 489.923 191.919 485.961 194.161C482.052 196.396 477.365 197.859 471.901 198.549ZM195.304 258.371L206.624 256.941L196.302 307.634L184.982 309.063L170.345 275.28L164.425 311.658L153.175 313.079L130.647 266.534L142.453 265.043L157.692 300.796L163.496 262.387L174.261 261.027L189.569 296.772L195.304 258.371ZM234.379 252.661C239.24 252.047 243.799 252.577 248.055 254.251C252.312 255.924 255.817 258.539 258.571 262.095C261.365 265.599 263.057 269.69 263.648 274.366C264.238 279.042 263.619 283.448 261.789 287.583C260.005 291.712 257.263 295.139 253.562 297.864C249.855 300.543 245.571 302.189 240.709 302.803C235.848 303.417 231.289 302.887 227.032 301.214C222.77 299.494 219.242 296.882 216.448 293.378C213.694 289.822 212.019 285.682 211.422 280.96C210.832 276.283 211.432 271.904 213.221 267.821C215.051 263.686 217.796 260.282 221.457 257.609C225.164 254.93 229.471 253.281 234.379 252.661ZM235.727 262.228C233.042 262.567 230.63 263.577 228.49 265.258C226.345 266.893 224.75 268.976 223.705 271.507C222.661 274.037 222.317 276.715 222.673 279.539C223.036 282.41 224.037 284.941 225.678 287.133C227.365 289.318 229.431 290.963 231.875 292.065C234.365 293.162 236.953 293.541 239.638 293.202C242.323 292.863 244.693 291.881 246.745 290.258C248.839 288.583 250.384 286.483 251.383 283.958C252.421 281.381 252.76 278.657 252.397 275.786C252.041 272.962 251.042 270.454 249.401 268.262C247.807 266.065 245.79 264.438 243.352 263.382C240.954 262.273 238.413 261.889 235.727 262.228ZM282.225 276.395C282.663 279.867 283.983 282.499 286.185 284.291C288.427 286.03 291.192 286.693 294.479 286.278C297.674 285.874 300.095 284.557 301.742 282.327C303.388 280.096 303.99 277.222 303.546 273.703L299.942 245.16L310.915 243.774L314.518 272.318C315.056 276.577 314.644 280.392 313.282 283.763C311.961 287.081 309.788 289.801 306.763 291.923C303.733 293.999 300.018 295.315 295.62 295.87C291.221 296.426 287.273 296.077 283.776 294.826C280.272 293.528 277.445 291.439 275.294 288.559C273.137 285.633 271.79 282.04 271.252 277.78L267.648 249.237L278.621 247.851L282.225 276.395ZM355.079 238.198L365.496 236.883L371.634 285.497L361.634 286.76L334.145 258.48L338.091 289.732L327.604 291.056L321.466 242.442L331.467 241.179L359.042 269.589L355.079 238.198ZM397.518 232.84C402.472 232.215 407.025 232.698 411.177 234.29C415.324 235.837 418.696 238.327 421.293 241.762C423.931 245.145 425.548 249.198 426.144 253.92C426.74 258.643 426.161 262.996 424.407 266.981C422.692 270.913 419.999 274.17 416.327 276.75C412.648 279.284 408.286 280.87 403.239 281.507L383.03 284.058L376.892 235.444L397.518 232.84ZM402.768 272.182C405.453 271.843 407.782 270.914 409.754 269.395C411.766 267.824 413.231 265.828 414.148 263.408C415.065 260.987 415.34 258.318 414.972 255.401C414.603 252.485 413.625 249.951 412.036 247.799C410.494 245.642 408.533 244.079 406.153 243.109C403.813 242.088 401.254 241.752 398.476 242.103L389.031 243.295L392.836 273.436L402.768 272.182Z" fill="#047A6B"/>
<path d="M454.253 106.07C454.058 108.973 455.351 112.148 458.111 113.557C463.221 116.166 467.837 114.307 472.017 110.938C477.681 106.374 483.315 99.5523 486.708 93.0274C489.027 88.5693 487.582 96.857 487.472 98.4899C487.09 104.166 486.52 109.357 491.739 113.112C499.485 118.686 507.236 116.716 514.311 111.318C521.919 105.514 528.206 97.042 533.026 88.8318C533.664 87.7439 535.715 81.34 537.157 81.437C537.495 81.4597 535.673 93.4791 535.569 94.2523C533.894 106.66 529.838 124.179 536.251 135.77C540.395 143.261 548.578 145.846 556.496 146.378C558.22 146.494 564.029 145.848 562.651 147.923C560.356 151.379 558.685 152.863 558.384 157.328C558.128 161.148 558.901 163.147 562.223 165.097C566.472 167.59 561.766 169.432 558.853 171.977C555.315 175.07 548.624 181.7 549.995 187.212C550.922 190.935 556.504 191.445 559.711 191.661" stroke="#55D4B1" stroke-width="9" stroke-linecap="round"/>
<path d="M5.78185 235.833C12.2174 244.028 12.0945 262.189 7.32927 271.352C7.17133 271.656 19.0999 270.932 20.94 273.762C27.3943 283.692 28.6285 296.368 27.842 308.068C27.5032 313.108 26.3131 317.35 25.4785 322.154C24.6725 326.794 26.1389 318.575 28.7519 315.606C35.8399 307.552 43.7246 297.012 54.5985 294.048C64.7736 291.274 71.2467 296.214 80.1694 298.836C81.7565 299.302 84.7709 302.237 85.1211 298.933C85.6215 294.21 84.5442 287.844 87.0151 283.634C93.0396 273.37 103.064 272.121 113.791 272.842" stroke="#55D4B1" stroke-width="9" stroke-linecap="round"/>
</svg>
