<svg width="1331" height="101" viewBox="0 0 1331 101" fill="none" xmlns="http://www.w3.org/2000/svg">
<g clip-path="url(#clip0_105_5)">
<rect width="1331" height="101" rx="16" fill="#55D4B1"/>
<g clip-path="url(#clip1_105_5)">
<path d="M76.4656 17.002C74.3958 15.7461 72.506 19.0015 74.5758 20.2574C80.5953 23.9146 88.5547 23.352 94.1042 19.1522C96.1841 21.9152 99.8338 23.3419 103.293 22.307C105.603 21.6238 104.623 17.9766 102.294 18.6699C99.9438 19.3732 97.224 18.0972 96.434 15.7059C95.9941 14.3897 94.3342 13.817 93.3043 14.872C88.9546 19.323 81.7852 20.2172 76.4756 16.992L76.4656 17.002Z" fill="white"/>
<path d="M87.3748 3.0459C84.965 3.0459 84.955 6.81365 87.3748 6.81365C89.7946 6.81365 89.7946 3.0459 87.3748 3.0459Z" fill="white"/>
<path d="M93.7243 3.0459C91.3145 3.0459 91.3045 6.81365 93.7243 6.81365C96.1441 6.81365 96.1441 3.0459 93.7243 3.0459Z" fill="white"/>
<path d="M145.95 10.5111C143.13 5.31665 136.711 4.87457 131.501 4.93486C131.341 4.93486 131.181 4.95495 131.041 4.98509C130.971 4.92481 130.901 4.86453 130.821 4.81429C128.932 3.60861 126.822 3.91003 125.232 5.04538C125.112 0.323133 124.992 -4.39911 124.882 -9.12136C124.852 -10.1361 124.042 -11.0103 123.002 -11.0103C108.083 -10.8696 92.7544 -8.45823 79.6855 -1.20406C79.6255 -1.27439 79.5655 -1.34472 79.4955 -1.40501C74.2459 -5.55455 67.1765 -3.08291 62.3069 0.503985C59.7871 2.35269 57.7072 4.97505 57.6472 8.24043C57.5972 10.8829 59.2371 13.5253 61.7369 14.3994C59.5871 17.3433 57.7472 20.5183 56.3473 23.9042C52.6276 32.8564 52.1577 42.8133 53.1776 52.3683C53.5876 56.1662 54.1475 60.0244 55.0375 63.7921C46.9681 64.8471 39.5787 68.6249 33.9891 74.4624C33.8491 74.3217 33.6892 74.2011 33.5092 74.1308C32.9392 72.2821 32.1993 70.4937 31.2594 68.8158C29.7995 66.2236 26.7897 63.6615 23.75 65.5906C20.8102 67.4493 22.0701 71.2372 23.9999 73.317C25.7398 75.1958 28.0396 76.5522 30.4894 77.2656C30.6394 77.9588 30.7794 78.6622 30.8894 79.3655C31.1594 81.1639 33.4792 80.9429 34.3191 79.8176C39.3787 72.9854 47.3981 68.3837 55.8274 67.4694C55.8974 67.4694 55.9574 67.4493 56.0274 67.4292C57.5272 72.3022 59.7171 76.9039 63.0268 80.8625C63.4568 81.3749 64.2367 81.4955 64.8467 81.3448C69.7063 80.1793 74.4059 78.421 78.8455 76.1403C73.426 83.6255 69.4063 92.1055 67.0865 101.088C65.5566 99.4099 63.7768 98.0033 61.5569 97.3401C58.6672 96.466 55.2174 97.4507 53.2976 99.8118C51.1278 102.494 51.7577 106.182 54.4075 108.282C57.7972 110.964 62.0469 110.04 65.8366 108.834C66.8165 108.523 67.1965 107.669 67.1265 106.865C68.1364 107.398 69.5563 107.146 69.8263 105.81C72.3461 93.3413 78.1856 81.7065 86.7549 72.3223C87.1549 71.8903 87.2849 71.408 87.2549 70.9458C91.5245 67.8211 95.4142 64.1739 98.7739 60.0545C99.4239 59.2608 99.5339 58.1656 98.7739 57.392C98.114 56.7188 96.7641 56.6083 96.1242 57.392C88.1348 67.1881 77.2157 74.2212 65.0266 77.4163C60.087 71.0362 58.2872 62.717 57.2073 54.8701C55.9674 45.7973 55.9474 36.3227 58.9371 27.5815C64.1267 12.39 78.0956 1.96085 92.8444 -2.84178C101.994 -5.81579 111.583 -6.95113 121.162 -7.16213C121.372 1.21734 121.582 9.58677 121.792 17.9662C121.852 20.3876 125.602 20.3977 125.542 17.9662C125.522 17.3132 125.512 16.6601 125.492 16.007C126.452 16.861 127.602 17.484 128.872 17.7653C132.421 18.549 136.371 16.419 137.261 12.7517C137.581 11.4254 137.441 10.1293 136.961 8.96384C139.131 9.30545 141.151 10.1092 142.41 11.9579C144.53 15.0827 142.26 19.182 140.221 21.7139C135.871 27.0993 129.491 30.5354 122.712 31.6005C118.872 32.2033 114.923 31.932 111.193 30.8469C108.873 30.1737 107.883 33.8109 110.193 34.484C118.242 36.8251 127.072 35.5893 134.361 31.4899C138.011 29.4403 141.211 26.6371 143.73 23.2813C146.4 19.7145 148.23 14.7611 145.94 10.5312L145.95 10.5111ZM26.0398 68.7053C27.2397 68.444 28.4496 71.3075 28.9495 72.5132C28.5796 72.2922 28.2196 72.0611 27.8796 71.7998C27.4797 71.4884 24.7999 68.9765 26.0298 68.7053H26.0398ZM64.8567 105.177C62.5169 105.921 59.6171 106.996 57.2773 105.679C55.7474 104.815 55.1074 103.067 56.5573 101.811C59.8171 98.9578 63.3868 102.314 65.5766 105.097C65.3566 105.077 65.1166 105.097 64.8567 105.187V105.177ZM64.1467 11.3551C63.9467 11.1742 63.7068 11.0436 63.4368 10.9934C61.9169 10.6819 61.187 9.18488 61.4569 7.70792C61.8369 5.60803 63.5668 4.12102 65.2766 3.04596C68.2064 1.19725 72.876 -1.15382 76.2757 0.875736C74.5059 2.01108 72.776 3.23686 71.1162 4.5832C68.5964 6.62281 66.2566 8.8935 64.1467 11.3651V11.3551ZM133.641 11.8776C133.191 13.4349 131.451 14.3793 129.901 14.088C128.172 13.7665 126.732 12.1991 126.512 10.4609C126.342 9.11455 127.372 7.06489 128.952 8.06962C129.471 8.40118 129.981 8.43133 130.411 8.28062C130.691 8.51171 131.061 8.66242 131.521 8.69256C132.981 8.79303 134.041 10.491 133.641 11.8675V11.8776Z" fill="white"/>
<path d="M117.672 39.4978C116.672 39.2667 115.653 39.7992 115.363 40.814C115.263 41.1657 115.153 41.5173 115.033 41.8589C114.973 42.0297 114.913 42.2005 114.843 42.3713C114.833 42.4115 114.753 42.5924 114.723 42.6627C114.433 43.3057 114.113 43.9287 113.753 44.5315C113.563 44.843 113.373 45.1545 113.163 45.4458C113.063 45.5965 112.953 45.7472 112.843 45.8879C112.803 45.9482 112.783 45.9783 112.773 45.9984C112.763 46.0185 112.743 46.0386 112.703 46.0889C112.223 46.6816 111.723 47.2443 111.183 47.7768C110.923 48.028 110.653 48.2792 110.383 48.5203C110.243 48.6409 110.103 48.7614 109.963 48.872C109.903 48.9222 109.843 48.9724 109.783 49.0126C109.783 49.0126 109.783 49.0126 109.773 49.0227C109.193 49.4547 108.583 49.8666 107.953 50.2284C107.643 50.4092 107.323 50.58 106.993 50.7408C106.833 50.8211 106.663 50.9015 106.503 50.9719C106.433 51.002 106.363 51.0422 106.283 51.0723C105.583 51.3537 104.863 51.5948 104.133 51.7857C103.154 52.0369 102.564 53.132 102.824 54.1066C103.094 55.1013 104.143 55.674 105.133 55.4228C111.713 53.7148 117.122 48.3796 118.982 41.8187C119.252 40.8743 118.652 39.7289 117.672 39.4978Z" fill="white"/>
</g>
<g clip-path="url(#clip2_105_5)">
<path d="M415.886 85.4912C418.356 85.9742 417.218 89.8794 414.748 89.3964C407.561 87.9955 402.218 81.8948 401.427 74.6448C397.788 75.3407 394.04 73.8691 392.327 70.5953C391.177 68.4157 394.699 66.2421 395.856 68.4438C397.019 70.6677 399.976 71.5969 402.393 70.2766C403.727 69.5535 405.373 70.2828 405.307 71.8451C405.033 78.4398 409.547 84.2399 415.886 85.4762L415.886 85.4912Z" fill="white"/>
<path d="M418.726 66.7536C420.475 68.4666 417.578 71.4388 415.822 69.7186C414.065 67.9985 416.97 65.0335 418.726 66.7536Z" fill="white"/>
<path d="M414.118 62.2404C415.867 63.9534 412.97 66.9256 411.214 65.2055C409.457 63.4853 412.362 60.5203 414.118 62.2404Z" fill="white"/>
<path d="M370.461 30.9897C376.511 28.9063 381.511 33.1217 385.245 36.8724C385.361 36.9861 385.462 37.1157 385.54 37.2389C385.638 37.2412 385.735 37.2435 385.832 37.2609C388.133 37.6555 389.432 39.3925 389.71 41.4161C393.437 37.7852 397.164 34.1543 400.884 30.5162C401.688 29.739 402.95 29.6268 403.704 30.366C414.423 41.0818 423.689 53.876 427.582 68.8749C427.68 68.8622 427.778 68.8495 427.875 68.8518C434.884 69.3179 438.109 76.2884 438.878 82.5727C439.282 85.8188 438.77 89.3609 436.297 91.9733C434.296 94.0883 431.069 95.0021 428.581 93.913C427.872 97.7579 426.76 101.564 425.166 105.224C420.965 114.913 413.632 123.083 405.526 129.877C402.301 132.575 398.921 135.213 395.371 137.545C400.414 144.112 402.865 152.337 402.422 160.905C402.632 160.894 402.841 160.912 403.026 160.985C404.864 159.935 406.78 159.054 408.756 158.402C411.813 157.399 415.972 157.523 416.691 161.202C417.392 164.754 413.558 166.839 410.554 167.104C407.843 167.346 405.129 166.779 402.801 165.599C402.158 166.037 401.514 166.491 400.892 166.967C399.31 168.19 397.797 166.367 398.055 164.885C399.649 155.911 397.376 146.589 391.963 139.878C391.912 139.828 391.884 139.77 391.849 139.704C387.004 142.473 381.868 144.537 376.415 145.3C375.708 145.397 375.049 144.938 374.722 144.386C372.094 140.014 370.038 135.29 368.574 130.339C366.738 140.082 363.119 149.613 357.878 158.33C360.282 158.098 362.658 158.256 364.78 159.312C367.551 160.678 369.296 163.905 368.869 167.128C368.376 170.782 365.077 173.236 361.535 173.005C357.007 172.706 354.635 168.958 352.814 165.315C352.343 164.373 352.726 163.431 353.396 162.848C352.253 162.55 351.416 161.343 352.25 160.099C360.032 148.495 364.763 135.188 365.777 121.712C365.82 121.087 366.097 120.616 366.475 120.273C365.785 114.779 365.773 109.144 366.51 103.514C366.65 102.427 367.415 101.487 368.563 101.418C369.56 101.358 370.625 102.23 370.486 103.302C368.733 116.69 371.236 129.987 377.62 141.166C386.122 139.657 393.841 134.389 400.673 128.982C408.567 122.723 415.884 115.281 420.452 106.277C428.396 90.6328 426.297 72.4957 419.295 58.232C414.947 49.3877 408.863 41.6777 402.073 34.7022C395.462 41.1473 388.858 47.5844 382.247 54.0294C380.337 55.8923 377.608 53.2347 379.526 51.3639C380.044 50.8642 380.554 50.3574 381.072 49.8576C379.717 49.8474 378.403 49.5202 377.264 48.8388C374.084 46.9322 372.859 42.4483 375.04 38.9297C375.83 37.6586 376.931 36.7381 378.178 36.1621C376.339 34.8885 374.254 34.0852 371.915 34.6445C367.968 35.5966 366.455 40.4361 365.984 43.8787C364.99 51.2087 366.971 58.4477 371.07 64.1051C373.392 67.3089 376.468 69.9031 380.011 71.7005C382.213 72.8197 380.128 76.3857 377.933 75.2735C370.287 71.3939 364.831 64.145 362.701 55.7373C361.632 51.5299 361.471 47.0493 362.229 42.6172C363.04 37.9125 365.53 32.7137 370.453 31.0126L370.461 30.9897ZM412.629 162.025C411.959 160.966 408.874 162.36 407.582 162.953C408.021 163.042 408.46 163.116 408.908 163.152C409.439 163.192 413.32 163.12 412.636 162.032L412.629 162.025ZM356.345 163.134C357.47 165.382 358.746 168.289 361.458 168.917C363.235 169.324 365.047 168.403 364.962 166.384C364.796 161.822 359.619 161.925 355.884 162.559C356.059 162.699 356.218 162.886 356.337 163.142L356.345 163.134ZM429.179 89.8042C429.463 89.804 429.738 89.8719 429.973 90.0242C431.316 90.8595 433 90.2003 433.942 88.8461C435.285 86.9234 435.176 84.5236 434.764 82.4621C434.062 78.9246 432.486 73.7549 428.454 72.9354C428.863 75.087 429.174 77.2813 429.341 79.5207C429.597 82.917 429.545 86.3673 429.171 89.8121L429.179 89.8042ZM378.341 40.8149C377.467 42.3604 378.002 44.3404 379.351 45.2128C380.854 46.1895 383.108 45.9796 384.607 44.7681C385.768 43.8294 386.601 41.4843 384.68 41.1519C384.047 41.0432 383.653 40.7044 383.457 40.2802C383.076 40.263 382.691 40.1186 382.334 39.8154C381.197 38.8567 379.119 39.4395 378.349 40.807L378.341 40.8149Z" fill="white"/>
<path d="M368.64 73.9026C369.544 74.4315 369.874 75.5756 369.302 76.5803C369.103 76.9281 368.912 77.283 368.736 77.6372C368.648 77.8142 368.56 77.9913 368.479 78.1755C368.455 78.2142 368.374 78.4134 368.341 78.4901C368.056 79.2022 367.808 79.9199 367.605 80.6502C367.503 81.0304 367.4 81.4105 367.328 81.7891C367.285 81.9788 367.248 82.1756 367.22 82.3645C367.202 82.4403 367.193 82.4783 367.185 82.5012C367.177 82.5241 367.176 82.5541 367.166 82.6221C367.058 83.4298 366.987 84.228 366.968 85.0309C366.963 85.4133 366.966 85.8029 366.976 86.1846C366.984 86.379 366.993 86.5734 367.009 86.7599C367.014 86.8421 367.019 86.9243 367.032 86.9985C367.032 86.9985 367.032 86.9985 367.031 87.0135C367.119 87.7658 367.244 88.5236 367.423 89.256C367.508 89.6187 367.609 89.9806 367.724 90.3416C367.778 90.5186 367.84 90.7027 367.902 90.8718C367.929 90.9453 367.949 91.0266 367.984 91.1072C368.275 91.8262 368.612 92.5277 368.994 93.1968C369.512 94.0911 369.096 95.3723 368.156 95.9545C367.193 96.5453 365.99 96.2497 365.465 95.3483C362.007 89.3271 362.193 81.2831 365.9 74.7979C366.433 73.8627 367.751 73.3878 368.64 73.9026Z" fill="white"/>
</g>
<g clip-path="url(#clip3_105_5)">
<path d="M680.395 -25.9073C677.884 -31.4209 671.333 -32.3448 665.987 -32.6665C665.823 -32.6782 665.657 -32.6695 665.511 -32.649C665.444 -32.7157 665.377 -32.7825 665.298 -32.8397C663.449 -34.2103 661.263 -34.0576 659.55 -33.0148C659.773 -37.8474 659.996 -42.6801 660.229 -47.5119C660.273 -48.5508 659.506 -49.5033 658.44 -49.5798C643.131 -50.5336 627.236 -49.1981 613.303 -42.7494C613.246 -42.8256 613.19 -42.9019 613.123 -42.9686C608.044 -47.5936 600.613 -45.5889 595.357 -42.2831C592.637 -40.58 590.312 -38.0543 590.012 -34.7231C589.767 -32.0275 591.255 -29.2076 593.754 -28.1307C591.334 -25.2817 589.214 -22.1739 587.531 -18.8181C583.06 -9.94703 581.849 0.189424 582.194 10.025C582.336 13.9347 582.628 17.917 583.264 21.8313C574.912 22.3153 567.058 25.6307 560.899 31.1825C560.765 31.0285 560.61 30.8936 560.431 30.8085C559.982 28.8781 559.354 26.9968 558.513 25.2137C557.206 22.4583 554.307 19.6197 551.049 21.3667C547.898 23.0491 548.913 27.0111 550.739 29.2776C552.386 31.3249 554.644 32.8796 557.104 33.7885C557.207 34.5078 557.299 35.2365 557.361 35.963C557.506 37.82 559.901 37.7649 560.844 36.6772C566.533 30.0703 575.094 25.9596 583.805 25.6458C583.877 25.6509 583.94 25.6348 584.013 25.6194C585.194 30.7075 587.102 35.5693 590.206 39.8565C590.609 40.4116 591.4 40.5922 592.037 40.4831C597.105 39.65 602.053 38.1997 606.773 36.1965C600.667 43.444 595.924 51.8106 592.887 60.8154C591.441 58.9889 589.719 57.4211 587.491 56.5804C584.592 55.4749 580.982 56.2269 578.84 58.4976C576.419 61.0783 576.795 64.8913 579.358 67.2313C582.637 70.221 587.063 69.5894 591.037 68.6366C592.065 68.3905 592.517 67.546 592.504 66.7198C593.501 67.3381 594.975 67.186 595.35 65.8408C598.848 53.2893 605.688 41.8339 615.163 32.8783C615.605 32.4664 615.774 31.9833 615.777 31.509C620.384 28.6312 624.64 25.1917 628.387 21.2309C629.112 20.4679 629.305 19.3573 628.582 18.5111C627.955 17.7749 626.579 17.5627 625.865 18.3161C616.955 27.7352 605.242 34.1163 592.509 36.4833C587.911 29.6027 586.675 20.9722 586.143 12.877C585.537 3.51793 586.21 -6.16193 589.917 -14.8711C596.352 -30.0076 611.44 -39.6334 626.916 -43.4542C636.516 -45.8191 646.433 -46.2734 656.271 -45.7842C655.872 -37.2091 655.474 -28.6443 655.076 -20.0691C654.96 -17.5912 658.804 -17.3051 658.921 -19.7933C658.948 -20.4619 658.986 -21.1297 659.013 -21.7983C659.935 -20.8553 661.068 -20.1344 662.35 -19.7536C665.932 -18.6919 670.139 -20.5772 671.32 -24.2578C671.745 -25.5891 671.697 -26.9233 671.29 -28.1492C673.49 -27.6406 675.502 -26.671 676.659 -24.6898C678.603 -21.3419 675.976 -17.3214 673.698 -14.8851C668.843 -9.70395 662.05 -6.66319 655.02 -6.07401C651.038 -5.74069 647.008 -6.30837 643.263 -7.6912C640.933 -8.54951 639.652 -4.90699 641.971 -4.04941C650.053 -1.06587 659.198 -1.67872 666.973 -5.32992C670.866 -7.15515 674.353 -9.78325 677.182 -13.0258C680.181 -16.4729 682.421 -21.3982 680.383 -25.8875L680.395 -25.9073ZM553.169 24.7168C554.418 24.5382 555.449 27.5523 555.874 28.8207C555.51 28.5677 555.158 28.3051 554.829 28.0133C554.441 27.6657 551.878 24.9027 553.159 24.716L553.169 24.7168ZM590.3 64.8286C587.847 65.4159 584.794 66.3008 582.491 64.7842C580.986 63.789 580.458 61.9561 582.037 60.7798C585.588 58.1048 589.003 61.7954 591.045 64.7995C590.82 64.7627 590.573 64.7656 590.3 64.8389L590.3 64.8286ZM596.448 -31.0633C596.256 -31.2627 596.02 -31.4138 595.747 -31.485C594.211 -31.915 593.572 -33.4979 593.957 -34.9868C594.501 -37.1039 596.384 -38.4956 598.216 -39.468C601.356 -41.1409 606.316 -43.199 609.654 -40.8757C607.756 -39.8461 605.892 -38.7213 604.091 -37.4681C601.358 -35.57 598.792 -33.4226 596.447 -31.053L596.448 -31.0633ZM667.672 -25.417C667.097 -23.8593 665.243 -23.0226 663.675 -23.4342C661.925 -23.8899 660.563 -25.5969 660.465 -27.3887C660.39 -28.7765 661.596 -30.7944 663.142 -29.6519C663.651 -29.2749 664.172 -29.2066 664.624 -29.3289C664.894 -29.0723 665.262 -28.8911 665.732 -28.8265C667.222 -28.6165 668.184 -26.804 667.673 -25.4273L667.672 -25.417Z" fill="white"/>
<path d="M649.273 1.62223C648.265 1.31261 647.18 1.78154 646.808 2.79681C646.68 3.14867 646.541 3.4998 646.393 3.83993C646.319 4.00999 646.245 4.18006 646.161 4.34938C646.148 4.3897 646.052 4.56856 646.016 4.6382C645.672 5.27372 645.298 5.88651 644.885 6.47583C644.667 6.78002 644.449 7.08421 644.213 7.3664C644.099 7.513 643.975 7.65886 643.852 7.79445C643.807 7.85309 643.784 7.88241 643.772 7.9022C643.761 7.92199 643.739 7.94105 643.694 7.98942C643.158 8.55965 642.604 9.09762 642.012 9.60186C641.727 9.83932 641.431 10.076 641.137 10.3025C640.985 10.4154 640.832 10.5282 640.681 10.6308C640.615 10.6777 640.55 10.7246 640.486 10.7613C640.486 10.7613 640.486 10.7613 640.475 10.7708C639.848 11.1695 639.193 11.5454 638.52 11.8685C638.189 12.0305 637.848 12.1814 637.498 12.3213C637.328 12.3917 637.148 12.4613 636.979 12.5214C636.905 12.547 636.83 12.5829 636.746 12.6078C636.008 12.8437 635.252 13.037 634.489 13.1783C633.466 13.3628 632.781 14.4382 632.976 15.4528C633.18 16.4888 634.214 17.151 635.248 16.9673C642.12 15.7065 648.058 10.6546 650.446 4.08944C650.792 3.14455 650.261 1.93038 649.273 1.62223Z" fill="white"/>
</g>
<path d="M975.792 18.28C974.981 16.7867 973.808 15.656 972.272 14.888C970.779 14.0773 969.008 13.672 966.96 13.672C963.419 13.672 960.581 14.8453 958.448 17.192C956.315 19.496 955.248 22.5893 955.248 26.472C955.248 30.6107 956.357 33.8533 958.576 36.2C960.837 38.504 963.931 39.656 967.856 39.656C970.544 39.656 972.805 38.9733 974.64 37.608C976.517 36.2427 977.883 34.28 978.736 31.72H964.848V23.656H988.656V33.832C987.845 36.5627 986.459 39.1013 984.496 41.448C982.576 43.7947 980.123 45.6933 977.136 47.144C974.149 48.5947 970.779 49.32 967.024 49.32C962.587 49.32 958.619 48.36 955.12 46.44C951.664 44.4773 948.955 41.768 946.992 38.312C945.072 34.856 944.112 30.9093 944.112 26.472C944.112 22.0347 945.072 18.088 946.992 14.632C948.955 11.1333 951.664 8.424 955.12 6.504C958.576 4.54133 962.523 3.56 966.96 3.56C972.336 3.56 976.859 4.86133 980.528 7.464C984.24 10.0667 986.693 13.672 987.888 18.28H975.792ZM1003.74 40.552H1018.08V49H992.798V4.072H1003.74V40.552ZM1032.13 4.072V30.952C1032.13 33.64 1032.79 35.7093 1034.11 37.16C1035.44 38.6107 1037.38 39.336 1039.94 39.336C1042.5 39.336 1044.46 38.6107 1045.83 37.16C1047.19 35.7093 1047.87 33.64 1047.87 30.952V4.072H1058.82V30.888C1058.82 34.8987 1057.96 38.2907 1056.26 41.064C1054.55 43.8373 1052.25 45.928 1049.35 47.336C1046.49 48.744 1043.29 49.448 1039.75 49.448C1036.2 49.448 1033.03 48.7653 1030.21 47.4C1027.44 45.992 1025.24 43.9013 1023.62 41.128C1022 38.312 1021.19 34.8987 1021.19 30.888V4.072H1032.13ZM956.912 94.552H971.248V103H945.968V58.072H956.912V94.552ZM985.492 66.84V75.928H1000.15V84.376H985.492V94.232H1002.07V103H974.548V58.072H1002.07V66.84H985.492ZM1035.22 95.064H1018.45L1015.77 103H1004.31L1020.57 58.072H1033.24L1049.49 103H1037.91L1035.22 95.064ZM1032.41 86.616L1026.84 70.168L1021.33 86.616H1032.41ZM1094.7 58.072L1078.76 103H1065.06L1049.13 58.072H1060.78L1071.91 91.992L1083.11 58.072H1094.7ZM1108.29 66.84V75.928H1122.95V84.376H1108.29V94.232H1124.87V103H1097.35V58.072H1124.87V66.84H1108.29ZM1146.31 103.448C1143.03 103.448 1140.08 102.915 1137.48 101.848C1134.88 100.781 1132.79 99.2027 1131.21 97.112C1129.67 95.0213 1128.86 92.504 1128.78 89.56H1140.42C1140.59 91.224 1141.17 92.504 1142.15 93.4C1143.13 94.2533 1144.41 94.68 1145.99 94.68C1147.61 94.68 1148.89 94.3173 1149.83 93.592C1150.77 92.824 1151.24 91.7787 1151.24 90.456C1151.24 89.3467 1150.86 88.4293 1150.09 87.704C1149.36 86.9787 1148.44 86.3813 1147.34 85.912C1146.27 85.4427 1144.73 84.9093 1142.73 84.312C1139.83 83.416 1137.46 82.52 1135.62 81.624C1133.79 80.728 1132.21 79.4053 1130.89 77.656C1129.56 75.9067 1128.9 73.624 1128.9 70.808C1128.9 66.6267 1130.42 63.3627 1133.45 61.016C1136.48 58.6267 1140.42 57.432 1145.29 57.432C1150.24 57.432 1154.23 58.6267 1157.26 61.016C1160.28 63.3627 1161.91 66.648 1162.12 70.872H1150.28C1150.19 69.4213 1149.66 68.2907 1148.68 67.48C1147.7 66.6267 1146.44 66.2 1144.9 66.2C1143.58 66.2 1142.51 66.5627 1141.7 67.288C1140.89 67.9707 1140.49 68.9733 1140.49 70.296C1140.49 71.7467 1141.17 72.8773 1142.54 73.688C1143.9 74.4987 1146.03 75.3733 1148.94 76.312C1151.84 77.2933 1154.18 78.232 1155.98 79.128C1157.81 80.024 1159.39 81.3253 1160.71 83.032C1162.03 84.7387 1162.7 86.936 1162.7 89.624C1162.7 92.184 1162.03 94.5093 1160.71 96.6C1159.43 98.6907 1157.55 100.355 1155.08 101.592C1152.6 102.829 1149.68 103.448 1146.31 103.448Z" fill="white"/>
<path d="M167.983 64.8572C170.601 64.9163 170.704 60.8387 168.075 60.7794C165.445 60.72 165.353 64.7979 167.983 64.8572Z" fill="white"/>
<path d="M175.766 64.4344C178.384 64.4935 178.487 60.4158 175.858 60.3565C173.228 60.2972 173.136 64.3751 175.766 64.4344Z" fill="white"/>
<path d="M179.794 69.9775C174.038 73.58 166.964 74.3562 160.568 72.1008C158.087 71.2287 156.933 75.1418 159.392 76.0134C160.967 76.5712 162.589 76.9561 164.226 77.1888C164.126 77.7416 164.254 78.332 164.764 78.855C166.815 80.9579 168.975 83.0306 171.71 84.2131C174.348 85.3498 177.241 85.3281 179.834 84.0917C185.022 81.6298 186.478 74.4156 182.243 70.3483C181.615 69.7466 180.566 69.4835 179.783 69.9773L179.794 69.9775ZM177.465 80.6867C174.243 81.811 171.4 79.6467 169.113 77.4297C172.976 77.2666 176.804 76.2539 180.226 74.4269C181.391 76.7818 180.139 79.746 177.465 80.6867Z" fill="white"/>
<path d="M218.571 51.8207C216.598 51.0906 214.516 50.8586 212.432 50.6919C212.614 47.4425 212.105 44.0142 209.955 41.4521C208.039 39.1673 204.652 37.9701 201.763 38.8298C198.578 39.7699 196.985 42.9005 197.425 46.066C197.883 49.3517 200.207 51.8742 203.168 53.1597C206.516 54.6172 210.194 54.4826 213.751 54.9002C216.884 55.2647 219.959 56.3351 221.303 59.4232C222.46 62.1043 222.267 65.3318 221.704 68.1265C221.068 71.246 220 74.2796 218.49 77.0856C215.562 82.5691 211.219 87.1284 205.928 90.3061C205.826 86.6585 205.397 83.0144 204.63 79.4388C202.74 70.691 198.859 62.4641 194.094 54.9245C188.635 46.292 182.061 38.4287 175.474 30.6413C174.722 29.7538 173.414 29.9202 172.594 30.5763C158.81 41.6147 148.611 57.0756 143.9 74.0967C141.888 81.3419 140.914 88.8282 140.897 96.3251C135.595 98.1097 129.154 101.697 129.614 108.28C129.971 113.195 133.772 115.795 137.967 117.293C137.007 117.924 136.036 118.555 135.076 119.197C132.968 120.575 130.732 121.852 128.762 123.429C127.156 124.709 125.895 126.64 126.401 128.784C126.898 130.873 128.833 132.31 130.904 132.574C135.121 133.116 139.686 129.78 142.352 126.793C143.412 125.599 144.321 124.324 145.08 122.959C145.893 125.491 146.826 127.983 147.869 130.422C150.121 135.641 152.996 140.755 156.703 145.104C156.404 145.337 156.168 145.669 156.038 146.134C153.579 154.914 151.119 163.684 148.671 172.464C148.465 172.449 148.247 172.454 148.039 172.504C143.259 169.937 137.208 169.714 132.469 172.588C130.914 173.532 129.47 174.904 129.027 176.722C128.584 178.529 129.304 180.33 130.747 181.45C133.407 183.502 137.471 183.125 140.502 182.269C143.522 181.412 146.2 179.808 148.38 177.637C149.49 178.544 151.28 178.268 151.705 176.744C154.366 167.25 157.026 157.756 159.687 148.251C161.645 150.112 163.804 151.761 166.187 153.131C167.196 153.709 168.172 153.35 168.753 152.656C168.785 152.657 168.829 152.658 168.862 152.637C169.518 152.445 170.169 152.046 170.509 151.422C171.552 149.52 172.584 147.628 173.627 145.726C173.707 145.586 173.764 145.446 173.822 145.295C177.277 143.479 180.543 141.344 183.566 138.899C182.253 153.722 183.751 168.762 187.974 183.035C188.388 184.427 189.954 184.897 191.046 184.215C191.267 184.546 191.597 184.815 192.061 184.978C195.782 186.302 199.899 187.418 203.619 185.445C206.722 183.796 208.422 179.743 206.603 176.524C204.554 172.887 199.911 173.392 196.588 174.677C194.449 175.51 192.519 176.729 190.886 178.281C187.326 164.544 186.321 150.267 187.923 136.146C187.964 135.755 187.906 135.427 187.782 135.153C195.597 127.538 201.371 117.853 204.091 107.185C205.105 103.193 205.697 99.104 205.888 94.9842C216.578 89.567 224.498 78.7555 226.039 66.8097C226.832 60.6034 224.89 54.1504 218.593 51.8103L218.571 51.8207ZM201.761 46.5991C200.708 44.1161 202.345 41.9115 205.031 42.8644C208.051 43.9336 208.505 47.4477 208.374 50.3283C205.783 49.9978 202.866 49.1921 201.761 46.5991ZM139.275 178.367C138.378 178.608 132.581 179.631 132.976 177.583C133.197 176.435 135.259 175.643 136.202 175.295C137.561 174.803 139.001 174.575 140.436 174.596C141.914 174.618 143.386 174.902 144.766 175.445C143.18 176.812 141.287 177.825 139.263 178.378L139.275 178.367ZM196.751 179.044C198.104 178.346 201.717 176.74 202.941 178.368C204.092 179.895 202.378 181.663 201.018 182.155C198.618 183.025 195.976 182.073 193.668 181.249C194.579 180.377 195.606 179.639 196.751 179.044ZM133.67 108.251C133.219 104.139 137.609 101.844 140.986 100.604C141.207 105.255 141.809 109.893 142.782 114.453C139.299 113.689 134.131 112.418 133.67 108.251ZM132.88 128.353C132.267 128.525 130.163 128.782 130.374 127.611C130.584 126.484 133.089 125.355 133.883 124.829C136.708 122.977 139.534 121.115 142.359 119.264C140.623 123.436 137.125 127.165 132.869 128.364L132.88 128.353ZM190.903 125.484C185.902 132.237 179.341 137.748 171.925 141.672C171.503 141.564 171.058 141.533 170.631 141.664C169.975 141.856 169.324 142.255 168.984 142.879C168.009 144.663 167.034 146.436 166.059 148.221C160.033 144.004 155.792 137.75 152.637 131.139C150.394 126.431 148.637 121.462 147.37 116.384C147.419 116.135 147.469 115.886 147.507 115.626C147.597 115.029 147.283 114.478 146.824 114.087C146.164 111.058 145.657 107.989 145.346 104.913C143.599 87.398 147.564 69.7289 156.731 54.7126C161.303 47.2314 167.052 40.5711 173.736 34.922C184.261 47.3794 195.054 60.5393 199.663 76.4649C204.494 93.179 201.253 111.517 190.903 125.506L190.903 125.484Z" fill="white"/>
<path d="M801.794 1.97752C796.038 5.57997 788.964 6.35617 782.568 4.10083C780.087 3.22874 778.933 7.14181 781.392 8.01341C782.967 8.57125 784.589 8.95606 786.226 9.18885C786.126 9.74156 786.254 10.332 786.764 10.855C788.815 12.9579 790.975 15.0306 793.71 16.2131C796.348 17.3498 799.241 17.3281 801.834 16.0917C807.022 13.6298 808.478 6.41564 804.243 2.34834C803.615 1.74657 802.566 1.48351 801.783 1.97727L801.794 1.97752ZM799.465 12.6867C796.243 13.811 793.4 11.6467 791.113 9.4297C794.976 9.2666 798.804 8.25394 802.226 6.42691C803.391 8.78182 802.139 11.746 799.465 12.6867Z" fill="white"/>
<path d="M840.571 -16.1793C838.598 -16.9094 836.516 -17.1414 834.432 -17.3081C834.614 -20.5575 834.105 -23.9858 831.955 -26.5479C830.039 -28.8327 826.652 -30.0299 823.763 -29.1702C820.578 -28.2301 818.985 -25.0995 819.425 -21.934C819.883 -18.6483 822.207 -16.1258 825.168 -14.8403C828.516 -13.3828 832.194 -13.5174 835.751 -13.0998C838.884 -12.7353 841.959 -11.6649 843.303 -8.57684C844.46 -5.89565 844.267 -2.6682 843.704 0.126514C843.068 3.24603 842 6.27961 840.49 9.08562C837.562 14.5691 833.219 19.1284 827.928 22.3061C827.826 18.6585 827.397 15.0144 826.63 11.4388C824.74 2.691 820.859 -5.53591 816.094 -13.0755C810.635 -21.708 804.061 -29.5713 797.474 -37.3587C796.722 -38.2462 795.414 -38.0798 794.594 -37.4237C780.81 -26.3853 770.611 -10.9244 765.9 6.09674C763.888 13.3419 762.914 20.8282 762.897 28.3251C757.595 30.1097 751.154 33.6967 751.614 40.2795C751.971 45.1951 755.772 47.7945 759.967 49.2929C759.007 49.9241 758.036 50.5551 757.076 51.1972C754.968 52.5751 752.732 53.8522 750.762 55.4291C749.156 56.7095 747.895 58.6397 748.401 60.7839C748.898 62.8734 750.833 64.3099 752.904 64.5743C757.121 65.1156 761.686 61.7801 764.352 58.7934C765.412 57.5986 766.321 56.3242 767.08 54.9594C767.893 57.4914 768.826 59.9825 769.869 62.4217C772.121 67.6413 774.996 72.7551 778.703 77.1043C778.404 77.3369 778.168 77.669 778.038 78.1339C775.579 86.9142 773.119 95.6836 770.671 104.464C770.465 104.449 770.247 104.454 770.039 104.504C765.259 101.937 759.208 101.714 754.469 104.588C752.914 105.532 751.47 106.904 751.027 108.722C750.584 110.529 751.304 112.33 752.747 113.45C755.407 115.502 759.471 115.125 762.502 114.269C765.522 113.412 768.2 111.808 770.38 109.637C771.49 110.544 773.28 110.268 773.705 108.744C776.366 99.2498 779.026 89.7559 781.687 80.2511C783.645 82.1125 785.804 83.7608 788.187 85.1312C789.196 85.7089 790.172 85.3501 790.753 84.6559C790.785 84.6566 790.829 84.6576 790.862 84.6366C791.518 84.4447 792.169 84.0458 792.509 83.4224C793.552 81.5199 794.584 79.6281 795.627 77.7256C795.707 77.5859 795.764 77.4458 795.822 77.2947C799.277 75.4793 802.543 73.3441 805.566 70.8987C804.253 85.7222 805.751 100.762 809.974 115.035C810.388 116.427 811.954 116.897 813.046 116.215C813.267 116.546 813.597 116.815 814.061 116.978C817.782 118.302 821.899 119.418 825.619 117.445C828.722 115.796 830.422 111.743 828.603 108.524C826.554 104.887 821.911 105.392 818.588 106.677C816.449 107.51 814.519 108.729 812.886 110.281C809.326 96.5441 808.321 82.2667 809.923 68.146C809.964 67.7552 809.906 67.4275 809.782 67.1526C817.597 59.5378 823.371 49.853 826.091 39.1853C827.105 35.1929 827.697 31.104 827.888 26.9842C838.578 21.567 846.498 10.7555 848.039 -1.19026C848.832 -7.39658 846.89 -13.8496 840.593 -16.1897L840.571 -16.1793ZM823.761 -21.4009C822.708 -23.8839 824.345 -26.0885 827.031 -25.1356C830.051 -24.0664 830.505 -20.5523 830.374 -17.6717C827.783 -18.0022 824.866 -18.8079 823.761 -21.4009ZM761.275 110.367C760.378 110.608 754.581 111.631 754.976 109.583C755.197 108.435 757.259 107.643 758.202 107.295C759.561 106.803 761.001 106.575 762.436 106.596C763.914 106.618 765.386 106.902 766.766 107.445C765.18 108.812 763.287 109.825 761.263 110.378L761.275 110.367ZM818.751 111.044C820.104 110.346 823.717 108.74 824.941 110.368C826.092 111.895 824.378 113.663 823.018 114.155C820.618 115.025 817.976 114.073 815.668 113.249C816.579 112.377 817.606 111.639 818.751 111.044ZM755.67 40.2514C755.219 36.1389 759.609 33.844 762.986 32.6035C763.207 37.2549 763.809 41.8931 764.782 46.4527C761.299 45.6885 756.131 44.4185 755.67 40.2514ZM754.88 60.3534C754.267 60.5245 752.163 60.7817 752.374 59.6113C752.584 58.4844 755.089 57.3548 755.883 56.8286C758.708 54.9772 761.534 53.115 764.359 51.2636C762.623 55.4356 759.125 59.1651 754.869 60.364L754.88 60.3534ZM812.903 57.4841C807.902 64.2375 801.341 69.7478 793.925 73.6719C793.503 73.5645 793.058 73.5327 792.631 73.6645C791.975 73.8564 791.324 74.2552 790.984 74.8787C790.009 76.663 789.034 78.4364 788.059 80.2208C782.033 76.0042 777.792 69.7496 774.637 63.1387C772.394 58.4308 770.637 53.4618 769.37 48.3843C769.419 48.1351 769.469 47.8859 769.507 47.6257C769.597 47.0292 769.283 46.478 768.824 46.0868C768.164 43.0578 767.657 39.9886 767.346 36.9131C765.599 19.398 769.564 1.72891 778.731 -13.2874C783.303 -20.7686 789.052 -27.4289 795.736 -33.078C806.261 -20.6206 817.054 -7.46073 821.663 8.46492C826.494 25.179 823.253 43.5174 812.903 57.5059L812.903 57.4841Z" fill="white"/>
<path d="M1295.62 55.0815C1295.68 56.3583 1295.8 57.6054 1295.8 58.8822C1295.8 87.7732 1279.58 112.745 1256.05 124.563C1232.52 112.745 1216.3 87.7732 1216.3 58.8822C1216.3 29.9911 1232.49 5.01942 1256.02 -6.79832C1264.35 -2.61163 1271.73 3.23785 1277.85 10.3047C1279.38 9.44364 1280.9 8.58255 1282.39 7.66208C1284.96 6.08836 1287.41 4.30679 1289.89 2.6143C1280.99 -9.02527 1269.4 -18.5567 1256.02 -25C1224.67 -9.88637 1203.01 22.0631 1203.01 59.09C1203.01 96.1169 1224.64 128.066 1256.02 143.21C1287.41 128.066 1309.03 96.1169 1309.03 59.09C1309.03 56.0316 1308.85 53.003 1308.55 50.004C1304.04 51.1917 1299.83 53.1514 1295.59 55.0815H1295.62Z" fill="white"/>
<path d="M1276.9 73.6987L1274.99 58.9711C1286.57 57.4865 1297.92 53.4483 1307.83 47.3315L1315.72 59.9213C1304.01 67.1663 1290.57 71.9469 1276.9 73.6987Z" fill="white"/>
<path d="M1303.3 36.553C1290.72 45.4015 1263.04 57.4271 1250.35 43.6199L1255.87 42.254C1253.51 45.7875 1249.18 48.3114 1245 47.2721L1244.85 46.3813C1248.53 43.7387 1249.39 39.5817 1249.72 35.5435C1254.62 38.008 1260.05 39.938 1265.37 41.1257C1277.82 43.5902 1291.02 39.9677 1302.85 35.781L1303.27 36.553H1303.3Z" fill="white"/>
<path d="M1213.91 11.5811C1205.91 12.8876 1196.38 16.8367 1195.25 25.507C1195.76 29.1889 1200.86 32.5739 1204.57 34.7712L1193.31 42.8773C1174.49 24.0521 1190.35 7.0381 1213.79 9.35414L1213.91 11.5811Z" fill="white"/>
<path d="M1232.79 61.5244C1243.66 77.8851 1258.77 91.0391 1276.96 98.9967C1287.95 103.124 1300.52 109.3 1312.28 106.331C1317.48 104.995 1316.17 100.541 1314.35 96.5619C1313.3 94.3943 1311.96 92.2862 1310.46 90.3858L1313.12 88.1886C1314.88 90.267 1316.41 92.4643 1317.69 94.8991C1320.89 100.749 1321.69 107.845 1313.99 110.607C1306.16 113.992 1297.23 112.062 1289.47 110.755C1284.27 109.775 1279.08 108.469 1273.97 106.895C1253.24 100.511 1234.61 87.4165 1220.3 71.1746L1232.79 61.5244Z" fill="white"/>
<path d="M1266.59 30.2282C1269.55 30.2282 1271.94 27.8486 1271.94 24.9132C1271.94 21.9778 1269.55 19.5981 1266.59 19.5981C1263.64 19.5981 1261.25 21.9778 1261.25 24.9132C1261.25 27.8486 1263.64 30.2282 1266.59 30.2282Z" fill="white"/>
<path d="M1282.36 25.9821C1285.31 25.9821 1287.71 23.6025 1287.71 20.6671C1287.71 17.7317 1285.31 15.3521 1282.36 15.3521C1279.41 15.3521 1277.02 17.7317 1277.02 20.6671C1277.02 23.6025 1279.41 25.9821 1282.36 25.9821Z" fill="white"/>
<path d="M499.172 14.5857C498.727 14.5128 498.26 14.5492 497.836 14.695C497.333 14.3159 496.661 14.1847 495.946 14.294C492.669 14.819 489.881 17.3926 488.896 20.5203C488.75 20.9796 488.655 21.4608 488.589 21.942C488.531 21.9347 488.48 21.9274 488.421 21.9201C488.093 21.9201 487.787 22.0076 487.502 22.168C487.276 22.2701 487.057 22.3794 486.83 22.4815C486.006 20.5568 484.495 19.0038 482.291 18.5664C482.065 18.5226 481.838 18.5154 481.612 18.5445C481.452 18.4352 481.284 18.3404 481.094 18.282C477.905 17.2759 474.095 18.4206 472.008 21.0452C469.818 23.7938 469.606 27.6287 471.321 30.6908C473.124 33.8987 476.824 35.335 480.371 34.7955C483.794 34.2706 486.531 31.5366 487.334 28.212C487.495 27.5558 487.568 26.8632 487.568 26.1633C488.005 25.9592 488.443 25.755 488.881 25.5436C489.319 27.0965 490.158 28.5474 491.319 29.6483C493.851 32.0469 497.763 32.7541 500.975 31.398C504.295 29.9982 506.587 26.6372 506.441 22.9918C506.273 18.9163 503.274 15.2564 499.179 14.593L499.172 14.5857ZM483.911 26.7174C483.897 26.7611 483.853 27.0382 483.845 27.0601C483.824 27.1767 483.794 27.2934 483.758 27.41C483.685 27.6725 483.597 27.9349 483.502 28.1901C483.473 28.2484 483.422 28.3578 483.408 28.3943C483.342 28.5255 483.269 28.6567 483.196 28.788C483.137 28.89 483.072 28.9921 483.013 29.0942C482.948 29.1962 482.882 29.291 482.816 29.3858C482.926 29.2546 482.911 29.2764 482.773 29.4368C482.597 29.641 482.415 29.8378 482.225 30.0201C482.13 30.1076 482.035 30.1951 481.941 30.2753C481.904 30.3044 481.853 30.3409 481.831 30.3555C481.576 30.5231 481.313 30.669 481.043 30.8148C480.992 30.8439 480.955 30.8658 480.933 30.8804C480.904 30.8877 480.868 30.9023 480.809 30.9168C480.634 30.9752 480.466 31.0335 480.291 31.0845C480.145 31.1283 479.999 31.1574 479.846 31.1939C479.802 31.2012 479.634 31.2303 479.59 31.2449C479.328 31.2741 479.058 31.2887 478.788 31.2887C478.664 31.2887 478.547 31.2887 478.423 31.2814C478.408 31.2814 478.124 31.2522 478.072 31.2522C477.78 31.2085 477.489 31.1356 477.204 31.0554C477.058 31.0116 476.912 30.9606 476.773 30.9096C476.423 30.7856 476.635 30.8512 476.708 30.8804C476.43 30.7492 476.168 30.6033 475.912 30.4429C475.912 30.4429 475.642 30.2461 475.62 30.2315C475.555 30.1732 475.489 30.1222 475.423 30.0638C475.292 29.9472 475.168 29.8232 475.051 29.692C475.022 29.6628 474.89 29.4952 474.847 29.4441C474.693 29.2327 474.555 29.0067 474.423 28.7807C474.365 28.6786 474.321 28.5692 474.263 28.4672C474.241 28.4161 474.226 28.3943 474.212 28.3651C474.204 28.3359 474.197 28.3068 474.175 28.2557C474.088 27.9787 473.993 27.7016 473.927 27.4173C473.898 27.3007 473.883 27.1913 473.854 27.0746C473.847 27.0236 473.839 26.9872 473.832 26.9653C473.832 26.9434 473.832 26.9142 473.832 26.8632C473.818 26.5716 473.803 26.28 473.818 25.9883C473.818 25.8279 473.839 25.6675 473.854 25.5144C473.854 25.4926 473.869 25.4707 473.876 25.4342C473.949 25.1499 474.022 24.8728 474.102 24.5958C474.117 24.5521 474.117 24.5302 474.124 24.501C474.124 24.4864 474.131 24.4864 474.146 24.4646C474.234 24.275 474.328 24.1 474.431 23.9178C474.489 23.8157 474.555 23.7209 474.62 23.6188C474.679 23.5386 474.708 23.4949 474.715 23.4803C474.744 23.4439 474.781 23.4001 474.817 23.3637C475.029 23.1231 475.263 22.9044 475.503 22.6929C475.547 22.6565 475.569 22.6346 475.591 22.6127C475.613 22.5981 475.642 22.5836 475.693 22.5544C475.839 22.4596 475.985 22.3648 476.138 22.2701C476.241 22.2117 476.343 22.1534 476.445 22.1024C476.532 22.0586 476.627 22.0149 476.722 21.9711C476.744 21.9639 476.773 21.9493 476.817 21.9347C477.094 21.8399 477.372 21.7524 477.656 21.6868C477.788 21.6576 477.926 21.6285 478.058 21.6066C478.116 21.6066 478.364 21.5774 478.379 21.5774C478.693 21.5629 479.014 21.5702 479.328 21.6066C479.372 21.6139 479.43 21.6285 479.452 21.6285C479.678 21.6868 479.904 21.7378 480.131 21.8108C480.35 21.8837 480.583 21.891 480.802 21.8691C480.963 21.9711 481.13 22.0586 481.327 22.0951C481.51 22.1315 481.678 22.1753 481.853 22.2263C481.868 22.2263 481.911 22.2482 481.948 22.2628C482.094 22.3357 482.24 22.4232 482.378 22.5107C482.4 22.5252 482.488 22.5909 482.51 22.6054C483.043 23.0575 483.13 23.2616 483.51 23.9105C483.517 23.9251 483.561 24.0053 483.583 24.049C483.641 24.1948 483.692 24.3479 483.736 24.4937C483.816 24.7489 483.875 25.0114 483.918 25.2738C483.918 25.303 483.926 25.3103 483.933 25.3249C483.933 25.354 483.933 25.3686 483.933 25.4051C483.933 25.5509 483.955 25.704 483.955 25.8498C483.955 26.1341 483.948 26.4258 483.918 26.7101L483.911 26.7174ZM499.354 19.0986C499.267 19.0622 499.062 18.9528 499.354 19.0986ZM500.34 26.8413C500.508 26.7247 500.413 26.783 500.34 26.8413ZM502.106 23.5241C502.106 23.5241 502.106 23.6407 502.099 23.7209C502.077 23.8157 502.033 24.1365 502.04 24.1146C502.011 24.2531 501.974 24.3917 501.938 24.5302C501.901 24.6614 501.858 24.7927 501.807 24.9239C501.792 24.9676 501.785 24.9968 501.777 25.026C501.763 25.0551 501.741 25.0843 501.712 25.1426C501.58 25.3759 501.449 25.6092 501.31 25.8352C501.288 25.879 501.267 25.9081 501.252 25.93C501.164 26.0394 501.069 26.1487 500.967 26.2581C500.77 26.4768 500.551 26.6737 500.325 26.8632C500.303 26.8778 500.289 26.8851 500.267 26.8997C500.099 27.009 499.931 27.1184 499.763 27.2132C499.646 27.2788 499.53 27.3371 499.413 27.3954C499.033 27.585 499.303 27.4319 499.391 27.41C499.114 27.5048 498.836 27.5923 498.544 27.6579C498.42 27.6871 498.289 27.7089 498.157 27.7381C498.143 27.7381 498.143 27.7381 498.136 27.7381C498.106 27.7381 498.092 27.7381 498.055 27.7381C497.727 27.7381 497.406 27.7673 497.077 27.7381C496.982 27.7381 496.88 27.7235 496.785 27.7089C496.756 27.7089 496.727 27.6944 496.683 27.6871C496.428 27.6287 496.172 27.5704 495.924 27.4902C495.939 27.4902 495.727 27.4173 495.618 27.3809C495.552 27.3517 495.472 27.3152 495.45 27.3007C495.158 27.1548 494.888 26.9726 494.61 26.7903C494.603 26.7903 494.596 26.7903 494.589 26.7757C494.567 26.7539 494.552 26.7393 494.523 26.7028C494.435 26.6153 494.333 26.5278 494.246 26.4404C494.18 26.3674 493.946 26.0977 493.895 26.0539C493.749 25.8498 493.611 25.6457 493.494 25.4342C493.414 25.2957 493.348 25.1499 493.275 25.0114C493.26 24.9822 493.253 24.9676 493.238 24.9458C493.238 24.9385 493.238 24.9312 493.231 24.9093C493.151 24.6323 493.049 24.3698 492.983 24.0855C492.954 23.9688 492.903 23.5824 492.895 23.5678C492.881 23.3345 492.866 23.1012 492.866 22.8606C492.866 22.7367 492.888 22.6054 492.888 22.4815C492.888 22.4669 492.888 22.4669 492.888 22.4596C492.895 22.4086 492.903 22.3576 492.917 22.3065C492.983 21.993 493.092 21.7087 493.173 21.4025C493.173 21.4025 493.173 21.4025 493.173 21.3952C493.26 21.2348 493.333 21.0671 493.428 20.9067C493.487 20.7973 493.552 20.6953 493.625 20.5859C493.654 20.5495 493.822 20.3162 493.866 20.2505C493.91 20.1995 493.954 20.1485 493.968 20.1339C494.092 19.9954 494.224 19.8641 494.362 19.7329C494.45 19.6454 494.552 19.5725 494.64 19.485C494.662 19.4631 494.676 19.4559 494.691 19.4413C494.727 19.4194 494.764 19.3902 494.793 19.3684C495.048 19.1934 495.318 19.033 495.596 18.8945C495.618 18.8872 495.683 18.8507 495.742 18.8216C495.837 18.7924 496.077 18.6976 496.114 18.683C496.442 18.581 496.778 18.5081 497.114 18.457C497.172 18.4497 497.223 18.4206 497.274 18.406C497.486 18.581 497.741 18.6976 498.033 18.7487C498.333 18.7997 498.625 18.858 498.909 18.9382C499.07 18.982 499.223 19.0403 499.376 19.0913C499.391 19.0913 499.398 19.1059 499.413 19.1132C499.654 19.2298 499.887 19.3611 500.113 19.4996C500.186 19.5433 500.252 19.5944 500.325 19.6454C500.332 19.66 500.58 19.8496 500.624 19.8933C500.843 20.0974 501.048 20.3089 501.237 20.5422C501.245 20.5568 501.252 20.564 501.267 20.5859C501.361 20.7317 501.456 20.8703 501.544 21.0234C501.617 21.1473 501.683 21.2712 501.741 21.4025C501.748 21.4243 501.77 21.4754 501.792 21.5264C501.909 21.8472 501.996 22.1753 502.069 22.5034C502.077 22.5471 502.084 22.5763 502.091 22.6054C502.106 22.7367 502.113 22.8679 502.12 22.9918C502.128 23.1668 502.12 23.3491 502.12 23.5241H502.106ZM502.091 22.6565C502.12 22.7804 502.106 22.7294 502.091 22.6565Z" fill="white"/>
<path d="M494.45 38.8347C494.289 38.8128 494.129 38.7909 493.968 38.769C493.64 38.769 493.333 38.8565 493.049 39.0169C491.1 39.8408 489.151 40.6646 487.203 41.4885C486.816 41.6562 486.473 42.1884 486.363 42.5748C486.247 43.0122 486.298 43.5955 486.546 43.9819C486.794 44.3683 487.173 44.711 487.633 44.8203C487.794 44.8422 487.954 44.8641 488.115 44.8859C488.443 44.8859 488.75 44.7985 489.035 44.6381C490.983 43.8142 492.932 42.9904 494.881 42.1665C495.267 41.9988 495.61 41.4666 495.72 41.0802C495.837 40.6428 495.786 40.0595 495.537 39.6731C495.289 39.2867 494.91 38.944 494.45 38.8347Z" fill="white"/>
<path d="M533.569 36.2829C530.817 34.5987 527.584 33.9134 524.41 34.3873C521.213 25.9228 516.71 17.8811 511.594 10.5321C504.959 1.00312 497.296 -7.75301 489.633 -16.4727C489.071 -17.1143 488.049 -17.1434 487.349 -16.706C486.801 -16.8737 486.181 -16.7716 485.663 -16.2248C473.423 -3.50253 463.359 11.8663 461.075 29.6993C460.089 37.3619 460.841 45.0098 463.147 52.3078C460.199 53.642 457.126 55.421 455.761 58.4831C454.367 61.6253 454.783 65.6279 457.878 67.6037C460.98 69.5795 465.103 68.4203 468.293 67.3121C468.731 67.159 469.161 66.9986 469.592 66.8382C472.153 71.599 474.956 76.2359 477.664 80.8947C481.087 86.7929 484.517 92.691 487.94 98.5892C487.677 98.8736 487.509 99.26 487.509 99.763C487.48 110.378 487.451 120.986 487.429 131.602C483.094 131.354 478.467 133.577 476.759 137.675C475.788 140.008 475.941 143.041 478.226 144.564C480.656 146.183 483.692 144.914 485.466 142.931C486.451 141.838 487.042 140.555 487.677 139.242C488.21 138.141 488.772 136.895 489.823 136.195C490.334 135.852 490.582 135.378 490.633 134.89C490.896 134.576 491.063 134.175 491.063 133.73C491.093 123.859 491.115 113.987 491.144 104.116C492.26 106.048 493.384 107.972 494.501 109.904C495.012 110.787 496.121 111.005 496.997 110.561C503.566 107.178 509.645 102.723 514.71 97.3206C514.951 110.429 515.192 123.538 515.433 136.647C515.454 137.93 516.571 138.593 517.739 138.404C518.206 138.331 518.68 138.251 519.147 138.178C519.228 138.302 519.315 138.418 519.432 138.528C521.359 140.401 523.585 142.297 526.446 142.239C529.168 142.18 531.569 140.161 531.467 137.317C531.358 134.365 528.57 133.125 525.95 133.424C523.643 133.687 521.337 134.102 519.038 134.503L518.308 94.6304C518.301 94.1929 518.169 93.843 517.958 93.5659C518.002 93.5076 518.06 93.4493 518.104 93.391C521.782 88.6812 524.577 83.4829 526.468 77.9347C528.088 79.7209 530.788 80.2531 532.985 79.0647C535.415 77.7524 536.678 74.7267 535.956 72.0802C535.496 70.3961 534.386 68.9963 532.963 68.0193C536.999 63.8563 540.108 58.7674 540.845 52.9275C541.663 46.4898 539.24 39.7459 533.554 36.2756L533.569 36.2829ZM483.583 139.33C483.072 140.248 482.313 141.189 481.291 141.575C480.62 141.83 480.123 141.575 479.934 141.145C479.226 139.556 480.977 137.434 482.364 136.53C483.422 135.837 484.597 135.415 485.816 135.276C484.962 136.523 484.356 137.944 483.59 139.337L483.583 139.33ZM526.628 137.019C527.073 136.997 527.672 137.011 527.818 137.296C527.913 137.471 527.832 137.908 527.577 138.192C527.227 138.579 526.555 138.644 526.037 138.586C525.139 138.491 524.358 138.025 523.643 137.456C523.775 137.434 523.906 137.412 524.045 137.39C524.899 137.252 525.76 137.055 526.628 137.019ZM461.607 65.0082C459.155 64.9208 458.192 62.8939 458.812 60.7067C459.52 58.2133 462.045 56.7989 464.359 55.7417C464.432 55.9167 464.49 56.099 464.563 56.274C465.57 58.7747 466.709 61.2171 467.928 63.6303C465.906 64.4323 463.695 65.0884 461.607 65.0082ZM517.089 88.6884C511.915 96.1906 504.755 102.184 496.793 106.551C492.202 98.6403 487.604 90.7298 483.013 82.8194C479.649 77.0306 476.109 71.2855 472.927 65.3655C474.613 64.5271 476.241 63.5574 477.773 62.4711C479.693 61.1077 481.459 59.584 483.079 57.9217C483.451 58.4247 483.933 58.8476 484.51 59.1319C487.254 60.5099 490.122 59.1975 492.246 57.3238C494.121 55.6761 495.632 53.3431 495.924 50.8351C496.077 49.5374 495.72 48.1959 494.815 47.2335C493.778 46.1326 492.158 45.841 490.742 46.2347C489.363 46.6211 488.224 47.5178 487.29 48.575C486.874 49.0416 486.48 49.5301 486.028 49.9748C485.94 50.055 485.86 50.1425 485.772 50.2154C485.692 50.2883 485.276 50.5653 485.648 50.3248C485.531 50.3977 485.415 50.4779 485.298 50.5508C485.225 50.5945 485.152 50.631 485.079 50.6674C484.641 50.8278 484.254 51.134 484.006 51.5204C483.721 51.6808 483.466 51.9068 483.262 52.1839C480.109 56.3979 475.919 59.7662 471.234 62.1284C470.672 61.0202 470.132 59.912 469.606 58.7893C467.774 54.8596 466.256 50.7622 465.322 46.5263C464.381 42.2394 464.111 37.8358 464.366 33.4614C464.877 24.8656 467.534 16.474 471.511 8.8698C475.766 0.755241 481.437 -6.49172 487.735 -13.1117C500.478 1.38953 513.681 16.4448 520.68 34.6935C524.161 43.7558 526.11 53.4743 525.614 63.2001C525.147 72.3427 522.278 81.1426 517.075 88.6884H517.089ZM490.75 50.2591C490.75 50.2591 490.757 50.2591 490.764 50.2518C490.764 50.2518 490.772 50.2446 490.779 50.2373C490.83 50.1862 490.939 50.1352 490.896 50.1644C491.012 50.0915 491.122 50.0113 491.239 49.9456C491.239 49.9456 491.29 49.9165 491.341 49.8873C491.385 49.8727 491.567 49.7925 491.582 49.7852C491.669 49.7561 491.757 49.7342 491.844 49.7123C491.859 49.7123 491.866 49.705 491.874 49.6978C491.874 49.6978 491.874 49.6978 491.888 49.6978C491.91 49.6978 492.02 49.6978 492.085 49.6978C492.114 49.7123 492.144 49.7342 492.173 49.7561C492.158 49.7415 492.158 49.7269 492.158 49.7196C492.158 49.7196 492.158 49.7196 492.158 49.7123C492.158 49.7123 492.18 49.7415 492.202 49.7852C492.202 49.7852 492.217 49.7925 492.217 49.7998C492.217 49.8071 492.217 49.8144 492.224 49.8217C492.224 49.829 492.231 49.8363 492.238 49.8436C492.246 49.8727 492.26 49.9019 492.268 49.9383C492.268 49.9311 492.275 49.9748 492.29 50.0331C492.29 49.9529 492.297 49.9019 492.297 50.0696C492.297 50.0696 492.297 50.0769 492.297 50.0842C492.311 50.1352 492.319 50.1862 492.319 50.1862C492.319 50.1862 492.311 50.1862 492.304 50.1716C492.311 50.2664 492.319 50.3904 492.319 50.507C492.319 50.5289 492.304 50.5581 492.297 50.6164C492.275 50.7039 492.26 50.7914 492.246 50.8788C492.195 51.0976 492.122 51.3017 492.056 51.5131C492.056 51.5277 492.056 51.535 492.049 51.5496C492.012 51.6225 491.983 51.6954 491.947 51.7683C491.844 51.9797 491.735 52.1839 491.618 52.3807C491.516 52.563 491.406 52.738 491.297 52.9057C491.224 53.015 491.151 53.1171 491.078 53.2265C491.056 53.2556 490.91 53.4452 490.874 53.5035C490.845 53.54 490.808 53.5837 490.801 53.5983C490.72 53.7004 490.633 53.7951 490.545 53.8899C490.407 54.043 490.261 54.1961 490.115 54.3346C489.947 54.495 489.779 54.6554 489.604 54.8085C489.516 54.8814 489.429 54.9616 489.334 55.0346C489.305 55.0564 489.275 55.0783 489.246 55.1002C488.867 55.3699 488.473 55.5959 488.071 55.8219C488.042 55.8365 488.027 55.8438 488.005 55.8584C487.998 55.8584 487.998 55.8584 487.984 55.8584C487.852 55.8949 487.728 55.9459 487.604 55.9896C487.502 56.0188 487.4 56.0407 487.29 56.0698C487.254 56.0771 487.232 56.0844 487.21 56.0917C487.188 56.0917 487.173 56.0917 487.137 56.0917C487.049 56.0917 486.955 56.0917 486.867 56.0917C486.801 56.0917 486.736 56.0917 486.677 56.0844C486.619 56.0698 486.56 56.048 486.546 56.048C486.48 56.0334 486.414 56.0115 486.349 55.9896C486.341 55.9896 486.334 55.9896 486.327 55.9896C486.283 55.9678 486.239 55.9459 486.225 55.9386C486.174 55.9094 486.115 55.873 486.064 55.8438C486.02 55.8001 485.969 55.749 485.962 55.7417C485.962 55.7345 485.955 55.7345 485.947 55.7272C485.94 55.7126 485.933 55.7053 485.925 55.6907C485.955 55.5376 485.925 55.5668 485.896 55.6324C485.896 55.6032 485.882 55.5741 485.882 55.5449C485.882 55.5376 485.882 55.5303 485.882 55.5157C485.882 55.5012 485.882 55.4939 485.882 55.4866C485.882 55.5012 485.882 55.5084 485.882 55.5157C485.882 55.5084 485.882 55.5012 485.882 55.4939C485.882 55.4866 485.882 55.4793 485.882 55.472C485.882 55.4501 485.882 55.421 485.882 55.4064C485.882 55.4064 485.882 55.4064 485.882 55.3991C485.882 55.421 485.882 55.4428 485.882 55.4647C485.896 55.421 485.904 55.3772 485.911 55.3481C486.422 55.0418 486.757 54.4659 486.801 53.868C487.531 53.4962 488.173 53.0077 488.75 52.4099C489.356 51.7902 489.867 51.083 490.494 50.4851C490.574 50.405 490.662 50.3393 490.742 50.2591C490.742 50.2591 490.742 50.2591 490.728 50.2591H490.75ZM492.26 49.8509C492.26 49.8509 492.253 49.829 492.253 49.8217C492.348 49.9092 492.319 49.8946 492.26 49.8509ZM492.056 49.6832C492.056 49.6832 492.005 49.6613 491.983 49.6467C491.983 49.6467 492.02 49.6613 492.071 49.6832H492.056ZM492.333 50.5362C492.333 50.6164 492.326 50.6893 492.297 50.7112C492.297 50.7112 492.319 50.6018 492.333 50.5362ZM489.37 55.0127C489.429 54.9689 489.414 54.9762 489.37 55.0127ZM486.823 56.1063C486.823 56.1063 486.772 56.1063 486.736 56.099C486.765 56.099 486.787 56.099 486.823 56.1063ZM485.896 55.3626C485.896 55.3626 485.896 55.3626 485.896 55.3772C485.896 55.3772 485.896 55.3772 485.896 55.3845C485.896 55.3772 485.896 55.3699 485.896 55.3699V55.3626ZM485.889 55.4939C485.889 55.4939 485.889 55.5084 485.889 55.523C485.889 55.5522 485.874 55.5741 485.867 55.5741C485.867 55.5741 485.874 55.5376 485.889 55.4939ZM485.874 55.4428C485.874 55.4428 485.874 55.4574 485.882 55.472C485.882 55.4574 485.874 55.4428 485.874 55.4428ZM531.598 75.6454C529.723 77.2129 527.562 74.1727 529.65 72.8749C530.482 72.3573 530.642 71.5043 530.401 70.7752C532.197 71.7813 533.562 73.9977 531.598 75.6454ZM534.642 59.9995C533.131 62.5877 531.161 64.8333 528.978 66.8674C530.131 56.9739 528.723 47.197 525.658 37.8868C530.124 37.4858 534.386 40.5479 536.196 44.5359C538.466 49.5301 537.32 55.4137 534.642 59.9922V59.9995Z" fill="white"/>
<path d="M492.232 49.8301C492.232 49.8301 492.218 49.8077 492.218 49.8003C492.21 49.7928 492.195 49.7853 492.18 49.7778C492.195 49.7928 492.21 49.8152 492.232 49.8376V49.8301Z" fill="white"/>
<path d="M492.311 50.1718C492.311 50.1353 492.311 50.0989 492.311 50.0843C492.311 50.0697 492.311 50.0551 492.304 50.0405C492.304 50.0916 492.304 50.1499 492.319 50.1791L492.311 50.1718Z" fill="white"/>
<path d="M490.757 50.2515C490.837 50.2078 490.874 50.1786 490.888 50.1641C490.845 50.1932 490.801 50.2224 490.757 50.2515Z" fill="white"/>
<path d="M479.751 13.9151C481.627 14.389 483.502 14.8556 485.378 15.3295C486.232 15.5409 486.947 15.1691 487.436 14.4911C488.159 13.4995 488.874 12.508 489.596 11.5165C490.158 10.7437 489.757 9.4532 488.94 9.02305C487.991 8.51999 487.042 8.84808 486.444 9.67922C485.998 10.2916 485.561 10.8968 485.115 11.5092C483.648 11.1374 482.181 10.7728 480.714 10.401C479.788 10.1677 478.693 10.6999 478.467 11.6769C478.248 12.6247 478.751 13.6672 479.744 13.9224L479.751 13.9151Z" fill="white"/>
<path d="M726.205 74.782C725.3 63.4175 721.849 52.4254 716.612 42.3257C711.511 32.4798 704.714 23.5734 696.854 15.7683C695.893 14.8147 694.908 13.8718 693.911 12.9497C693.187 12.2835 692.365 12.3617 691.751 12.7982C690.982 12.7107 690.13 13.0805 689.826 13.8253C685.985 23.2303 678.85 30.6063 671.964 37.868C664.664 45.5645 657.362 53.5581 653.556 63.6478C651.381 69.4016 650.255 75.4693 650.226 81.6161C650.212 84.9829 650.582 88.3287 651.203 91.6366C647.456 102.233 646.683 113.61 648.938 124.597C646.975 125.663 645.661 127.717 645.9 130.116C646.202 133.167 648.779 135.324 651.796 135.29C654.721 135.254 657.238 132.955 657.571 130.051C657.929 126.892 655.842 124.184 652.828 123.411C652.712 123.382 652.592 123.368 652.478 123.37C650.84 115.294 651.018 106.834 652.945 98.8091C655.413 107.304 659.14 115.373 662.449 123.557C665.972 132.283 669.124 141.368 669.232 150.887C669.244 151.987 669.212 153.078 669.133 154.177C669.019 155.795 670.574 156.957 672.042 156.059C675.93 153.676 679.822 151.279 683.654 148.786C683.422 151.549 683.197 154.321 682.965 157.084C682.816 158.894 682.706 160.703 682.504 162.511C682.375 163.677 682.109 164.878 681.512 165.806C680.291 167.686 678.305 168.961 676.602 170.357C674.711 171.901 672.885 173.633 672.001 175.964C671.644 176.912 671.901 178.004 672.875 178.472C673.722 178.879 675.017 178.551 675.382 177.597C676.182 175.479 677.925 174.076 679.689 172.683C681.624 171.147 683.582 169.608 684.874 167.466C686.517 164.733 686.361 161.22 686.62 158.142C686.926 154.471 687.227 150.79 687.534 147.119C687.557 146.825 687.524 146.545 687.452 146.273C691.264 143.685 694.972 140.957 698.519 138.024C698.619 141.724 698.719 145.424 698.812 149.116C698.863 150.878 699.051 152.72 698.754 154.464C698.515 155.854 697.788 156.955 696.92 158.031C695.076 160.316 692.959 162.642 693.114 165.789C693.262 168.85 696.063 171.238 699.113 170.066C700.851 169.394 702.086 167.851 702.549 166.076C703.057 164.134 702.594 162.128 702.159 160.218C702.013 159.597 701.441 159.187 700.818 159.05C701.535 157.962 702.099 156.8 702.376 155.494C702.792 153.557 702.62 151.498 702.569 149.53C702.467 145.554 702.356 141.585 702.253 137.61C702.23 136.653 701.624 136.137 700.91 135.999C709.244 128.69 716.35 120.059 720.736 109.8C725.43 98.8211 727.161 86.6664 726.211 74.7908L726.205 74.782ZM651.26 127.644C651.693 127.571 652.044 127.399 652.317 127.16C654.579 127.917 654.229 131.489 651.726 131.549C649.338 131.607 648.831 128.053 651.26 127.644ZM698.684 161.716C698.974 162.959 699.376 164.633 698.696 165.767C698.478 166.123 698.02 166.588 697.573 166.613C697.296 166.631 697.356 166.634 697.123 166.492C697.343 166.624 696.994 166.278 697.076 166.415C696.223 164.955 697.445 163.197 698.684 161.716ZM718.769 104.561C714.979 115.104 708.405 124.077 700.201 131.631C692.126 139.063 682.786 145.037 673.474 150.779C673.293 150.891 673.113 151.003 672.932 151.114C672.872 142.748 670.659 134.613 667.721 126.772C664.336 117.751 660.106 109.055 657.164 99.864C656.288 97.1191 655.534 94.3281 654.976 91.5045C654.965 91.3576 654.939 91.208 654.896 91.0705C654.586 89.4356 654.346 87.7908 654.184 86.1374C653.637 80.3882 654.161 74.6143 655.698 69.0488C657.169 63.7227 659.657 58.7124 662.844 54.2114C665.763 50.0883 669.15 46.3252 672.598 42.6421C679.54 35.2383 686.979 27.994 691.649 18.8476C691.983 18.1921 692.294 17.5325 692.592 16.8629C699.936 23.8646 706.368 31.8121 711.438 40.6158C716.798 49.9222 720.586 60.2366 722.023 70.9057C723.538 82.1455 722.622 93.8472 718.771 104.554L718.769 104.561Z" fill="white"/>
<path d="M678.993 56.3232C681.517 55.1539 683.279 53.022 684.92 50.845C685.513 50.0617 685.551 48.8565 684.718 48.2009C683.959 47.6044 682.708 47.5659 682.075 48.4028C681.411 49.2799 680.739 50.1631 679.989 50.971C679.8 51.1726 679.612 51.3669 679.416 51.5598C679.397 51.5792 679.279 51.6871 679.222 51.7454C679.15 51.8083 679.041 51.9027 679.042 51.8954C678.621 52.2376 678.182 52.5154 677.719 52.7965C677.579 52.8546 677.445 52.9215 677.298 52.971C677.06 53.0646 676.819 53.1347 676.577 53.2048C676.436 53.2248 676.294 53.2521 676.153 53.2721C675.927 53.2993 675.704 53.3117 675.475 53.3155C675.429 53.3148 675.391 53.3154 675.36 53.3173C675.264 53.2998 675.117 53.2728 675.087 53.2674C674.969 53.2458 674.844 53.2228 674.726 53.2012C674.711 53.1985 674.546 53.1453 674.481 53.1258C674.432 53.1016 674.389 53.0861 674.368 53.0747C674.256 53.0236 674.151 52.9738 674.041 52.9079C674.02 52.8965 674.006 52.8864 673.986 52.875C673.88 52.787 673.773 52.7064 673.668 52.611C672.934 51.9582 671.642 52.0264 671.025 52.813C670.388 53.6264 670.44 54.7566 671.227 55.4571C673.317 57.3188 676.514 57.4623 678.987 56.3144L678.993 56.3232ZM677.736 52.7844C677.862 52.7235 677.83 52.7329 677.736 52.7844ZM676.57 53.2035C676.436 53.2248 676.385 53.2536 676.57 53.2035ZM673.978 52.8737C673.868 52.8078 673.865 52.7843 673.978 52.8737Z" fill="white"/>
<path d="M678.696 66.5989C678.696 66.5989 678.698 66.5914 678.699 66.584C678.71 66.6477 678.714 66.6714 678.712 66.6788C678.709 66.6551 678.707 66.624 678.696 66.5989Z" fill="white"/>
<path d="M677.469 59.2385C676.716 58.6051 675.461 58.6344 674.825 59.4404C674.807 59.4598 674.794 59.488 674.782 59.5088C674.695 59.6146 674.604 59.7352 674.534 59.8673C673.897 61.0543 673.261 62.2413 672.624 63.4283C672.035 64.5248 671.388 65.6031 670.875 66.7366C670.269 68.0893 670.073 69.578 670.85 70.9096C671.5 72.0197 672.647 72.5805 673.84 72.9361C675.943 73.5577 678.616 73.445 680.384 72.0307C682.438 70.3867 682.882 67.6703 682.2 65.2356C681.495 62.7203 679.389 60.8632 677.46 59.2445L677.469 59.2385ZM674.056 68.9659C673.991 68.8625 673.953 68.8631 674.056 68.9659ZM678.442 68.6943C678.569 68.5422 678.502 68.5757 678.442 68.6943ZM678.671 68.1949C678.671 68.1949 678.669 68.2023 678.668 68.2097C678.638 68.2881 678.609 68.3666 678.572 68.4436C678.533 68.5281 678.48 68.6099 678.442 68.6943C678.382 68.7747 678.306 68.8524 678.246 68.9328C678.236 68.9462 678.218 68.9583 678.2 68.9777C678.076 69.0694 677.947 69.1525 677.824 69.2368C677.759 69.2629 677.692 69.2963 677.619 69.3211C677.521 69.3565 677.424 69.3845 677.326 69.42C677.301 69.4307 677.294 69.4293 677.278 69.434C677.278 69.434 677.278 69.434 677.27 69.4326C676.92 69.4751 676.573 69.4955 676.219 69.5145C676.167 69.505 675.968 69.5142 675.87 69.504C675.632 69.4755 675.394 69.4397 675.166 69.3978C674.996 69.3668 674.821 69.327 674.654 69.2812C674.632 69.2771 674.617 69.2744 674.595 69.2704C674.558 69.2636 674.524 69.2421 674.496 69.2293C674.364 69.1594 673.92 68.8799 674.259 69.1479C674.206 69.1076 674.145 69.0659 674.092 69.0182C674.079 69.0082 674.08 69.0008 674.067 68.9907C674.076 68.9391 674.072 68.8774 674.078 68.8479C674.083 68.8184 674.089 68.7889 674.094 68.7594C674.09 68.7815 674.094 68.7594 674.114 68.6487L674.112 68.6635C674.116 68.6413 674.12 68.6192 674.124 68.5971C674.12 68.6192 674.118 68.6266 674.116 68.6413C674.12 68.6192 674.122 68.6045 674.132 68.5911C674.225 68.3792 674.317 68.1674 674.422 67.9657C675.163 66.5005 675.947 65.0507 676.737 63.6098C676.82 63.6937 676.913 63.7716 676.996 63.8555C677.112 63.9757 677.234 64.0973 677.342 64.2161C677.372 64.2598 677.61 64.5397 677.64 64.5834C677.906 64.9217 678.13 65.2828 678.344 65.65C678.343 65.6573 678.343 65.6573 678.348 65.6734C678.383 65.7714 678.435 65.8647 678.47 65.9626C678.537 66.1351 678.589 66.3122 678.648 66.4907C678.652 66.5068 678.662 66.539 678.665 66.5625C678.662 66.539 678.658 66.5155 678.649 66.4833C678.651 66.5142 678.66 66.5464 678.662 66.5772C678.669 66.6242 678.678 66.6564 678.678 66.6564C678.674 66.6785 678.686 66.696 678.689 66.7195C678.721 66.9616 678.731 67.1997 678.748 67.4392C678.745 67.4539 678.741 67.476 678.746 67.4922C678.75 67.47 678.754 67.4479 678.761 67.411C678.756 67.4405 678.749 67.4774 678.751 67.5083C678.741 67.5599 678.738 67.6202 678.741 67.6055C678.738 67.6202 678.736 67.6276 678.734 67.6424C678.709 67.8207 678.669 67.9964 678.635 68.1808L678.671 68.1949Z" fill="white"/>
<path d="M678.785 67.5294C678.785 67.5294 678.786 67.522 678.788 67.5146C678.774 67.5884 678.775 67.6266 678.775 67.6266C678.78 67.5971 678.787 67.5603 678.785 67.5294Z" fill="white"/>
<path d="M691.095 59.4011C688.386 59.9645 686.304 62.0075 685.63 64.6894C685.387 65.6435 686.176 66.7411 687.136 66.871C688.198 67.0199 689.061 66.3852 689.317 65.3647C689.319 65.3499 689.339 65.2849 689.359 65.2199C689.365 65.183 689.387 65.1488 689.391 65.1267C689.472 64.9356 689.56 64.7459 689.661 64.5663C689.685 64.5174 689.717 64.4698 689.749 64.4222C689.796 64.37 689.844 64.3177 689.847 64.303C689.975 64.1435 690.118 63.9867 690.26 63.8374C690.288 63.8045 690.316 63.7791 690.333 63.767C690.394 63.7248 690.456 63.6827 690.473 63.6706C690.64 63.5488 690.811 63.4504 690.984 63.3373C691.092 63.2884 691.191 63.2456 691.305 63.2055C691.379 63.1734 691.46 63.1501 691.54 63.1267C691.597 63.1066 691.662 63.0879 691.717 63.0753C691.854 63.0392 691.798 63.0519 691.544 63.1046C691.628 63.0208 692.046 63.0287 692.177 63.0222C692.277 63.0176 692.375 63.0204 692.475 63.0158C692.676 63.0449 692.87 63.0653 693.068 63.1091C693.164 63.1267 693.257 63.159 693.353 63.1765C693.545 63.2499 693.729 63.3293 693.909 63.4234C693.944 63.4449 694.012 63.4879 694.08 63.5309C694.049 63.4946 694.057 63.4886 694.206 63.5921C694.206 63.5921 694.206 63.5921 694.214 63.5934C694.221 63.5948 694.236 63.5975 694.243 63.5988C694.243 63.5988 694.228 63.5961 694.221 63.5948C694.389 63.7171 694.54 63.8514 694.689 63.9931C694.741 64.0408 694.774 64.0696 694.795 64.0811C694.844 64.1435 694.885 64.212 694.915 64.2556C695.512 65.0357 696.686 65.3651 697.525 64.7337C698.304 64.1444 698.635 62.9624 698.004 62.1226C696.426 60.0422 693.703 58.8497 691.096 59.3938L691.095 59.4011ZM689.663 64.5589C689.663 64.5589 689.689 64.4953 689.737 64.443C689.716 64.4772 689.694 64.5114 689.663 64.5589Z" fill="white"/>
<path d="M694.08 63.5308C694.08 63.5308 694.161 63.5912 694.22 63.602C694.183 63.5953 694.135 63.5637 694.088 63.5321L694.08 63.5308Z" fill="white"/>
<path d="M701.999 42.8891C701.015 43.0214 700.171 43.8808 700.293 44.9246C700.306 45.0185 700.303 45.1171 700.315 45.2183C700.302 45.2921 700.288 45.3659 700.275 45.4396C700.275 45.4396 700.275 45.4396 700.272 45.4544C700.205 45.6099 700.131 45.7641 700.05 45.9169C699.992 45.9825 699.942 46.0495 699.884 46.1152C699.816 46.1942 699.734 46.2706 699.666 46.3497C699.489 46.4849 699.313 46.6128 699.124 46.7306C699.097 46.7487 698.982 46.7962 698.922 46.831C698.915 46.8296 698.897 46.8417 698.889 46.8477C698.69 46.9333 698.49 46.988 698.295 47.0515C698.186 47.0621 698.084 47.0814 697.975 47.092C697.711 47.1199 697.444 47.1242 697.177 47.1212C697.163 47.1185 697.148 47.1158 697.126 47.1118C696.984 47.0935 696.849 47.0839 696.709 47.0583C696.427 47.0143 696.148 46.9556 695.877 46.8983C695.629 46.8376 695.382 46.7696 695.13 46.6928C695.1 46.6874 695.085 46.6847 695.071 46.682C695.056 46.6793 695.056 46.6793 695.035 46.6679C694.901 46.6127 694.763 46.5723 694.627 46.5245C694.084 46.326 693.553 46.1067 693.023 45.88C692.124 45.502 690.937 45.7875 690.516 46.7548C690.131 47.645 690.42 48.8566 691.39 49.2629C694.016 50.3614 696.94 51.4536 699.786 50.5188C702.259 49.7063 704.338 47.3045 704.026 44.5945C703.915 43.6212 703.014 42.7549 701.992 42.8878L701.999 42.8891Z" fill="white"/>
<path d="M709.032 113.664C708.999 113.635 708.964 113.621 708.931 113.592C709.141 113.234 709.323 112.863 709.485 112.481C710.182 110.84 710.535 109.076 710.913 107.346C711.344 105.366 711.761 103.384 712.156 101.391C713.064 96.8078 713.868 92.2133 714.569 87.5925C714.929 85.2113 711.244 84.5287 710.883 86.9172C710.186 91.4703 709.399 96.0146 708.504 100.531C708.065 102.761 707.596 104.985 707.106 107.205C706.744 108.846 706.447 110.675 705.466 112.081C704.503 113.467 702.874 113.916 701.376 114.48C699.64 115.138 697.986 115.971 696.879 117.521C695.856 118.95 695.282 120.835 696.008 122.53C696.819 124.425 698.815 125.385 700.815 125.202C703.153 124.998 704.85 123.349 706.029 121.446C707.101 119.714 707.696 117.711 709.241 116.309C709.99 115.631 709.745 114.267 709.039 113.665L709.032 113.664ZM703.517 118.226C702.952 119.358 702.211 120.991 700.882 121.38C700.487 121.498 699.963 121.532 699.659 121.316C699.39 121.122 699.404 120.919 699.454 120.646C699.676 119.52 700.838 118.75 701.871 118.314C702.531 118.038 703.207 117.796 703.872 117.537C703.754 117.767 703.643 117.998 703.525 118.228L703.517 118.226Z" fill="white"/>
<path d="M265.867 49.4902C264.749 49.2124 263.649 48.819 262.618 48.2587C255.335 44.3178 252.35 35.7099 255.494 28.547C257.314 24.3945 260.853 21.1255 265.137 19.2355C265.772 18.9593 266.343 18.986 266.814 19.2004C269.997 11.8405 275.201 5.32499 281.104 -0.274715C284.806 -3.78956 288.792 -7.0421 292.859 -10.181C294.76 -11.6437 296.74 -13.0354 298.602 -14.5378C298.614 -14.5529 298.622 -14.5516 298.632 -14.5586C298.654 -14.5807 298.675 -14.6028 298.708 -14.6402C298.794 -14.737 298.888 -14.8242 298.975 -14.921C299.22 -15.1797 299.451 -15.4576 299.68 -15.7272C300.185 -16.3355 300.675 -16.9629 301.172 -17.5808C302.85 -19.6514 306.012 -23.222 308.935 -20.4852C309.534 -19.9223 309.928 -19.1958 310.503 -18.5941C311.155 -17.905 311.918 -17.3004 312.666 -16.715C314.233 -15.4744 315.873 -14.3073 317.301 -12.9187C319.025 -11.2321 320.441 -9.22871 321.832 -7.29665C323.192 -5.40292 324.481 -3.45236 325.684 -1.46413C328.191 2.67125 330.388 6.95432 332.192 11.398C333.058 13.5299 333.829 15.6983 334.526 17.8808C334.866 18.9707 334.5 20.1489 333.31 20.5867C332.283 20.9644 330.763 20.491 330.416 19.3915C327.733 10.9221 323.745 2.82243 318.497 -4.54601C317.257 -6.28645 315.998 -8.0804 314.546 -9.66687C313.319 -11.0085 311.734 -12.066 310.294 -13.1946C308.877 -14.2944 307.464 -15.4781 306.361 -16.8769C306.35 -16.8617 306.341 -16.863 306.33 -16.8478C305.304 -15.8196 304.437 -14.6576 303.531 -13.5352C302.549 -12.323 301.479 -11.3096 300.213 -10.3597C296.402 -7.49474 292.607 -4.6106 288.972 -1.54178C281.95 4.38804 275.504 11.2069 271.578 19.3842C267.614 27.6402 267.103 36.5419 269.274 45.4243C269.296 45.5204 269.327 45.6096 269.35 45.6975C269.959 45.713 270.575 45.679 271.193 45.5775C274.148 45.1178 276.887 43.401 278.172 40.8321C278.313 40.5493 278.5 40.324 278.716 40.1452C277.814 39.089 277.29 37.7265 277.136 36.4195C276.91 34.3922 277.562 32.3871 279.201 31.0539C280.665 29.8634 283.131 29.4315 284.905 30.3654C286.75 27.1206 288.595 23.8758 290.44 20.6309C288.928 19.7449 287.584 18.58 286.515 17.203C283.276 13.0336 282.816 7.29708 285.944 3.05407C289.873 -2.27628 297.552 -2.10217 303.681 -1.25698C304.588 -1.12916 305.154 -0.647147 305.421 -0.0326348C305.706 0.0440028 305.974 0.177138 306.204 0.380648C309.905 3.63118 311.656 8.66657 310.399 13.2666C309.129 17.8902 305.165 21.2306 300.289 22.2715C302.286 22.504 304.211 23.2747 305.676 24.6521C308.058 26.8682 309.254 30.2153 308.417 33.2738C308.124 34.3278 307.175 35.2578 305.909 35.0085C304.835 34.7964 303.708 33.7402 304.021 32.6132C304.1 32.3294 304.161 32.043 304.204 31.7539C304.223 31.63 304.24 31.5143 304.241 31.3878C304.246 31.3548 304.253 31.3135 304.249 31.2791C304.24 31.0412 304.223 30.7938 304.196 30.5532C304.173 30.4062 304.15 30.2592 304.117 30.1191C304.12 30.1026 304.106 30.0752 304.103 30.0325C304.086 29.9708 304.045 29.8211 304.033 29.7854C303.982 29.6427 303.93 29.5082 303.871 29.3642C303.778 29.1474 303.681 28.8963 303.541 28.6895C303.517 28.669 303.503 28.6416 303.467 28.5855C303.393 28.4814 303.318 28.3773 303.243 28.2815C303.153 28.1583 303.054 28.042 302.953 27.934C302.899 27.8751 302.854 27.8177 302.799 27.7671C302.691 27.6495 302.73 27.6891 302.924 27.8874C302.802 27.6832 302.448 27.4695 302.253 27.3304C302.147 27.2554 302.033 27.1791 301.919 27.1027C301.902 27.0918 301.894 27.0905 301.886 27.0809C301.877 27.0796 301.868 27.0783 301.861 27.0687C301.593 26.9356 301.324 26.8107 301.053 26.7023C300.908 26.6469 300.754 26.5983 300.609 26.5428C300.297 26.4704 299.983 26.4064 299.655 26.374C299.523 26.3542 299.38 26.3496 299.247 26.338C299.105 26.3251 299.045 26.3076 299.045 26.3076C298.792 26.3119 298.457 26.3883 298.301 26.4071C298.163 26.4286 297.94 26.4203 297.822 26.4871C297.906 26.4659 297.98 26.4517 298.064 26.4306C297.961 26.4573 297.858 26.4841 297.754 26.5191C296.655 26.8354 295.283 26.4518 294.859 25.3239C294.48 24.3209 294.892 22.9553 296.075 22.618C296.169 22.5899 296.27 22.5796 296.373 22.5529C295.591 22.4862 294.828 22.363 294.074 22.1737C291.912 25.9706 289.751 29.7675 287.596 33.5741C287.487 33.7604 287.355 33.9263 287.198 34.0716C287.143 34.1985 287.078 34.3323 286.995 34.4635L286.993 34.48C287.192 34.1721 287.035 34.4357 286.98 34.5626C286.919 34.8491 286.895 35.1325 286.878 35.4256C286.898 36.1888 286.964 36.9421 286.904 37.7016C286.838 38.5617 286.576 39.4091 286.106 40.1409C285.519 41.0578 284.652 41.6793 283.535 41.9338C283.171 42.0226 282.8 42.0428 282.432 42.0382C282.404 42.2199 282.349 42.4059 282.248 42.6019C280.107 46.858 275.447 49.5109 270.573 49.8848C273.047 57.225 276.999 64.1283 281.147 70.7484C283.386 74.3284 285.623 77.9332 288.048 81.4144C289.209 83.0838 290.439 84.7047 291.749 86.2783C291.901 86.4616 292.598 87.2083 293.143 87.8307C293.238 87.7352 293.364 87.6189 293.406 87.5746C293.916 87.0516 294.377 86.4959 294.822 85.9292C295.69 84.8181 296.219 84.0529 296.798 83.0082C296.997 82.6411 297.141 82.2235 297.349 81.8577C297.367 81.7338 297.404 81.6126 297.424 81.4804C297.513 81.004 297.619 80.5385 297.744 80.0673C298.203 78.2697 298.8 76.5096 299.558 74.816C305.568 61.4449 319.363 53.1545 326.121 40.2505C326.94 38.6927 327.621 37.0889 328.185 35.4337C328.543 34.3642 330.087 33.9627 331.109 34.3951C332.301 34.9035 332.625 36.0926 332.266 37.1703C331.928 38.1585 331.55 39.1236 331.119 40.0725C334.948 43.072 335.787 48.5531 333.27 52.6176C330.099 57.7494 323.873 59.694 317.784 59.6573C317.353 59.6517 316.925 59.5704 316.554 59.4049C312.232 64.0005 307.854 68.6638 304.848 74.1329C303.955 75.7641 303.18 77.455 302.591 79.2164C302.105 80.6552 301.979 82.2157 301.425 83.6274C300.466 86.0595 298.623 88.5107 296.751 90.3831C295.83 91.3089 294.723 92.3335 293.311 92.5183C291.035 92.8266 289.662 90.475 288.45 89.0259C287.467 87.8561 286.559 86.6555 285.664 85.4314C285.483 90.4045 284.68 95.3937 282.013 99.6806C279.951 102.994 276.922 105.858 273.22 107.405C273.816 108.162 274.288 109.027 274.534 109.968C275.297 112.844 273.942 116.12 271.237 117.606C268.472 119.133 265.043 118.922 262.496 116.968C260.223 115.224 258.981 112.36 259.734 109.686C260.587 106.639 263.62 104.164 267.063 104.225C267.403 104.234 267.727 104.291 268.036 104.388C272.466 103.922 276.157 101.022 278.255 97.4097C281.215 92.3054 281.402 86.2183 281.274 80.4893C281.263 80.0823 281.35 79.6815 281.519 79.3353C281.44 79.2051 281.351 79.0819 281.271 78.9517C278.918 75.2871 276.559 71.6047 274.346 67.843C274.072 68.8322 273.617 69.7689 272.873 70.5863C271.808 71.7523 270.205 72.6094 268.551 72.7915C268.594 75.6698 268.314 78.5502 267.659 81.3572C267.006 84.1477 266.02 88.1973 262.391 88.6571C260.392 88.9142 258.507 87.82 257.508 86.2088C256.583 84.7098 256.322 82.9138 256.08 81.2388C255.565 77.7238 255.714 73.9791 257.83 70.9692C259.772 68.212 263.535 66.328 267.095 67.2261C267.822 67.4114 268.443 67.8257 268.769 68.4069C269.138 68.2258 269.48 67.9225 269.751 67.4986C270.662 66.0392 270.244 63.9155 270.034 62.3214C269.95 61.6837 270.144 61.1723 270.487 60.8016C269.11 58.0607 267.857 55.271 266.824 52.3959C266.482 51.4408 266.169 50.4731 265.865 49.5067L265.867 49.4902ZM306.937 -17.2972C306.937 -17.2972 306.961 -17.2767 306.95 -17.2615C306.971 -17.2837 307.004 -17.321 307.076 -17.3861C307.035 -17.3501 306.986 -17.3236 306.936 -17.2889L306.937 -17.2972ZM305.819 -17.575C305.819 -17.575 305.804 -17.5942 305.805 -17.6024C305.675 -17.8753 305.726 -17.6735 305.819 -17.575ZM297.509 18.2217C300.864 18.0924 304.116 16.3091 305.466 13.3699C306.872 10.2956 306.065 6.21302 303.316 3.80659C303.07 3.59217 302.873 3.34307 302.733 3.07711C298.742 2.53644 293.995 2.05957 290.743 4.67905C288.012 6.87857 287.883 10.8459 289.576 13.7017C291.174 16.4082 294.28 18.353 297.516 18.2313L297.509 18.2217ZM281.529 35.6607C281.546 35.9673 281.589 36.2779 281.643 36.5815C281.668 36.6529 281.693 36.7243 281.718 36.7956C281.79 36.9753 281.862 37.1551 281.953 37.3292C281.987 37.4019 282.031 37.4676 282.065 37.5403C282.045 37.495 282.031 37.4676 282.018 37.4319C282.026 37.4415 282.032 37.4594 282.04 37.4689C282.084 37.5347 282.138 37.5935 282.182 37.6592C282.189 37.6688 282.213 37.6893 282.236 37.718C282.26 37.7385 282.284 37.759 282.3 37.7699C282.309 37.7712 282.333 37.7917 282.357 37.8122C282.37 37.7805 282.385 37.7405 282.4 37.7005C282.461 37.4141 282.496 37.1237 282.512 36.8389C282.494 36.1183 282.45 35.3937 282.478 34.6715C282.489 34.4789 282.516 34.2972 282.554 34.1085C282.448 34.1518 282.335 34.1855 282.23 34.2288C282.2 34.2496 282.161 34.2691 282.131 34.2899C282.111 34.3038 282.101 34.3107 282.081 34.3246C282.013 34.4158 281.881 34.5143 281.826 34.582C281.802 34.6207 281.779 34.6593 281.755 34.698C281.704 34.8001 281.669 34.9131 281.625 35.0247C281.575 35.2368 281.543 35.4516 281.528 35.669L281.529 35.6607ZM281.817 34.5807C281.817 34.5807 281.817 34.5807 281.816 34.5889C281.65 34.8004 281.746 34.6967 281.817 34.5807ZM281.817 34.5807C281.817 34.5807 281.855 34.5103 281.867 34.4868C281.862 34.5199 281.84 34.5503 281.817 34.5807ZM286.971 34.5021C286.971 34.5021 286.934 34.5725 286.911 34.6029C286.935 34.5643 286.946 34.5491 286.969 34.5187C286.969 34.5187 286.971 34.5021 286.973 34.4939L286.971 34.5021ZM328.993 51.1132C330.09 49.6734 330.506 47.9791 330.188 46.3265C330.027 45.483 329.621 44.6617 329.057 43.9857C326.637 48.0648 323.523 51.7948 320.303 55.3396C323.686 54.9612 326.932 53.8189 328.993 51.1132ZM293.762 88.6163C293.762 88.6163 293.785 88.6451 293.783 88.6533C293.786 88.6368 293.778 88.6272 293.762 88.6163ZM292.374 88.4585C292.374 88.4585 292.357 88.4558 292.348 88.4545C292.181 88.6068 292.273 88.5361 292.374 88.4585ZM266.591 114.425C268.267 114.82 269.896 113.671 270.233 112.142C270.623 110.385 269.234 108.859 267.413 108.594C267.22 108.564 267.048 108.513 266.878 108.446C265.481 108.649 264.29 109.518 263.973 110.906C263.616 112.449 265.018 114.062 266.59 114.433L266.591 114.425ZM261.06 74.0645C259.712 76.7506 260.114 80.3584 260.902 83.1882C260.994 83.5315 261.151 84.2814 261.562 84.4783C261.747 84.5652 261.675 84.5629 261.878 84.3485C262.702 83.4755 262.94 82.0079 263.196 80.9061C263.941 77.8001 264.228 74.6336 264.051 71.448C262.757 71.8617 261.665 72.8463 261.049 74.0714L261.06 74.0645ZM258.946 37.3431C259.717 40.4068 261.814 43.0194 264.56 44.4878C263.16 37.7146 263.113 30.79 265.045 24.0952C260.487 26.907 257.625 32.1359 258.937 37.3418L258.946 37.3431Z" fill="white"/>
<path d="M313.169 13.2607C313.736 13.3713 314.299 13.6333 314.634 14.0975C314.969 14.5617 315.14 15.0943 315.056 15.6559L314.701 18.0182C314.668 18.3004 314.565 18.5637 314.388 18.7821C314.262 19.0249 314.079 19.2255 313.832 19.3742C313.6 19.542 313.349 19.6564 313.064 19.698C312.781 19.7905 312.491 19.8061 312.193 19.7529C311.625 19.6422 311.062 19.3803 310.727 18.9161C310.393 18.4519 310.221 17.9193 310.305 17.3576L310.66 14.9953C310.694 14.7132 310.796 14.4499 310.973 14.2315C311.099 13.9886 311.282 13.7881 311.529 13.6394C311.761 13.4715 312.012 13.3572 312.297 13.3156C312.581 13.2231 312.871 13.2075 313.169 13.2607Z" fill="white"/>
<path d="M282.018 37.4316C281.878 37.1158 281.932 37.2923 282.018 37.4316Z" fill="white"/>
<path d="M318.042 3.20678C318.37 2.81691 318.958 2.49145 319.494 2.45376C320.076 2.41442 320.704 2.54258 321.16 2.91524C321.584 3.2661 321.95 3.76034 321.986 4.29788C322.038 5.09115 321.924 5.91019 321.498 6.58949C321.355 6.82143 321.211 7.06163 321.036 7.27176C320.85 7.48884 320.625 7.67453 320.408 7.86154C320.108 8.12058 319.739 8.30165 319.372 8.47446C319.004 8.64727 318.577 8.73517 318.183 8.78574C317.881 8.82473 317.569 8.80327 317.275 8.78445C317.151 8.77422 317.027 8.76398 316.905 8.73723C316.513 8.65299 316.08 8.54564 315.713 8.35535C315.353 8.17464 314.98 7.96651 314.688 7.69462C314.198 7.24927 313.902 6.88387 313.591 6.32189C313.377 5.95187 313.262 5.52072 313.198 5.10575C313.117 4.56986 313.308 3.95665 313.658 3.54464C313.986 3.15476 314.574 2.8293 315.11 2.79162C315.692 2.75227 316.32 2.88044 316.776 3.2531C317.167 3.58215 317.43 3.98488 317.558 4.45171C317.555 4.46823 317.572 4.47914 317.578 4.49698C317.583 4.46394 317.589 4.42264 317.594 4.3896C317.624 3.9548 317.748 3.5428 318.054 3.18333L318.042 3.20678Z" fill="white"/>
<path d="M297.843 9.47949C297.902 9.32784 297.952 9.17486 298.002 9.02189C298.008 8.98059 298.09 8.73115 298.124 8.62641C298.159 8.51342 298.198 8.37564 298.201 8.35086C298.242 8.19657 298.284 8.04227 298.317 7.8784C298.49 7.14427 298.62 6.40353 298.723 5.65883C298.866 4.52327 300.138 3.59945 301.361 3.83397C302.629 4.0751 303.504 5.12735 303.347 6.35376C302.95 9.47001 301.897 12.5298 300.225 15.2262C299.905 15.7357 299.574 16.142 298.966 16.3631C298.433 16.5617 297.686 16.5677 297.158 16.311C296.126 15.8181 295.298 14.452 295.95 13.4013C296.721 12.1573 297.359 10.8427 297.853 9.47255L297.843 9.47949Z" fill="white"/>
</g>
<defs>
<clipPath id="clip0_105_5">
<rect width="1331" height="101" fill="white"/>
</clipPath>
<clipPath id="clip1_105_5">
<rect width="125" height="121" fill="white" transform="translate(22 -11)"/>
</clipPath>
<clipPath id="clip2_105_5">
<rect width="126.986" height="133.29" fill="white" transform="matrix(-0.714398 -0.699739 -0.699739 0.714398 476.998 102.172)"/>
</clipPath>
<clipPath id="clip3_105_5">
<rect width="128.509" height="123.92" fill="white" transform="translate(554.868 -57) rotate(4.10351)"/>
</clipPath>
</defs>
</svg>
