<svg width="260" height="324" viewBox="0 0 260 324" fill="none" xmlns="http://www.w3.org/2000/svg">
<path d="M213.047 154.231C213.162 156.69 213.392 159.092 213.392 161.551C213.392 217.193 182.162 265.286 136.84 288.046C91.5184 265.286 60.2878 217.193 60.2878 161.551C60.2878 105.908 91.4609 57.8149 136.783 35.0549C152.829 43.1181 167.035 54.3838 178.826 67.9941C181.759 66.3357 184.693 64.6773 187.568 62.9045C192.515 59.8736 197.231 56.4425 202.005 53.1829C184.865 30.7659 162.549 12.4091 136.783 -0.000244141C76.392 29.1075 34.6937 90.6398 34.6937 161.951C34.6937 233.262 76.3344 294.794 136.783 323.959C197.231 294.794 238.872 233.262 238.872 161.951C238.872 156.061 238.527 150.228 237.951 144.452C229.267 146.739 221.157 150.514 212.99 154.231H213.047Z" fill="white"/>
<path d="M176.985 190.085L173.304 161.721C195.62 158.862 217.476 151.085 236.571 139.304L251.755 163.551C229.209 177.505 203.327 186.711 176.985 190.085Z" fill="white"/>
<path d="M227.829 118.545C203.615 135.587 150.299 158.747 125.855 132.156L136.495 129.525C131.951 136.33 123.612 141.191 115.56 139.19L115.272 137.474C122.346 132.384 124.014 124.378 124.647 116.601C134.079 121.348 144.547 125.065 154.785 127.352C178.768 132.099 204.19 125.122 226.966 117.059L227.771 118.545H227.829Z" fill="white"/>
<path d="M55.6865 70.452C40.2725 72.9682 21.9253 80.5739 19.7397 97.2723C20.7175 104.363 30.5525 110.883 37.6844 115.114L16.0012 130.726C-20.2332 94.4702 10.3073 61.7025 55.4565 66.163L55.6865 70.452Z" fill="white"/>
<path d="M92.0359 166.639C112.971 198.148 142.074 223.482 177.1 238.808C198.266 246.757 222.48 258.651 245.141 252.933C255.148 250.359 252.618 241.781 249.109 234.118C247.096 229.944 244.508 225.884 241.632 222.224L246.751 217.992C250.144 221.995 253.078 226.227 255.551 230.916C261.705 242.182 263.258 255.849 248.419 261.167C233.35 267.687 216.153 263.97 201.199 261.453C191.192 259.566 181.184 257.05 171.349 254.019C131.434 241.724 95.5443 216.505 67.9947 185.224L92.0359 166.639Z" fill="white"/>
<path d="M157.143 106.365C162.829 106.365 167.438 101.782 167.438 96.1284C167.438 90.475 162.829 85.8921 157.143 85.8921C151.457 85.8921 146.848 90.475 146.848 96.1284C146.848 101.782 151.457 106.365 157.143 106.365Z" fill="white"/>
<path d="M187.511 98.187C193.197 98.187 197.806 93.604 197.806 87.9507C197.806 82.2973 193.197 77.7144 187.511 77.7144C181.825 77.7144 177.216 82.2973 177.216 87.9507C177.216 93.604 181.825 98.187 187.511 98.187Z" fill="white"/>
</svg>
