<svg width="178" height="171" viewBox="0 0 178 171" fill="none" xmlns="http://www.w3.org/2000/svg">
<g clip-path="url(#clip0_43_674)">
<path d="M77.559 39.5729C74.6116 37.798 71.9205 42.3986 74.8679 44.1734C83.4397 49.3419 94.7738 48.5468 102.676 42.6115C105.638 46.5163 110.835 48.5326 115.762 47.0701C119.051 46.1045 117.656 40.9502 114.338 41.93C110.992 42.9239 107.119 41.1206 105.994 37.7412C105.368 35.8812 103.004 35.0718 101.537 36.5627C95.3434 42.8529 85.1341 44.1166 77.5733 39.5587L77.559 39.5729Z" fill="#55D4B1"/>
<path d="M93.0937 19.8503C89.6621 19.8503 89.6479 25.175 93.0937 25.175C96.5395 25.175 96.5395 19.8503 93.0937 19.8503Z" fill="#55D4B1"/>
<path d="M102.135 19.8503C98.7038 19.8503 98.6895 25.175 102.135 25.175C105.581 25.175 105.581 19.8503 102.135 19.8503Z" fill="#55D4B1"/>
<path d="M176.505 30.4004C172.489 23.0594 163.348 22.4346 155.93 22.5198C155.702 22.5198 155.474 22.5482 155.275 22.5908C155.175 22.5056 155.075 22.4204 154.961 22.3495C152.27 20.6456 149.266 21.0715 147.002 22.676C146.831 16.0024 146.66 9.32886 146.504 2.65527C146.461 1.22116 145.308 -0.0141602 143.827 -0.0141602C122.582 0.184628 100.754 3.59242 82.1439 13.8442C82.0585 13.7448 81.9731 13.6454 81.8734 13.5602C74.398 7.69596 64.3311 11.1889 57.3968 16.258C53.8086 18.8707 50.8469 22.5766 50.7615 27.1914C50.6903 30.9257 53.0255 34.6601 56.5852 35.8954C53.5238 40.0558 50.9039 44.5427 48.9104 49.3278C43.6136 61.9792 42.9444 76.0505 44.3967 89.5539C44.9805 94.9211 45.7779 100.374 47.0452 105.698C35.5544 107.189 25.0319 112.528 17.0723 120.778C16.873 120.579 16.6452 120.409 16.3889 120.309C15.5773 117.697 14.5236 115.169 13.1851 112.798C11.1063 109.134 6.82037 105.514 2.49175 108.24C-1.69447 110.867 0.0996262 116.22 2.84773 119.159C5.32529 121.814 8.60022 123.731 12.0887 124.739C12.3023 125.719 12.5017 126.713 12.6583 127.707C13.0427 130.249 16.3462 129.936 17.5422 128.346C24.7471 118.69 36.1667 112.187 48.17 110.895C48.2697 110.895 48.3551 110.867 48.4548 110.838C50.5906 117.725 53.7089 124.228 58.422 129.823C59.0343 130.547 60.1449 130.717 61.0135 130.504C67.9336 128.857 74.6258 126.372 80.9479 123.149C73.2304 133.727 67.5064 145.711 64.203 158.405C62.0244 156.034 59.4899 154.046 56.3289 153.109C52.2139 151.874 47.3014 153.265 44.5676 156.602C41.4777 160.393 42.3748 165.604 46.1481 168.572C50.9751 172.363 57.0266 171.057 62.4231 169.353C63.8185 168.913 64.3596 167.706 64.2599 166.57C65.6981 167.322 67.72 166.967 68.1044 165.079C71.6926 147.458 80.0081 131.015 92.2108 117.753C92.7804 117.143 92.9655 116.461 92.9228 115.808C99.0027 111.392 104.542 106.238 109.326 100.416C110.251 99.2945 110.408 97.7468 109.326 96.6534C108.386 95.7021 106.464 95.5459 105.553 96.6534C94.1758 110.498 78.6269 120.437 61.2698 124.952C54.2358 115.936 51.6728 104.179 50.135 93.0895C48.3694 80.2677 48.3409 66.8779 52.5983 54.5247C59.9883 33.0556 79.88 18.3169 100.882 11.5297C113.911 7.32678 127.566 5.72228 141.207 5.4241C141.506 17.2662 141.805 29.094 142.104 40.9361C142.189 44.3581 147.529 44.3723 147.443 40.9361C147.415 40.0132 147.401 39.0902 147.372 38.1673C148.739 39.3742 150.377 40.2545 152.185 40.6521C157.24 41.7596 162.864 38.7494 164.131 33.5668C164.587 31.6925 164.388 29.8608 163.704 28.2137C166.794 28.6965 169.67 29.8324 171.464 32.445C174.483 36.861 171.251 42.6542 168.346 46.2324C162.152 53.8431 153.068 58.6992 143.414 60.2043C137.946 61.0562 132.322 60.6729 127.011 59.1394C123.707 58.188 122.298 63.3281 125.587 64.2794C137.049 67.5878 149.622 65.8414 160.002 60.0481C165.199 57.1515 169.756 53.1899 173.344 48.4474C177.146 43.4067 179.751 36.4066 176.491 30.4288L176.505 30.4004ZM5.75245 112.642C7.46112 112.272 9.18402 116.319 9.89596 118.023C9.36912 117.711 8.85652 117.384 8.3724 117.015C7.80285 116.575 3.98684 113.025 5.73821 112.642H5.75245ZM61.0277 164.184C57.6958 165.235 53.5665 166.754 50.2346 164.894C48.0561 163.673 47.1448 161.203 49.2095 159.428C53.8513 155.395 58.9346 160.138 62.0529 164.071C61.7397 164.042 61.3979 164.071 61.0277 164.199V164.184ZM60.0168 31.5931C59.732 31.3375 59.3902 31.1529 59.0058 31.0819C56.8415 30.6417 55.802 28.5261 56.1865 26.4388C56.7276 23.4712 59.1909 21.3697 61.6257 19.8504C65.7977 17.2378 72.4473 13.9152 77.2885 16.7834C74.7682 18.3879 72.3049 20.1202 69.9412 22.0229C66.353 24.9053 63.0212 28.1143 60.0168 31.6073V31.5931ZM158.977 32.3314C158.336 34.5323 155.859 35.867 153.651 35.4552C151.188 35.0009 149.138 32.7858 148.825 30.3294C148.582 28.4267 150.049 25.5301 152.299 26.95C153.039 27.4185 153.765 27.4611 154.378 27.2481C154.776 27.5747 155.303 27.7877 155.958 27.8303C158.037 27.9723 159.546 30.372 158.977 32.3172V32.3314Z" fill="#55D4B1"/>
<path d="M136.237 71.3647C134.814 71.0382 133.361 71.7907 132.948 73.2248C132.806 73.7218 132.649 74.2188 132.478 74.7015C132.393 74.9429 132.307 75.1843 132.208 75.4257C132.194 75.4825 132.08 75.7381 132.037 75.8375C131.624 76.7462 131.168 77.6266 130.656 78.4785C130.385 78.9187 130.115 79.3589 129.816 79.7706C129.673 79.9836 129.517 80.1966 129.36 80.3954C129.303 80.4806 129.275 80.5232 129.26 80.5516C129.246 80.58 129.218 80.6084 129.161 80.6794C128.477 81.5171 127.765 82.3123 126.996 83.0648C126.626 83.4198 126.242 83.7748 125.857 84.1156C125.658 84.2859 125.459 84.4563 125.259 84.6125C125.174 84.6835 125.088 84.7545 125.003 84.8113C125.003 84.8113 125.003 84.8113 124.989 84.8255C124.163 85.4361 123.294 86.0182 122.397 86.5294C121.956 86.785 121.5 87.0264 121.03 87.2536C120.802 87.3672 120.56 87.4807 120.333 87.5801C120.233 87.6227 120.133 87.6795 120.019 87.7221C119.023 88.1197 117.997 88.4605 116.958 88.7303C115.563 89.0853 114.723 90.633 115.093 92.0103C115.477 93.416 116.972 94.2253 118.382 93.8704C127.751 91.4565 135.454 83.9168 138.103 74.6447C138.487 73.31 137.633 71.6913 136.237 71.3647Z" fill="#55D4B1"/>
</g>
<defs>
<clipPath id="clip0_43_674">
<rect width="178" height="171" fill="white"/>
</clipPath>
</defs>
</svg>
