<svg width="150" height="150" viewBox="0 0 150 150" fill="none" xmlns="http://www.w3.org/2000/svg">
<path d="M145.596 73.7724C145.371 73.5467 145.102 73.3805 144.864 73.1704C144.771 73.0419 144.718 72.8945 144.602 72.7785L118.962 47.0516L134.427 31.5339L144.152 41.2916C144.758 41.903 145.561 42.2103 146.364 42.2103C147.164 42.2103 147.971 41.903 148.577 41.2916C149.802 40.0625 149.802 38.0809 148.577 36.8517L127.687 15.8908L124.705 12.8964C124.705 12.8964 124.702 12.8964 124.702 12.8932L112.771 0.921842C111.543 -0.307281 109.568 -0.307281 108.346 0.921842C107.118 2.15096 107.118 4.13261 108.346 5.36173L118.068 15.1163L102.599 30.634L76.9588 4.90708C74.115 2.04749 70.3307 0.476599 66.3057 0.476599C62.2839 0.476599 58.4995 2.05063 55.6496 4.90708C49.7809 10.8019 49.7809 20.3903 55.6496 26.285C58.4964 29.1446 62.2808 30.7155 66.3057 30.7155C70.3307 30.7155 74.115 29.1415 76.9588 26.2819C79.2337 24.0024 80.6462 21.1114 81.14 17.9853L90.2118 27.0909L8.87493 108.712C8.28431 109.295 7.95931 110.094 7.95931 110.928C7.95931 111.762 8.28744 112.559 8.87493 113.151L20.5873 124.903L0.918743 144.635C-0.306248 145.861 -0.306248 147.849 0.918743 149.075C1.52811 149.686 2.32811 150 3.13123 150C3.93434 150 4.73746 149.686 5.34371 149.075L25.0123 129.343L36.7278 141.095C37.3403 141.707 38.1403 142.014 38.9434 142.014C39.7403 142.014 40.5403 141.707 41.1559 141.095L76.9556 105.168C76.9588 105.168 76.9588 105.168 76.9619 105.165C76.965 105.162 76.965 105.159 76.965 105.159L122.49 59.4745L132.561 69.5803C129.446 70.0757 126.562 71.4961 124.287 73.7756C118.421 79.6672 118.421 89.2619 124.287 95.1535C127.13 98.0069 130.921 99.5809 134.943 99.5809C138.971 99.5809 142.755 98.0069 145.599 95.1535C151.468 89.2619 151.468 79.6641 145.596 73.7724ZM86.6743 86.5277L76.9588 76.77C75.7338 75.544 73.7588 75.544 72.5338 76.77C71.3088 78.0085 71.3088 79.9839 72.5338 81.2099L82.2494 90.9676L74.74 98.4991L65.0245 88.7477C63.7995 87.5154 61.8245 87.5154 60.5995 88.7477C59.3745 89.9799 59.3745 91.9553 60.5995 93.1876L70.3151 102.939L62.8089 110.474L53.0933 100.725C51.8652 99.4931 49.8934 99.4931 48.6652 100.725C47.4403 101.951 47.4403 103.933 48.6652 105.165L58.3839 114.914L50.8746 122.451L41.1559 112.697C39.9309 111.464 37.956 111.464 36.7278 112.697C35.5028 113.935 35.5028 115.911 36.7278 117.137L46.4465 126.891L38.9403 134.423L15.5124 110.919L94.6399 31.5276L118.065 55.0315L86.6743 86.5277ZM122.487 19.5594L129.996 27.094L114.54 42.6117L107.03 35.077L122.487 19.5594ZM72.5307 21.8451C69.2057 25.1845 63.3995 25.1845 60.0777 21.8451C56.6464 18.3992 56.6464 12.7929 60.0777 9.35011C61.7433 7.67575 63.9557 6.76017 66.3057 6.76017C68.6588 6.76017 70.8744 7.68202 72.5307 9.34698C74.1932 11.0151 75.1119 13.235 75.1119 15.5929C75.1119 17.954 74.1932 20.1739 72.5307 21.8451ZM141.171 90.7011C137.84 94.0436 132.04 94.0436 128.708 90.7011C125.283 87.2646 125.283 81.6614 128.708 78.2155C130.374 76.5474 132.59 75.6287 134.94 75.6287C137.296 75.6287 139.505 76.5505 141.171 78.2155C144.605 81.6551 144.605 87.2583 141.171 90.7011Z" fill="#55D4B1" fill-opacity="0.3"/>
</svg>
