<svg width="33" height="28" viewBox="0 0 33 28" fill="none" xmlns="http://www.w3.org/2000/svg">
<path d="M32.874 4.644C30.074 4.98 27.918 6.044 26.406 7.836C24.95 9.572 24.138 11.7 23.97 14.22C24.362 14.052 24.754 13.94 25.146 13.884C25.594 13.772 26.014 13.716 26.406 13.716C28.366 13.716 29.906 14.36 31.026 15.648C32.146 16.936 32.706 18.504 32.706 20.352C32.706 22.424 32.09 24.132 30.858 25.476C29.626 26.764 27.974 27.408 25.902 27.408C23.886 27.408 22.178 26.68 20.778 25.224C19.434 23.768 18.762 21.584 18.762 18.672C18.762 14.584 19.35 11.252 20.526 8.676C21.702 6.1 23.354 4.196 25.482 2.964C27.61 1.676 30.074 0.919998 32.874 0.695997V4.644ZM15.066 4.644C12.266 4.98 10.11 6.044 8.59803 7.836C7.14203 9.572 6.33003 11.7 6.16203 14.22C6.55403 14.052 6.94603 13.94 7.33803 13.884C7.73003 13.772 8.15003 13.716 8.59803 13.716C10.558 13.716 12.098 14.36 13.218 15.648C14.338 16.936 14.898 18.504 14.898 20.352C14.898 22.424 14.282 24.132 13.05 25.476C11.818 26.764 10.138 27.408 8.01003 27.408C5.99403 27.408 4.31403 26.68 2.97003 25.224C1.62603 23.768 0.954031 21.584 0.954031 18.672C0.954031 14.584 1.54203 11.252 2.71803 8.676C3.89403 6.1 5.54603 4.196 7.67403 2.964C9.80203 1.676 12.266 0.919998 15.066 0.695997V4.644Z" fill="#047A6B"/>
</svg>
