<svg width="158" height="155" viewBox="0 0 158 155" fill="none" xmlns="http://www.w3.org/2000/svg">
<path fill-rule="evenodd" clip-rule="evenodd" d="M61.32 88.7755C57.8404 86.4528 54.135 84.4922 50.2619 82.9231C8.14187 98.8124 8.86214 150.098 8.92267 154.408C8.92419 154.516 8.9253 154.595 8.9253 154.643L0.0146292 155C0.0146292 154.989 0.0140377 154.963 0.0130926 154.921C-0.0401745 152.54 -1.21675 99.9519 39.0708 77.9759C-1.21675 55.9999 -0.0401745 3.41184 0.0130926 1.03101C0.0140377 0.988765 0.0146292 0.962329 0.0146292 0.952148H8.9253C8.9253 1.02295 8.92399 1.12971 8.92226 1.27076C8.90204 2.92006 8.82435 9.25842 10.1091 17.642H81.1908V26.5671H11.89C13.1894 31.8028 15.0517 37.3971 17.7183 42.9001H74.1514V51.8253H22.8901C28.913 60.5763 37.5235 68.3927 49.8293 73.2116C92.8169 56.4783 90.8133 3.60261 90.7252 1.30877H99.6359C99.6359 1.31871 99.6364 1.34417 99.6373 1.38471C99.687 3.71747 100.8 56.0054 60.9561 78.1168C62.7541 79.0937 64.5107 80.1484 66.2209 81.2783L61.32 88.7755ZM99.5468 155H90.6361C90.712 149.393 90.294 143.808 89.3963 138.31H18.4597V129.385H87.4977C86.0244 123.787 84.0412 118.319 81.5642 113.052H25.4101V104.127H88.1412V107.752L88.7649 107.429C96.0645 122.209 99.7596 138.512 99.5468 155ZM110.775 75.8198C111.048 75.9339 111.316 76.0566 111.58 76.1876L118.616 69.14V63.6054C117.396 63.2035 116.229 62.6362 115.15 61.9139C112.806 60.3448 110.978 58.1145 109.899 55.5052C108.82 52.8958 108.538 50.0245 109.088 47.2544C109.638 44.4843 110.996 41.9399 112.99 39.9427C114.984 37.9456 117.524 36.5855 120.29 36.0345C123.055 35.4835 125.922 35.7663 128.527 36.8472C131.132 37.928 133.359 39.7583 134.925 42.1067C136.492 44.4551 137.328 47.216 137.328 50.0404C137.328 51.9157 136.959 53.7726 136.243 55.5052C135.526 57.2377 134.476 58.812 133.152 60.138C131.828 61.464 130.257 62.5159 128.527 63.2336C128.198 63.3702 127.864 63.4942 127.526 63.6054V67.537L133.31 68.9834C133.549 68.7007 133.799 68.4269 134.061 68.1628C136.002 66.2067 138.478 64.8717 141.177 64.3272C143.876 63.7827 146.675 64.0532 149.221 65.1043C151.766 66.1555 153.942 67.9399 155.473 70.2315C157.005 72.523 157.822 75.2185 157.823 77.976C157.823 81.6533 156.37 85.1812 153.783 87.7898C151.195 90.3983 147.682 91.8756 144.011 91.8992C141.258 91.9169 138.562 91.1154 136.264 89.5962C133.966 88.0771 132.171 85.9089 131.105 83.3663C130.306 81.4606 129.944 79.409 130.035 77.361L124.392 75.9499L117.833 82.562C118.71 84.4119 119.164 86.4436 119.15 88.5077C119.127 92.0984 117.692 95.5355 115.157 98.0746C112.622 100.614 109.191 102.05 105.606 102.074C102.902 102.092 100.254 101.303 97.9984 99.8097C95.7429 98.3161 93.9817 96.1843 92.9388 93.6855C91.8959 91.1867 91.6184 88.4337 92.1416 85.7765C92.6648 83.1193 93.965 80.678 95.877 78.7629C97.789 76.8478 100.226 75.5454 102.879 75.0213C105.532 74.4973 108.281 74.7752 110.775 75.8198ZM123.071 44.6853C122.014 44.6853 120.98 44.9994 120.101 45.5878C119.221 46.1762 118.536 47.0126 118.132 47.9911C117.727 48.9696 117.621 50.0463 117.827 51.0851C118.034 52.1239 118.543 53.0781 119.29 53.827C120.038 54.5759 120.991 55.0859 122.028 55.2925C123.065 55.4992 124.14 55.3931 125.117 54.9878C126.094 54.5825 126.929 53.8961 127.516 53.0155C128.104 52.1348 128.417 51.0995 128.417 50.0404C128.417 48.6201 127.854 47.258 126.851 46.2537C125.849 45.2495 124.489 44.6853 123.071 44.6853ZM105.606 83.7774C104.668 83.7596 103.747 84.0219 102.958 84.5308C102.17 85.0397 101.551 85.7721 101.18 86.6348C100.809 87.4974 100.702 88.4512 100.874 89.3746C101.046 90.298 101.489 91.1492 102.146 91.8197C102.803 92.4902 103.644 92.9496 104.562 93.1395C105.481 93.3294 106.435 93.2411 107.303 92.8858C108.171 92.5306 108.914 91.9245 109.437 91.1447C109.96 90.365 110.239 89.447 110.24 88.5077C110.251 87.8907 110.14 87.2776 109.913 86.7042C109.685 86.1308 109.346 85.6086 108.914 85.1681C108.483 84.7276 107.968 84.3778 107.4 84.139C106.832 83.9002 106.222 83.7773 105.606 83.7774ZM141.215 73.7765C142.047 73.2382 143.02 72.9602 144.011 72.9779C145.319 73.0013 146.565 73.5382 147.482 74.473C148.399 75.4078 148.912 76.6658 148.912 77.976C148.912 78.9683 148.617 79.9381 148.064 80.7618C147.512 81.5856 146.727 82.226 145.81 82.6016C144.893 82.9771 143.885 83.0707 142.915 82.8705C141.945 82.6703 141.056 82.1854 140.362 81.4774C139.668 80.7695 139.2 79.8706 139.017 78.8952C138.835 77.9199 138.946 76.9123 139.338 76.0007C139.729 75.0891 140.383 74.3148 141.215 73.7765Z" fill="#55D4B1" fill-opacity="0.3"/>
</svg>
