<svg width="183" height="180" viewBox="0 0 183 180" fill="none" xmlns="http://www.w3.org/2000/svg">
<path d="M77.5353 87.2548C66.8429 87.2548 58.1515 78.5634 58.1515 67.871C58.1515 57.1786 66.8429 48.4872 77.5353 48.4872C88.2277 48.4872 96.9191 57.1786 96.9191 67.871C96.9191 78.5634 88.2277 87.2548 77.5353 87.2548ZM77.5353 57.9707C72.0745 57.9707 67.635 62.4102 67.635 67.871C67.635 73.3318 72.0745 77.7713 77.5353 77.7713C82.9961 77.7713 87.4356 73.3318 87.4356 67.871C87.4356 62.4102 82.9961 57.9707 77.5353 57.9707ZM77.5353 135.714C66.8429 135.714 58.1515 127.023 58.1515 116.331C58.1515 105.638 66.8429 96.9467 77.5353 96.9467C88.2277 96.9467 96.9191 105.638 96.9191 116.331C96.9191 127.023 88.2277 135.714 77.5353 135.714ZM77.5353 106.43C72.0745 106.43 67.635 110.87 67.635 116.331C67.635 121.791 72.0745 126.231 77.5353 126.231C82.9961 126.231 87.4356 121.791 87.4356 116.331C87.4356 110.891 82.9961 106.43 77.5353 106.43ZM119.659 109.077C108.966 109.077 100.275 100.386 100.275 89.6934C100.275 79.0011 108.966 70.3096 119.659 70.3096C130.351 70.3096 139.042 79.0011 139.042 89.6934C139.042 100.386 130.351 109.077 119.659 109.077ZM119.659 79.7931C114.198 79.7931 109.758 84.2326 109.758 89.6934C109.758 95.1543 114.198 99.5938 119.659 99.5938C125.119 99.5938 129.559 95.1543 129.559 89.6934C129.559 84.2326 125.119 79.7931 119.659 79.7931Z" fill="#55D4B1" fill-opacity="0.3"/>
<path d="M127.245 179.108C118.158 179.108 110.113 173.648 106.569 165.602C101.275 166.769 95.877 167.374 90.4162 167.374C85.7891 167.374 81.1828 166.936 76.6599 166.103C75.2009 169.208 73.0541 171.959 70.3445 174.127C66.3636 177.337 61.3404 179.108 56.2131 179.108C43.7699 179.108 33.6403 168.979 33.6403 156.536C33.6403 152.305 34.8075 148.219 36.996 144.676C31.5144 139.007 27.0331 132.566 23.6149 125.501C23.2606 125.522 22.9271 125.522 22.5728 125.522C10.1296 125.501 0 115.371 0 102.928C0 92.3814 7.31583 83.3982 17.237 80.9804C17.8623 77.1662 18.8002 73.4145 20.0091 69.7461C14.3399 65.5359 10.8591 58.8037 10.8591 51.6129C10.8591 39.1697 20.9887 29.0401 33.4319 29.0401C38.1841 29.0401 42.8112 30.5616 46.6254 33.3129C53.1075 28.5607 60.1941 24.9549 67.8225 22.5163C68.0101 10.2399 78.0772 0.297852 90.3953 0.297852C102.713 0.297852 112.801 10.219 112.989 22.5163C120.013 24.7465 126.641 28.0188 132.727 32.2499C136.208 30.1656 140.231 29.0401 144.337 29.0401C156.78 29.0401 166.909 39.1697 166.909 51.6129C166.909 57.7407 164.429 63.535 160.115 67.7452C161.636 71.893 162.762 76.1866 163.512 80.5427C174.496 82.0642 183 91.5061 183 102.907C183 115.35 172.87 125.48 160.427 125.48C159.385 125.48 158.343 125.417 157.301 125.271C154.195 131.754 150.193 137.694 145.337 143.03C148.213 146.885 149.818 151.617 149.818 156.515C149.818 168.979 139.689 179.108 127.245 179.108ZM113.406 153.93L114.385 159.037C115.573 165.185 120.972 169.646 127.245 169.646C134.478 169.646 140.356 163.768 140.356 156.536C140.356 152.701 138.688 149.074 135.77 146.573L131.81 143.196L135.541 139.57C141.898 133.379 146.838 126.126 150.214 117.956L151.923 113.829L156.134 115.288C157.509 115.767 158.968 116.017 160.427 116.017C167.66 116.017 173.537 110.14 173.537 102.907C173.537 95.6746 167.66 89.7969 160.427 89.7969C160.198 89.7969 159.948 89.7969 159.656 89.8178L155.196 90.0679L154.675 85.6284C153.966 79.584 152.424 73.6854 150.089 68.0996L148.589 64.5563L151.757 62.3678C155.3 59.9083 157.426 55.8857 157.426 51.5712C157.426 44.3387 151.548 38.4611 144.316 38.4611C141.189 38.4611 138.146 39.5866 135.77 41.65L132.852 44.172L129.788 41.8168C122.889 36.5227 115.136 32.7084 106.778 30.5408L102.547 29.4361L103.297 25.1217C103.443 24.3505 103.505 23.5793 103.505 22.8289C103.505 15.5965 97.6278 9.71881 90.3953 9.71881C83.1629 9.71881 77.2852 15.5965 77.2852 22.8289C77.2852 23.5793 77.3477 24.3505 77.4936 25.1217L78.244 29.4361L74.0129 30.5408C64.9671 32.896 56.7133 37.1063 49.4392 43.0465L46.021 45.8603L42.9987 42.6296C40.4976 39.9617 37.1002 38.4819 33.4319 38.4819C26.1994 38.4819 20.3218 44.3596 20.3218 51.592C20.3218 56.6152 23.2606 61.2631 27.8043 63.4308L31.7853 65.3275L30.1596 69.4335C28.117 74.6025 26.7622 80.0633 26.1161 85.6284L25.6575 89.5677L21.6974 89.8178C14.8193 90.2555 9.42096 95.9873 9.42096 102.886C9.42096 110.119 15.2986 115.996 22.5311 115.996C23.4899 115.996 24.4486 115.892 25.4074 115.684L29.2633 114.829L30.8057 118.456C34.349 126.814 39.789 134.505 46.5003 140.716L50.0436 143.988L46.7088 147.469C44.3744 149.928 43.0821 153.138 43.0821 156.515C43.0821 163.747 48.9598 169.625 56.1923 169.625C62.32 169.625 67.5724 165.456 68.9481 159.495L70.0319 154.806L74.7007 155.973C79.8072 157.244 85.0804 157.89 90.3745 157.89C96.4814 157.89 102.547 157.036 108.362 155.348L113.406 153.93Z" fill="#55D4B1" fill-opacity="0.3"/>
</svg>
