<svg width="164" height="148" viewBox="0 0 164 148" fill="none" xmlns="http://www.w3.org/2000/svg">
<path d="M164 61.1008C164 55.2455 159.273 50.5116 153.443 50.5116C147.613 50.5116 142.886 55.2455 142.886 61.1008C142.886 63.8811 143.968 66.4031 145.721 68.2946L141.329 75.7571C140.602 75.5969 139.85 75.5039 139.071 75.5039C134.803 75.5039 131.138 78.0465 129.473 81.7054H119.014C117.468 78.3152 114.199 75.8811 110.328 75.5556L105.777 67.7571C107.246 65.9277 108.132 63.6176 108.132 61.1008C108.132 58.6822 107.318 56.4703 105.962 54.6925L110.612 46.7545C110.735 46.7597 110.859 46.77 110.988 46.77C116.818 46.77 121.54 42.0362 121.54 36.1912C121.54 30.3463 116.818 25.6072 110.988 25.6072C105.158 25.6072 100.431 30.3463 100.431 36.1912C100.431 38.4651 101.158 40.5736 102.38 42.3049L97.6371 50.5168C97.6165 50.5168 97.5958 50.5168 97.5701 50.5168C93.2607 50.5168 89.5647 53.1059 87.9254 56.8062L76.1828 56.8734C74.559 53.137 70.8527 50.5323 66.533 50.522L61.904 42.5065C63.7288 40.5995 64.8577 38.0207 64.8577 35.168C64.8577 32.7183 64.0278 30.4858 62.636 28.6873L67.0021 21.1421C72.6002 20.8837 77.0643 16.2636 77.0643 10.5788C77.0643 4.73385 72.3373 0 66.5072 0C60.6772 0 55.9502 4.73385 55.9502 10.5788C55.9502 13.2196 56.9193 15.6279 58.5121 17.478L54.3265 24.584C54.3213 24.584 54.311 24.584 54.3007 24.584C49.816 24.584 45.9963 27.3953 44.4653 31.354H32.3154C30.5577 27.9483 27.0215 25.6176 22.9389 25.6176C17.1088 25.6176 12.3767 30.3566 12.3767 36.2015C12.3767 42.0465 17.1088 46.7804 22.9389 46.7804C26.9905 46.7804 30.5061 44.4961 32.2794 41.1266H45.5788C47.2128 43.5349 49.8212 45.2196 52.8316 45.6434L58.141 54.6667C56.7698 56.4548 55.9502 58.677 55.9502 61.1111C55.9502 63.6537 56.8523 65.9897 58.3472 67.8139L53.8007 75.5401C49.749 75.7261 46.2953 78.2067 44.6973 81.7158H32.5371C30.8721 78.0568 27.207 75.5142 22.9389 75.5142C17.1088 75.5142 12.3767 80.2584 12.3767 86.1034C12.3767 88.6563 13.2891 91.0078 14.7994 92.8424L10.191 100.91C4.53107 101.101 0 105.752 0 111.473C0 117.318 4.72695 122.057 10.557 122.057C16.3871 122.057 21.1141 117.318 21.1141 111.473C21.1141 108.92 20.2171 106.584 18.7171 104.76L23.31 96.6718C27.0163 96.5375 30.2278 94.4961 32.0113 91.4935H45.2282C46.8778 94.2791 49.7593 96.2429 53.1254 96.615L58.0534 105.152C56.7389 106.915 55.9502 109.096 55.9502 111.473C55.9502 114.114 56.9193 116.527 58.5173 118.377L53.6202 126.863C48.1098 127.214 43.7488 131.793 43.7488 137.406C43.7488 143.256 48.4706 147.995 54.3007 147.995C60.1308 147.995 64.8577 143.256 64.8577 137.406C64.8577 134.667 63.8164 132.186 62.1154 130.31L64.7031 125.829C64.7031 125.829 64.7082 125.835 64.7134 125.84L66.9093 122.041C70.8373 121.897 74.2085 119.602 75.8993 116.31H88.1883C89.8843 119.628 93.2761 121.912 97.2196 122.041L101.838 130.052C99.9928 131.953 98.8536 134.548 98.8536 137.411C98.8536 143.261 103.581 148 109.416 148C115.246 148 119.973 143.261 119.973 137.411C119.973 131.933 115.808 127.421 110.488 126.889L105.586 118.362C107.173 116.512 108.132 114.114 108.132 111.483C108.132 109.096 107.338 106.91 106.008 105.132L110.978 96.5685C114.174 96.093 116.901 94.1809 118.488 91.4987H130.004C131.844 94.6047 135.216 96.6977 139.077 96.6977C144.912 96.6977 149.634 91.9587 149.634 86.1137C149.634 84.5581 149.293 83.0853 148.69 81.7571L154.479 71.6486C159.819 71.1059 164 66.5891 164 61.1008ZM97.5701 101.245C93.2246 101.245 89.4977 103.504 87.8739 107.261H76.1931C74.5745 103.499 70.8424 100.879 66.5021 100.879C66.3784 100.879 66.2547 100.889 66.1258 100.894L61.8988 93.4264C63.7237 91.5297 64.8526 88.9354 64.8526 86.093C64.8526 83.4005 63.8422 80.9406 62.1875 79.0801L66.4609 71.6744C66.4763 71.6744 66.4866 71.6796 66.5021 71.6796C70.595 71.6796 74.1363 69.3385 75.889 65.9225H88.178C89.8688 69.23 93.24 71.5142 97.1628 71.6537L101.436 79.1525C99.8279 81.0129 98.8485 83.4367 98.8485 86.093C98.8485 88.9767 100.003 91.7778 101.869 93.6899L97.5855 101.251C97.5855 101.245 97.5752 101.245 97.5701 101.245Z" fill="#55D4B1" fill-opacity="0.3"/>
</svg>
