<svg width="89" height="107" viewBox="0 0 89 107" fill="none" xmlns="http://www.w3.org/2000/svg">
<path d="M86.1933 6.83596C79.6155 9.0202 72.2727 7.2034 67.0843 1.99798C67.0843 1.95715 67.0755 1.90611 67.0667 1.86529C66.8469 0.507794 65.4399 -0.25771 64.3582 0.0791121C63.1359 0.466967 62.5995 1.85508 62.8193 3.22278C63.9801 10.3777 62.2741 18.1552 58.2905 23.7791C56.778 25.9225 58.6598 29.3112 60.955 27.7904C66.8996 23.8506 74.8493 26.7084 77.4522 34.2206C78.4987 37.252 82.1921 36.1395 81.6908 32.8631C80.4597 24.8712 83.1506 16.4813 88.3126 11.1024C89.9746 9.37743 88.2247 6.15211 86.1757 6.83596H86.1933ZM72.5101 22.0746C70.0918 20.9621 67.4625 20.6354 64.9035 21.0131C66.5039 17.1345 67.4009 12.9192 67.5152 8.61193C71.6483 11.5004 76.4497 12.9702 81.2687 12.8273C79.1055 16.6242 77.7424 20.9825 77.2764 25.504C75.8957 24.0751 74.304 22.9013 72.5101 22.0746Z" fill="#55D4B1"/>
<path d="M62.2991 61.1272C53.9829 61.0239 45.8279 58.0272 39.9305 52.7469C34.0331 47.4666 30.6583 40.1712 30.52 32.7106C30.497 31.6359 29.8865 30.9126 29.0572 30.5302C28.9996 30.3132 28.9536 30.0859 28.896 29.8689C28.0321 26.6346 22.4803 28.0089 23.3441 31.2432C26.6384 43.5606 21.4897 56.9939 11.3075 65.5912C8.38183 68.0609 5.04152 70.0448 1.40173 71.5742C-1.16686 72.6488 0.0771205 76.5755 2.85304 76.3895C18.7368 75.3252 34.6897 82.5688 43.6394 94.3281C46.185 97.6658 48.1316 101.293 49.3986 105.178C50.2855 107.906 55.1808 107.482 55.0541 104.496C54.4782 90.8355 57.807 77.1852 64.7871 65.0229C65.7776 63.2869 64.5682 61.1582 62.2991 61.1375V61.1272ZM49.675 93.2535C42.6143 83.0235 30.9693 75.3458 17.919 72.4215C16.1337 72.0185 14.3138 71.7085 12.4824 71.4915C20.764 65.6119 26.5693 57.0352 28.9305 47.7662C30.7159 50.9385 33.0426 53.8732 35.8645 56.4049C41.785 61.6955 49.6405 65.0332 57.8876 66.0045C53.4876 74.6225 50.7001 83.8502 49.6865 93.2535H49.675Z" fill="#55D4B1"/>
</svg>
