<svg width="133" height="238" viewBox="0 0 133 238" fill="none" xmlns="http://www.w3.org/2000/svg">
<path d="M61.1891 70.2049C60.9236 70.0632 60.6404 70.0013 60.3395 70.0101C59.7642 70.0367 59.1712 70.2226 58.773 70.6563C58.3747 71.0901 58.1269 71.6212 58.1269 72.2231V74.9938C58.1269 75.5603 58.3747 76.1534 58.773 76.5606C58.9765 76.7731 59.2066 76.9324 59.481 77.0209C59.7465 77.1626 60.0297 77.2245 60.3306 77.2157C60.9059 77.1891 61.4989 77.0032 61.8971 76.5695C62.2954 76.1357 62.5432 75.6046 62.5432 75.0027V72.232C62.5432 71.6654 62.2954 71.0723 61.8971 70.6652C61.6936 70.4527 61.4634 70.2934 61.1891 70.2049Z" fill="#55D4B1"/>
<path d="M68.8092 69.5142C68.5437 69.3726 68.2605 69.3106 67.9596 69.3195C67.3843 69.346 66.7913 69.5319 66.3931 69.9657C65.9948 70.3994 65.747 70.9306 65.747 71.5325V74.3032C65.747 74.8697 65.9948 75.4628 66.3931 75.87C66.5966 76.0825 66.8267 76.2418 67.1011 76.3303C67.3666 76.4719 67.6498 76.5339 67.9507 76.5251C68.526 76.4985 69.119 76.3126 69.5172 75.8789C69.9155 75.4451 70.1633 74.914 70.1633 74.312V71.5414C70.1633 70.9748 69.9155 70.3817 69.5172 69.9745C69.3137 69.7621 69.0836 69.6028 68.8092 69.5142Z" fill="#55D4B1"/>
<path d="M71.1722 76.8351C64.6318 84.1735 52.1795 85.4393 44.5063 79.0835C43.5859 78.3223 42.276 78.1806 41.3733 79.0835C40.5856 79.8714 40.4529 81.447 41.3733 82.2172C50.8166 90.0424 66.0479 89.2191 74.2964 79.9688C76.1903 77.8531 73.0662 74.7106 71.1634 76.8351H71.1722Z" fill="#55D4B1"/>
<path d="M63.0034 66.7613C65.862 66.4073 68.4109 64.7962 69.8535 62.2733C70.4288 61.2642 70.119 59.8036 69.057 59.2459C68.0038 58.6883 66.6409 58.9627 66.0302 60.0426C65.9151 60.2462 65.7824 60.441 65.6585 60.6357C65.5965 60.7065 65.5346 60.7773 65.4726 60.8482C65.3045 61.0252 65.1275 61.2022 64.9504 61.3616C64.9416 61.3704 64.915 61.397 64.8885 61.4235C64.8885 61.4235 64.8619 61.4413 64.8177 61.4678C64.7734 61.5032 64.7292 61.5298 64.6849 61.5563C64.4814 61.6891 64.269 61.8219 64.0566 61.9281C63.9769 61.9724 63.8884 62.0078 63.7999 62.052C63.8176 62.052 63.8353 62.0343 63.8353 62.0432C63.8353 62.0432 63.8176 62.0432 63.7999 62.052C63.7822 62.052 63.7734 62.0609 63.7645 62.0697C63.4902 62.2025 63.7114 62.0875 63.7999 62.052C63.6672 62.0963 63.1892 62.2468 63.1361 62.2645C63.0299 62.291 62.9237 62.3176 62.8175 62.3353C62.8175 62.3353 62.7998 62.3353 62.791 62.3353C62.6494 62.3088 62.2777 62.3796 62.1715 62.3796C61.9414 62.3796 61.7201 62.3619 61.49 62.3442C61.3572 62.3088 61.2245 62.291 61.1006 62.2645C60.8793 62.2114 60.6669 62.1494 60.4545 62.0697C60.4103 62.052 60.2244 61.9724 60.1713 61.9458C60.1536 61.9458 60.1447 61.9281 60.1359 61.9281C59.9146 61.813 59.6934 61.6891 59.481 61.5475C59.4633 61.5298 59.3925 61.4944 59.3305 61.459C59.3128 61.4413 59.2951 61.4235 59.2597 61.3881C59.0562 61.2022 58.8526 61.0075 58.6579 60.8039C57.8702 59.9541 56.3126 59.9453 55.5249 60.8039C54.6841 61.7157 54.6841 63.0258 55.5249 63.9375C57.3746 65.9381 60.2686 67.08 62.9945 66.7348L63.0034 66.7613ZM64.8708 61.4324C64.8088 61.4944 64.7203 61.574 64.6938 61.5652C64.7911 61.4944 64.8442 61.4501 64.8708 61.4324Z" fill="#55D4B1"/>
<path d="M131.903 18.9604C130.212 18.1991 128.487 17.6326 126.655 17.3759C124.646 17.0926 122.734 17.1192 120.725 17.4201C120.212 17.4998 119.654 18.0132 119.406 18.4381C119.132 18.9161 119.008 19.6154 119.185 20.1466C119.583 21.3859 120.654 21.8639 121.858 21.6957C121.84 21.6957 121.831 21.6957 121.813 21.6957C121.84 21.6957 121.875 21.6957 121.902 21.6868C121.982 21.678 122.061 21.6691 122.141 21.6603C122.309 21.6426 122.477 21.6249 122.637 21.616C123.026 21.5895 123.415 21.5717 123.805 21.5717C124.194 21.5717 124.584 21.5806 124.973 21.616C125.141 21.6249 125.309 21.6426 125.469 21.6603C125.548 21.6603 125.619 21.678 125.699 21.6868C126.416 21.8019 127.133 21.9435 127.841 22.1471C128.212 22.2534 128.584 22.3773 128.956 22.5101C129.115 22.5632 129.265 22.6251 129.425 22.6871C129.434 22.6871 129.434 22.6871 129.442 22.6871C129.513 22.7225 129.593 22.7491 129.664 22.7845C130.717 23.2625 132.098 23.1209 132.69 21.9878C133.204 21.0141 133.018 19.4738 131.894 18.9604H131.903Z" fill="#55D4B1"/>
<path d="M124.362 28.7418C121.061 28.1487 117.645 28.3966 114.477 29.3791C113.698 27.6087 112.839 25.8737 111.901 24.1918C111.689 23.8112 111.45 23.4483 111.229 23.0676C112.193 22.6693 113.176 22.2886 114.176 21.9523C116.866 21.0494 115.707 16.7738 112.999 17.6856C111.583 18.1636 110.184 18.7036 108.812 19.2967C107.166 16.9332 105.37 14.667 103.405 12.5602C102.865 11.9849 102.237 11.8167 101.653 11.9052C101.431 11.8167 101.192 11.7724 100.945 11.7547C100.936 11.6396 100.918 11.5157 100.883 11.3918C100.794 11.0731 100.723 10.7456 100.67 10.418C100.67 10.3826 100.661 10.3384 100.661 10.3207C100.652 10.1436 100.626 9.96659 100.617 9.78955C100.564 9.04598 100.555 8.30241 100.511 7.55884C100.414 6.0894 100.166 4.73503 99.5108 3.40723C98.1656 0.689646 95.0857 -0.868314 92.227 0.512606C89.2799 1.93779 88.5453 5.55827 89.2976 8.4883C89.9171 10.9049 91.519 12.9055 93.5192 14.3395C95.599 15.8267 98.1744 16.4197 100.688 16.1365C102.166 17.7564 103.538 19.4737 104.803 21.253C99.6701 24.0502 95.0149 27.6972 91.103 32.0348C87.0408 30.5388 82.7572 29.6801 78.4294 29.5385C78.987 27.8477 79.2702 26.1039 78.8188 24.2981C78.1728 21.7221 75.9779 19.5268 73.2078 19.5622C70.3845 19.5976 67.933 21.7133 67.3489 24.4574C66.809 27.0068 67.579 29.5916 69.3845 31.4594C70.5881 32.6987 72.128 33.5042 73.7742 33.8052C74.0662 33.9379 74.4026 34.0176 74.8097 33.9911C79.3145 33.7255 83.8281 34.3186 88.1028 35.6818C86.6867 37.585 85.3946 39.5856 84.2529 41.6835C82.89 44.1886 86.7133 46.4282 88.0762 43.9142C89.333 41.595 90.7933 39.4085 92.4217 37.346C95.9618 38.9659 99.2541 41.1258 102.13 43.7726C109.379 50.4382 113.37 59.7771 113.609 69.5409C113.406 70.311 113.184 71.0811 112.946 71.8424C112.662 72.7365 112.946 73.4535 113.459 73.9315C113.043 78.4726 111.786 82.9163 109.724 86.9971C106.025 79.5083 101.122 72.6214 95.5724 66.3719C86.4301 56.0769 75.5885 47.4904 64.8354 38.9748C63.8973 38.2312 62.6228 38.063 61.7024 38.9748C61.2245 39.4528 60.9767 40.2672 61.0829 40.993C50.6396 48.234 41.0193 56.6877 33.3461 66.8676C25.4074 77.4015 20.053 89.7147 18.6104 102.878C18.3006 105.675 18.2033 108.472 18.3006 111.252C13.9905 109.614 9.09634 110.198 5.32612 112.942C1.24614 115.917 -0.638965 120.635 0.192961 125.601C0.980636 130.284 4.24639 134.391 8.70693 136.046C11.3886 137.047 14.3357 137.1 17.1589 137.144C19.7609 137.188 22.5753 137.144 24.9737 138.295C25.9915 138.79 26.912 139.463 27.7085 140.26C28.3545 141.216 29.0272 142.145 29.7175 143.066C30.576 144.774 30.9831 146.695 30.8149 148.59C28.8767 149.156 27.2217 150.847 26.496 152.724C25.3543 155.671 26.8589 158.911 28.9564 161.009C31.2397 163.284 34.5232 165.055 37.8155 164.515C39.205 164.284 40.5945 163.541 41.4795 162.434C42.6124 161.009 42.9752 159.248 42.5238 157.486C42.4707 157.274 42.3999 157.07 42.3291 156.866C44.586 159.026 46.887 161.142 49.1616 163.258C51.8609 165.754 54.5779 168.277 57.2065 170.879C54.9408 185.025 55.1974 199.471 58.0472 213.519C58.6756 216.644 59.4456 219.734 60.3306 222.788C58.2242 223.106 56.2064 223.93 54.6399 225.417C52.4804 227.453 51.498 230.905 52.5601 233.72C53.6132 236.517 56.3745 238.217 59.3482 237.978C62.3131 237.739 64.9682 236.128 66.5612 233.622C68.5437 230.507 68.7561 226.647 68.88 223.062C68.9596 220.61 65.6939 220.274 64.7204 222.053C60.9944 209.359 59.4898 196.099 60.2775 182.883C60.4368 180.2 60.7023 177.518 61.0563 174.854C64.7204 178.802 68.0835 183.015 70.8093 187.689C71.4908 188.858 72.1192 190.044 72.7122 191.257C73.3228 192.496 75.2787 192.717 76.1903 191.708C81.7394 185.52 87.3682 179.209 92.5987 172.596C92.3067 189.141 92.0235 205.685 91.7314 222.23C90.9349 222.734 90.3596 223.779 90.7313 224.7C92.0943 228.117 94.4396 231.188 98.024 232.427C101.52 233.631 105.494 232.065 107.343 228.878C109.273 225.576 107.901 221.513 104.458 219.902C101.661 218.592 98.8647 219.025 96.1919 220.052C96.5017 202.57 96.8026 185.078 97.1124 167.595C97.1124 167.312 97.0681 167.064 96.9885 166.834C105.033 155.831 111.662 143.934 114.795 130.443C117.486 118.873 117.167 106.888 113.3 95.619C112.822 94.2204 112.299 92.8483 111.733 91.4851C112.149 91.3346 112.538 91.0337 112.822 90.5202C116.291 84.315 118.034 77.1979 117.999 70.0986C121.105 58.0509 120.3 45.1269 116.079 33.4334C118.442 32.7429 120.875 32.557 123.15 32.9642C124.327 33.1767 125.531 32.6455 125.876 31.4151C126.168 30.344 125.513 28.9011 124.327 28.6887L124.362 28.7418ZM95.7317 5.71761C95.7317 5.71761 95.7052 5.64679 95.6963 5.62024C95.714 5.65565 95.7229 5.69105 95.7317 5.71761ZM95.3158 5.00059C95.3158 5.00059 95.3158 5.00059 95.2981 4.98289C95.2981 4.98289 95.3069 5.00059 95.3158 5.00059ZM94.5104 4.39865C94.5104 4.39865 94.475 4.39865 94.4573 4.38095C94.475 4.38095 94.4838 4.38095 94.5015 4.39865H94.5104ZM94.4307 4.3721C94.3422 4.33669 94.3688 4.35439 94.4307 4.3721V4.3721ZM94.1475 4.48718C94.1298 4.48718 94.121 4.48718 94.0944 4.50488C94.1121 4.50488 94.1298 4.49603 94.1564 4.48718H94.1475ZM93.5988 5.13338C93.6165 5.07141 93.6254 5.036 93.5988 5.13338V5.13338ZM95.7406 10.5243C95.6521 10.4535 95.4839 10.3118 95.4485 10.2853C95.2538 10.1082 95.0591 9.92233 94.8733 9.72759C94.7582 9.60366 94.6431 9.47088 94.5369 9.3381C94.5015 9.28499 94.4573 9.23187 94.4219 9.17876C94.1741 8.81583 93.9794 8.44404 93.7847 8.05455C93.7581 7.96603 93.7227 7.87751 93.6873 7.78899C93.6254 7.61195 93.5811 7.43491 93.5369 7.24902C93.5192 7.16935 93.4661 6.87723 93.4484 6.78871C93.4218 6.52315 93.413 6.25759 93.4218 5.99202C93.4218 5.95662 93.4307 5.83269 93.4395 5.75302C93.4395 5.71761 93.4484 5.6822 93.4572 5.67335C93.4926 5.54057 93.528 5.40779 93.5634 5.28386C93.5634 5.24845 93.5811 5.23075 93.5811 5.20419C93.6431 5.08912 93.7935 4.86781 93.8024 4.83241C93.882 4.74389 93.9705 4.65536 94.0679 4.56684C93.9971 4.67307 94.4573 4.3898 94.1475 4.48718C94.236 4.46062 94.3245 4.43406 94.413 4.40751C94.4219 4.40751 94.4219 4.40751 94.4307 4.40751C94.4661 4.40751 94.5015 4.40751 94.5369 4.41636C94.5812 4.43406 94.6431 4.45177 94.6963 4.46062C94.7759 4.51373 94.8644 4.56684 94.9529 4.6111C95.0591 4.71733 95.2184 4.90322 95.2804 4.96519C95.3246 5.02715 95.36 5.08026 95.4043 5.14223C95.4751 5.24845 95.599 5.41664 95.6786 5.57598C95.6786 5.59368 95.6963 5.63794 95.7229 5.72646C95.7671 5.85924 95.8114 5.98317 95.8468 6.11595C95.9176 6.36381 95.9707 6.62052 96.0149 6.87723C95.9972 6.78871 95.9707 6.47004 96.0149 6.92149C96.0326 7.06312 96.0415 7.20475 96.0503 7.34639C96.0769 7.70047 96.0946 8.05455 96.1123 8.40863C96.1477 9.23187 96.1919 10.064 96.2893 10.8872C96.2185 10.8429 96.1388 10.7987 96.068 10.7544C96.0326 10.7279 95.8379 10.5951 95.7229 10.5154L95.7406 10.5243ZM73.0042 28.7861C72.8449 28.6798 72.9069 28.7064 73.0042 28.7861V28.7861ZM74.6327 26.7412C74.6327 26.7412 74.6327 26.7058 74.6415 26.6881C74.6415 26.7058 74.6415 26.7235 74.6327 26.7412ZM71.8625 27.3963C71.836 27.2458 71.7209 27.0422 71.6855 26.9006C71.659 26.812 71.6413 26.7324 71.6236 26.6439C71.6236 26.6262 71.6059 26.5996 71.6059 26.5819C71.6324 26.635 71.6413 26.6616 71.6501 26.6793C71.6324 26.6439 71.6059 26.5642 71.6059 26.4934C71.6059 26.3694 71.5882 26.2367 71.5882 26.1127C71.5882 26.0154 71.5882 25.9091 71.597 25.8118C71.597 25.7852 71.597 25.7586 71.597 25.7321C71.6059 25.679 71.6147 25.6259 71.6324 25.5728C71.659 25.4754 71.6767 25.378 71.7121 25.2806C71.7386 25.201 71.7652 25.1213 71.7917 25.0416C71.836 24.9443 71.9068 24.7849 71.9776 24.661C72.0041 24.6433 72.0307 24.6167 72.0749 24.5636C72.1369 24.4928 72.2077 24.4308 72.2785 24.36C72.305 24.3423 72.305 24.3335 72.3227 24.3158C72.3404 24.3069 72.3581 24.2981 72.3935 24.2715C72.4732 24.2184 72.5528 24.1741 72.6413 24.1299C72.6591 24.1299 72.6768 24.1122 72.7033 24.1033C72.7299 24.0945 72.7476 24.0856 72.7653 24.0768C72.8715 24.0414 72.9777 24.0236 73.075 23.9971C73.1458 23.9971 73.2078 23.9971 73.2786 23.9971C73.314 23.9971 73.3317 23.9971 73.3582 23.9971C73.3671 23.9971 73.3671 23.9971 73.3848 23.9971C73.4556 24.0148 73.5264 24.0414 73.5972 24.0591C73.6414 24.0768 73.6768 24.1033 73.7211 24.1299C73.7919 24.1741 74.2079 24.4043 73.8715 24.2184C73.5972 24.0679 73.8184 24.183 73.8981 24.2627C73.96 24.3246 74.022 24.3866 74.0839 24.4485C74.1016 24.4663 74.1016 24.4663 74.1105 24.4751C74.1193 24.4928 74.1282 24.5017 74.137 24.5194C74.2344 24.6698 74.3229 24.8292 74.4026 24.9885C74.4026 24.9885 74.4026 24.9974 74.4026 25.0062C74.261 24.7672 74.4468 25.1302 74.4734 25.2187C74.5265 25.3957 74.5619 25.5728 74.6061 25.7498C74.6061 25.8472 74.6238 25.9534 74.6238 26.0419C74.6238 26.2101 74.6504 26.4403 74.6238 26.6439C74.6238 26.6616 74.6061 26.7147 74.5884 26.8209C74.5619 26.9625 74.5353 27.113 74.4999 27.2546C74.376 27.8123 74.199 28.3523 73.9954 28.8746C73.9512 28.9896 73.9069 29.0959 73.8627 29.211C73.8627 29.2287 73.8538 29.2375 73.845 29.2464C73.7919 29.2287 73.7388 29.2021 73.7034 29.1844C73.5441 29.1047 73.3936 29.0162 73.2432 28.9277C73.1724 28.8834 73.0927 28.8303 73.0219 28.7861C72.783 28.5559 72.5174 28.3434 72.2962 28.0867C72.2785 28.0602 72.2696 28.0602 72.2519 28.0425C72.2519 28.0336 72.2519 28.0336 72.2342 28.0159C72.1192 27.8566 72.0218 27.6884 71.9245 27.5114C71.8979 27.4671 71.8802 27.4228 71.8537 27.3786L71.8625 27.3963ZM60.6669 233.206C59.9147 233.543 58.9588 233.684 58.357 233.569C56.6312 233.251 56.171 231.232 57.0029 229.595C58.1357 227.364 61.0652 226.975 63.2866 227.107C63.6229 227.125 63.9504 227.045 64.2336 226.904C64.0477 228.382 63.6937 229.834 62.9414 231.117C62.4016 232.047 61.6582 232.755 60.6581 233.198L60.6669 233.206ZM102.077 223.708C103.724 224.239 104.378 225.585 103.414 226.921C101.077 230.161 97.6257 227.736 95.8556 225.08C97.7584 224.071 99.9622 223.027 102.077 223.708ZM6.1138 128.69C4.07823 125.627 3.65342 121.582 5.86599 118.519C8.17591 115.324 12.9816 113.748 16.5748 115.279C17.2386 115.563 17.9643 115.616 18.5838 115.377C19.2476 121.618 20.9557 127.699 23.6993 133.373C21.9735 132.975 20.1503 132.807 18.3095 132.762C13.8666 132.656 8.86623 132.833 6.10495 128.69H6.1138ZM37.9306 152.538C37.1075 152.157 36.2402 151.838 35.3728 151.582C35.3817 151.546 35.4082 151.511 35.4171 151.467C35.5675 150.803 35.4525 150.218 35.1427 149.74C35.1427 149.696 35.1516 149.652 35.1604 149.608C36.0631 150.599 36.9924 151.573 37.9306 152.538ZM37.2579 157.185C37.3376 157.256 37.4172 157.336 37.2579 157.185V157.185ZM31.5406 153.104C31.5406 153.104 31.5407 153.122 31.5141 153.131C31.5318 153.113 31.5406 153.104 31.5406 153.104ZM31.4787 153.166C31.1955 153.334 31.3725 153.237 31.4787 153.166V153.166ZM31.0273 153.591L30.9742 153.671C30.9742 153.671 30.9919 153.635 31.0273 153.591ZM32.9744 158.69C33.0452 158.743 33.0629 158.752 32.9744 158.69V158.69ZM34.9834 159.885C35.0631 159.911 35.3109 160.044 34.9834 159.885V159.885ZM36.9836 160.221C37.0367 160.212 37.0721 160.212 37.0809 160.221C37.0809 160.221 37.0455 160.221 36.9836 160.221ZM36.9659 160.221C36.7004 160.301 36.842 160.248 36.9659 160.221V160.221ZM37.9129 159.832C37.8243 159.876 37.7358 159.947 37.6385 160C37.6208 160.009 37.5942 160.027 37.5588 160.044C37.4792 160.071 37.3553 160.124 37.3199 160.133C37.2137 160.168 37.0986 160.186 36.9924 160.221C36.9924 160.221 36.9924 160.221 36.9836 160.221C36.7977 160.221 36.4172 160.239 36.3729 160.239C36.3287 160.239 36.2933 160.239 36.2667 160.239C36.1605 160.221 36.0631 160.204 35.9569 160.177C35.6206 160.097 35.302 159.991 34.9834 159.876C34.9657 159.876 34.9569 159.867 34.948 159.858C34.8241 159.796 34.7002 159.743 34.5763 159.672C34.3285 159.549 34.0895 159.407 33.8594 159.265C33.6382 159.132 33.4258 158.991 33.2134 158.84C33.1337 158.787 33.054 158.725 32.9744 158.672C32.939 158.646 32.9036 158.619 32.8593 158.584C32.4788 158.274 32.1248 157.937 31.7885 157.575C31.7088 157.486 31.6292 157.397 31.5495 157.3C31.5318 157.274 31.4698 157.203 31.4256 157.141C31.3902 157.097 31.3548 157.043 31.3459 157.026C31.2663 156.902 31.1778 156.778 31.107 156.645C30.9831 156.441 30.8857 156.229 30.7795 156.017C31.0096 156.45 30.7353 155.884 30.691 155.724C30.6556 155.609 30.6291 155.494 30.6025 155.379C30.6025 155.362 30.576 155.14 30.5583 155.061C30.5583 155.034 30.5583 155.016 30.5583 154.999C30.5583 154.963 30.5406 154.83 30.5406 154.724C30.5406 154.715 30.5406 154.706 30.5406 154.698C30.576 154.538 30.6202 154.388 30.6645 154.228C30.6645 154.202 30.6733 154.184 30.6822 154.158C30.7264 154.078 30.7707 153.998 30.8061 153.936C30.8592 153.839 30.9123 153.75 30.9742 153.662C31.0096 153.609 31.0362 153.573 31.0539 153.538C31.1778 153.414 31.4079 153.219 31.4964 153.131C31.5938 153.069 31.6911 153.016 31.7973 152.954C31.5849 154.096 32.1956 155.264 33.355 155.583C33.8683 155.724 34.3816 155.866 34.8861 156.025C35.1427 156.105 35.3905 156.194 35.6383 156.282C35.7091 156.309 35.7799 156.335 35.8507 156.362C35.833 156.362 36.1693 156.503 36.2047 156.521C36.4349 156.636 36.665 156.76 36.8862 156.902C37.0013 156.973 37.1075 157.043 37.2137 157.114C37.2225 157.114 37.2402 157.141 37.2579 157.15C37.4172 157.3 37.5765 157.451 37.727 157.61C37.7447 157.628 37.7624 157.654 37.7801 157.681C37.842 157.769 37.8952 157.849 37.9483 157.937C38.0102 158.035 38.0633 158.141 38.1164 158.238C38.1341 158.265 38.1607 158.345 38.1872 158.407C38.1961 158.451 38.2138 158.486 38.2138 158.513C38.2492 158.619 38.258 158.734 38.3023 158.84C38.3023 158.947 38.3023 159.062 38.3023 159.168C38.3023 159.194 38.3023 159.212 38.3023 159.23C38.2846 159.292 38.258 159.354 38.2403 159.407C38.2403 159.407 38.2403 159.407 38.2315 159.416C38.2138 159.433 38.1961 159.478 38.1695 159.522C38.143 159.566 38.1164 159.602 38.0899 159.628C38.0279 159.69 37.9571 159.752 37.8951 159.814L37.9129 159.832ZM111.352 125.433C109.343 136.958 104.449 147.713 98.1479 157.495C91.4747 167.861 83.3413 177.155 75.1283 186.326C70.3403 177.793 63.4459 170.622 56.3745 163.939C48.6128 156.61 40.3378 149.643 33.7798 141.154C33.647 140.986 33.5231 140.818 33.3992 140.641C32.8947 139.711 32.2929 138.817 31.6026 137.985C31.4521 137.799 31.2928 137.631 31.1335 137.463C29.0006 134.267 27.1598 130.868 25.8145 127.283C23.6019 121.379 22.6019 115.12 22.6727 108.817C22.8143 96.1236 27.1863 83.8901 34.1515 73.365C40.9396 63.1054 50.0554 54.457 59.9501 47.2072C61.2156 46.2777 62.4989 45.3659 63.7999 44.4807C63.9592 44.3745 64.1008 44.2417 64.2247 44.109C81.3058 57.6614 98.9355 72.2673 107.565 92.8395C111.901 103.17 113.282 114.377 111.352 125.433ZM95.4131 33.9114C98.847 30.3263 102.839 27.2901 107.219 24.9531C108.414 26.9448 109.467 29.0162 110.414 31.1407C108.37 32.3092 106.529 33.8317 105.016 35.6907C104.263 36.6201 104.113 37.9125 105.016 38.8243C105.795 39.6033 107.388 39.7537 108.149 38.8243C109.282 37.4257 110.609 36.2306 112.078 35.2923C114.432 41.9225 115.609 48.9687 115.503 56.015C111.901 46.3043 104.617 38.5056 95.4131 33.9202V33.9114Z" fill="#55D4B1"/>
</svg>
